M48
; DRILL file {KiCad 9.0.0} date 2025-12-31T11:43:12+0100
; FORMAT={-:-/ absolute / inch / decimal}
; #@! TF.CreationDate,2025-12-31T11:43:12+01:00
; #@! TF.GenerationSoftware,Kicad,Pcbnew,9.0.0
; #@! TF.FileFunction,MixedPlating,1,2
FMAT,2
INCH
; #@! TA.AperFunction,Plated,PTH,ViaDrill
T1C0.0118
; #@! TA.AperFunction,Plated,PTH,ViaDrill
T2C0.0150
; #@! TA.AperFunction,Plated,PTH,ViaDrill
T3C0.0250
; #@! TA.AperFunction,Plated,PTH,ComponentDrill
T4C0.0276
; #@! TA.AperFunction,Plated,PTH,ComponentDrill
T5C0.0295
; #@! TA.AperFunction,Plated,PTH,ComponentDrill
T6C0.0315
; #@! TA.AperFunction,Plated,PTH,ComponentDrill
T7C0.0331
; #@! TA.AperFunction,Plated,PTH,ComponentDrill
T8C0.0394
; #@! TA.AperFunction,Plated,PTH,ComponentDrill
T9C0.0398
; #@! TA.AperFunction,Plated,PTH,ComponentDrill
T10C0.0433
; #@! TA.AperFunction,Plated,PTH,ComponentDrill
T11C0.0441
; #@! TA.AperFunction,Plated,PTH,ComponentDrill
T12C0.0480
; #@! TA.AperFunction,Plated,PTH,ComponentDrill
T13C0.0512
%
G90
G05
T1
X4.0118Y-2.1352
X7.8118Y-3.2102
X7.9368Y-3.0852
X8.2868Y-2.5352
X8.4868Y-2.5352
X8.8868Y-2.5102
T2
X1.3726Y-2.0368
X1.5573Y-2.9368
X1.7949Y-2.9018
X1.7949Y-2.9818
X1.7949Y-3.0618
X1.7949Y-3.1418
X1.7949Y-3.2218
X1.9823Y-2.8118
X2.2073Y-2.9368
X2.2473Y-2.0818
X2.5823Y-3.4259
X2.6573Y-3.4259
X2.6573Y-3.5539
X2.7073Y-3.0118
X2.7323Y-3.4259
X2.7323Y-3.6368
X2.7323Y-3.8868
X2.9009Y-1.8852
X2.9118Y-3.4618
X3.1868Y-1.8102
X3.2118Y-1.9602
X3.2518Y-2.6852
X3.2518Y-2.9352
X3.3135Y-1.8852
X3.4197Y-3.4273
X3.4868Y-2.1602
X3.5242Y-1.8102
X3.5368Y-3.3102
X3.5468Y-2.6302
X3.5992Y-2.0864
X3.6118Y-2.4352
X3.6168Y-2.644
X3.6366Y-2.1602
X3.6748Y-3.4602
X3.7259Y-1.8852
X3.7368Y-3.3852
X3.7368Y-3.7197
X3.7492Y-2.0864
X3.7618Y-2.4352
X3.7866Y-2.1602
X3.8368Y-3.4102
X3.8992Y-2.0864
X3.9118Y-2.4352
X3.9366Y-2.1602
X4.0823Y-1.6468
X4.0823Y-1.7118
X4.0868Y-2.1352
X4.0868Y-3.4602
X4.0868Y-3.5102
X4.1376Y-3.8185
X4.1868Y-3.5128
X4.2368Y-3.7852
X4.2699Y-1.7118
X4.2868Y-3.7077
X4.3323Y-3.8118
X4.3368Y-3.4226
X4.3368Y-3.6431
X4.3377Y-3.5744
X4.3868Y-3.6431
X4.4071Y-3.8118
X4.4132Y-3.8632
X4.4168Y-3.3478
X4.4168Y-3.4226
X4.4368Y-3.7102
X4.4618Y-2.3226
X4.4868Y-3.8352
X4.5368Y-3.5128
X4.6118Y-3.3102
X4.6261Y-2.3745
X4.6368Y-2.5228
X4.6368Y-2.5976
X4.7368Y-2.3102
X4.7868Y-2.1602
X4.7868Y-3.1102
X4.8368Y-2.8352
X4.9368Y-3.3102
X5.6073Y-2.4368
X5.6227Y-3.1352
X6.0368Y-1.8289
X6.0868Y-1.8289
X6.8073Y-3.8868
X7.5088Y-1.8383
X7.6868Y-2.1852
X7.7274Y-2.2509
X8.0118Y-1.9602
X8.2368Y-2.7102
X8.4868Y-2.4243
X8.8618Y-1.8602
X8.8868Y-3.2524
X9.4323Y-3.8868
X9.6073Y-3.0618
X9.6118Y-2.3602
X10.5618Y-2.3852
X10.5868Y-2.9102
T3
X1.1976Y-3.4868
X2.5823Y-3.5868
X3.1742Y-3.4102
X3.4268Y-3.0352
X4.4868Y-2.5102
X4.7573Y-3.7618
X7.9618Y-1.8352
X8.3618Y-1.9264
X8.3618Y-3.0941
X8.4868Y-2.7102
X8.6368Y-2.1941
X8.6368Y-2.8264
T4
X3.3868Y-3.6102
X3.3868Y-3.7102
X3.4368Y-3.6602
X3.6191Y-3.6602
X3.6691Y-3.6102
X3.6691Y-3.7102
X3.8868Y-2.7852
X3.8868Y-2.8852
X3.8868Y-3.0602
X3.8868Y-3.1602
X3.9368Y-2.8352
X3.9368Y-3.1102
T5
X4.8618Y-2.5494
X4.8868Y-2.2994
X4.9118Y-2.4994
X4.9368Y-2.2494
X4.9618Y-2.5494
X4.9868Y-2.2994
X5.1868Y-3.1352
X5.2368Y-3.0852
X5.2868Y-3.1352
T6
X2.1073Y-2.6368
X2.1073Y-2.7368
X2.1073Y-2.8368
X2.1073Y-2.9368
X2.1073Y-3.0368
X2.1073Y-3.1368
X2.1073Y-3.2368
X2.1073Y-3.3368
X2.1073Y-3.4368
X2.4073Y-2.6368
X2.4073Y-2.7368
X2.4073Y-2.8368
X2.4073Y-2.9368
X2.4073Y-3.0368
X2.4073Y-3.1368
X2.4073Y-3.2368
X2.4073Y-3.3368
X2.4073Y-3.4368
T7
X5.4368Y-1.9602
X5.4368Y-2.1102
X5.6618Y-1.9602
X5.6618Y-2.1102
X5.8868Y-1.9602
X5.8868Y-2.1102
T8
X1.2073Y-2.0368
X1.2073Y-2.4368
X1.2073Y-2.5368
X1.2073Y-2.6368
X1.2073Y-2.7368
X1.2073Y-2.8368
X1.2073Y-2.9368
X1.2073Y-3.0368
X1.2073Y-3.1368
X1.3073Y-2.4368
X1.3073Y-2.5368
X1.3073Y-2.6368
X1.3073Y-2.7368
X1.3073Y-2.8368
X1.3073Y-2.9368
X1.3073Y-3.0368
X1.3073Y-3.1368
X1.5573Y-2.5368
X1.5823Y-3.4118
X3.0368Y-3.4602
X3.0368Y-3.7852
X4.1368Y-3.0352
X4.2618Y-2.1852
X5.0823Y-3.3618
X5.0823Y-3.5618
X5.2823Y-3.3618
X5.2823Y-3.5618
X5.3823Y-3.3618
X5.3823Y-3.5618
X5.4823Y-3.3618
X5.4823Y-3.5618
X6.0868Y-3.3618
X6.0868Y-3.5618
X6.2868Y-3.3618
X6.2868Y-3.5618
X6.3868Y-3.3618
X6.3868Y-3.5618
X6.4868Y-3.3618
X6.4868Y-3.5618
X6.8323Y-3.4868
X7.3573Y-3.4868
X7.6823Y-3.4868
X10.0573Y-3.3868
T9
X7.1303Y-2.1157
X7.1303Y-2.8047
T10
X9.0876Y-1.7618
X9.0876Y-1.8618
X10.4118Y-1.9602
X10.4118Y-2.0602
X10.4118Y-2.1602
X10.4118Y-2.2602
X10.4118Y-2.5602
X10.4118Y-2.6602
X10.4118Y-2.7602
X10.4118Y-3.0602
X10.4118Y-3.1602
X10.4118Y-3.2602
X10.4118Y-3.3602
X10.4118Y-3.4602
X10.4118Y-3.5602
T11
X6.4073Y-2.2618
X6.5073Y-2.2618
X6.6073Y-2.2618
X6.7073Y-2.2618
T12
X7.1303Y-1.9187
X7.1303Y-3.0018
T13
X1.1823Y-1.7368
X1.3823Y-1.7368
X8.4223Y-3.4518
X8.4223Y-3.7518
X8.6223Y-3.4518
X8.6223Y-3.7518
X8.8223Y-3.4518
X8.8223Y-3.7518
X9.0118Y-2.1852
X9.0118Y-2.4852
X9.0118Y-2.8852
X9.0118Y-3.1852
X9.0223Y-3.4518
X9.0223Y-3.7518
X9.2118Y-2.1852
X9.2118Y-2.4852
X9.2118Y-2.8852
X9.2118Y-3.1852
X9.2223Y-3.4518
X9.2223Y-3.7518
X9.4118Y-2.1852
X9.4118Y-2.4852
X9.4118Y-2.8852
X9.4118Y-3.1852
X9.4223Y-3.4518
X9.4223Y-3.7518
X9.6118Y-2.1852
X9.6118Y-2.4852
X9.6118Y-2.8852
X9.6118Y-3.1852
X9.8118Y-2.1852
X9.8118Y-2.4852
X9.8118Y-2.8852
X9.8118Y-3.1852
X10.0118Y-2.1852
X10.0118Y-2.4852
X10.0118Y-2.8852
X10.0118Y-3.1852
X10.2368Y-3.7852
X10.2618Y-1.7352
X10.4368Y-3.7852
X10.4618Y-1.7352
M30
