%TF.GenerationSoftware,KiCad,Pcbnew,9.0.7*%
%TF.CreationDate,2026-03-05T17:42:54+01:00*%
%TF.ProjectId,Datron 1281 Strom Option,44617472-6f6e-4203-9132-383120537472,1*%
%TF.SameCoordinates,Original*%
%TF.FileFunction,Copper,L1,Top*%
%TF.FilePolarity,Positive*%
%FSLAX46Y46*%
G04 Gerber Fmt 4.6, Leading zero omitted, Abs format (unit mm)*
G04 Created by KiCad (PCBNEW 9.0.7) date 2026-03-05 17:42:54*
%MOMM*%
%LPD*%
G01*
G04 APERTURE LIST*
G04 Aperture macros list*
%AMRoundRect*
0 Rectangle with rounded corners*
0 $1 Rounding radius*
0 $2 $3 $4 $5 $6 $7 $8 $9 X,Y pos of 4 corners*
0 Add a 4 corners polygon primitive as box body*
4,1,4,$2,$3,$4,$5,$6,$7,$8,$9,$2,$3,0*
0 Add four circle primitives for the rounded corners*
1,1,$1+$1,$2,$3*
1,1,$1+$1,$4,$5*
1,1,$1+$1,$6,$7*
1,1,$1+$1,$8,$9*
0 Add four rect primitives between the rounded corners*
20,1,$1+$1,$2,$3,$4,$5,0*
20,1,$1+$1,$4,$5,$6,$7,0*
20,1,$1+$1,$6,$7,$8,$9,0*
20,1,$1+$1,$8,$9,$2,$3,0*%
G04 Aperture macros list end*
%TA.AperFunction,SMDPad,CuDef*%
%ADD10RoundRect,0.250000X1.000000X0.900000X-1.000000X0.900000X-1.000000X-0.900000X1.000000X-0.900000X0*%
%TD*%
%TA.AperFunction,ComponentPad*%
%ADD11RoundRect,0.650000X-0.650000X-0.650000X0.650000X-0.650000X0.650000X0.650000X-0.650000X0.650000X0*%
%TD*%
%TA.AperFunction,ComponentPad*%
%ADD12C,2.600000*%
%TD*%
%TA.AperFunction,ComponentPad*%
%ADD13RoundRect,0.250000X0.600000X0.600000X-0.600000X0.600000X-0.600000X-0.600000X0.600000X-0.600000X0*%
%TD*%
%TA.AperFunction,ComponentPad*%
%ADD14C,1.700000*%
%TD*%
%TA.AperFunction,SMDPad,CuDef*%
%ADD15RoundRect,0.250000X0.475000X-0.250000X0.475000X0.250000X-0.475000X0.250000X-0.475000X-0.250000X0*%
%TD*%
%TA.AperFunction,SMDPad,CuDef*%
%ADD16RoundRect,0.250000X-0.262500X-0.450000X0.262500X-0.450000X0.262500X0.450000X-0.262500X0.450000X0*%
%TD*%
%TA.AperFunction,SMDPad,CuDef*%
%ADD17RoundRect,0.250000X0.450000X-0.262500X0.450000X0.262500X-0.450000X0.262500X-0.450000X-0.262500X0*%
%TD*%
%TA.AperFunction,SMDPad,CuDef*%
%ADD18RoundRect,0.250000X-0.250000X-0.475000X0.250000X-0.475000X0.250000X0.475000X-0.250000X0.475000X0*%
%TD*%
%TA.AperFunction,SMDPad,CuDef*%
%ADD19RoundRect,0.250000X0.262500X0.450000X-0.262500X0.450000X-0.262500X-0.450000X0.262500X-0.450000X0*%
%TD*%
%TA.AperFunction,ComponentPad*%
%ADD20O,1.200000X1.600000*%
%TD*%
%TA.AperFunction,ComponentPad*%
%ADD21C,1.200000*%
%TD*%
%TA.AperFunction,SMDPad,CuDef*%
%ADD22RoundRect,0.250000X1.400000X1.000000X-1.400000X1.000000X-1.400000X-1.000000X1.400000X-1.000000X0*%
%TD*%
%TA.AperFunction,SMDPad,CuDef*%
%ADD23RoundRect,0.150000X0.150000X-0.512500X0.150000X0.512500X-0.150000X0.512500X-0.150000X-0.512500X0*%
%TD*%
%TA.AperFunction,ComponentPad*%
%ADD24RoundRect,0.250000X-0.950000X-0.550000X0.950000X-0.550000X0.950000X0.550000X-0.950000X0.550000X0*%
%TD*%
%TA.AperFunction,ComponentPad*%
%ADD25O,2.400000X1.600000*%
%TD*%
%TA.AperFunction,ComponentPad*%
%ADD26C,2.000000*%
%TD*%
%TA.AperFunction,SMDPad,CuDef*%
%ADD27RoundRect,0.250000X-0.450000X0.262500X-0.450000X-0.262500X0.450000X-0.262500X0.450000X0.262500X0*%
%TD*%
%TA.AperFunction,SMDPad,CuDef*%
%ADD28RoundRect,0.075000X0.225000X-0.910000X0.225000X0.910000X-0.225000X0.910000X-0.225000X-0.910000X0*%
%TD*%
%TA.AperFunction,SMDPad,CuDef*%
%ADD29RoundRect,0.250000X-1.000000X-0.650000X1.000000X-0.650000X1.000000X0.650000X-1.000000X0.650000X0*%
%TD*%
%TA.AperFunction,SMDPad,CuDef*%
%ADD30RoundRect,0.250000X0.900000X-1.000000X0.900000X1.000000X-0.900000X1.000000X-0.900000X-1.000000X0*%
%TD*%
%TA.AperFunction,SMDPad,CuDef*%
%ADD31RoundRect,0.250000X-0.400000X-0.600000X0.400000X-0.600000X0.400000X0.600000X-0.400000X0.600000X0*%
%TD*%
%TA.AperFunction,ComponentPad*%
%ADD32R,1.830000X1.830000*%
%TD*%
%TA.AperFunction,ComponentPad*%
%ADD33C,1.515000*%
%TD*%
%TA.AperFunction,ComponentPad*%
%ADD34C,1.830000*%
%TD*%
%TA.AperFunction,SMDPad,CuDef*%
%ADD35RoundRect,0.150000X0.150000X-0.825000X0.150000X0.825000X-0.150000X0.825000X-0.150000X-0.825000X0*%
%TD*%
%TA.AperFunction,ComponentPad*%
%ADD36RoundRect,0.650000X0.650000X0.650000X-0.650000X0.650000X-0.650000X-0.650000X0.650000X-0.650000X0*%
%TD*%
%TA.AperFunction,ComponentPad*%
%ADD37C,1.365000*%
%TD*%
%TA.AperFunction,SMDPad,CuDef*%
%ADD38RoundRect,0.150000X0.150000X-0.587500X0.150000X0.587500X-0.150000X0.587500X-0.150000X-0.587500X0*%
%TD*%
%TA.AperFunction,ComponentPad*%
%ADD39R,1.650000X1.650000*%
%TD*%
%TA.AperFunction,ComponentPad*%
%ADD40C,1.650000*%
%TD*%
%TA.AperFunction,ComponentPad*%
%ADD41R,1.950000X1.950000*%
%TD*%
%TA.AperFunction,ComponentPad*%
%ADD42C,1.950000*%
%TD*%
%TA.AperFunction,ComponentPad*%
%ADD43R,1.300000X1.300000*%
%TD*%
%TA.AperFunction,ComponentPad*%
%ADD44C,1.300000*%
%TD*%
%TA.AperFunction,ComponentPad*%
%ADD45C,1.550000*%
%TD*%
%TA.AperFunction,ComponentPad*%
%ADD46R,1.680000X1.680000*%
%TD*%
%TA.AperFunction,ComponentPad*%
%ADD47C,1.680000*%
%TD*%
%TA.AperFunction,SMDPad,CuDef*%
%ADD48RoundRect,0.150000X-1.050000X-0.150000X1.050000X-0.150000X1.050000X0.150000X-1.050000X0.150000X0*%
%TD*%
%TA.AperFunction,SMDPad,CuDef*%
%ADD49RoundRect,0.250000X-0.500000X-1.100000X0.500000X-1.100000X0.500000X1.100000X-0.500000X1.100000X0*%
%TD*%
%TA.AperFunction,ViaPad*%
%ADD50C,0.762000*%
%TD*%
%TA.AperFunction,ViaPad*%
%ADD51C,1.270000*%
%TD*%
%TA.AperFunction,ViaPad*%
%ADD52C,0.600000*%
%TD*%
%TA.AperFunction,Conductor*%
%ADD53C,1.270000*%
%TD*%
%TA.AperFunction,Conductor*%
%ADD54C,0.508000*%
%TD*%
%TA.AperFunction,Conductor*%
%ADD55C,2.032000*%
%TD*%
%TA.AperFunction,Conductor*%
%ADD56C,0.304800*%
%TD*%
G04 APERTURE END LIST*
D10*
%TO.P,D2,1,K*%
%TO.N,GND_2*%
X39165000Y-51735000D03*
%TO.P,D2,2,A*%
%TO.N,-15V*%
X34865000Y-51735000D03*
%TD*%
D11*
%TO.P,JP3,1,A*%
%TO.N,Net-(JP3-A)*%
X260650000Y-44075000D03*
D12*
%TO.P,JP3,2,B*%
%TO.N,Net-(JP3-B)*%
X265730000Y-44075000D03*
%TD*%
D13*
%TO.P,J1,1,Pin_1*%
%TO.N,Net-(J1-Pin_1)*%
X33205000Y-79675000D03*
D14*
%TO.P,J1,2,Pin_2*%
%TO.N,Net-(J1-Pin_2)*%
X30665000Y-79675000D03*
%TO.P,J1,3,Pin_3*%
%TO.N,Net-(J1-Pin_3)*%
X33205000Y-77135000D03*
%TO.P,J1,4,Pin_4*%
%TO.N,Net-(J1-Pin_4)*%
X30665000Y-77135000D03*
%TO.P,J1,5,Pin_5*%
%TO.N,Net-(J1-Pin_5)*%
X33205000Y-74595000D03*
%TO.P,J1,6,Pin_6*%
%TO.N,Net-(J1-Pin_6)*%
X30665000Y-74595000D03*
%TO.P,J1,7,Pin_7*%
%TO.N,+5V*%
X33205000Y-72055000D03*
%TO.P,J1,8,Pin_8*%
%TO.N,GND_21*%
X30665000Y-72055000D03*
%TO.P,J1,9,Pin_9*%
%TO.N,unconnected-(J1-Pin_9-Pad9)*%
X33205000Y-69515000D03*
%TO.P,J1,10,Pin_10*%
%TO.N,unconnected-(J1-Pin_10-Pad10)*%
X30665000Y-69515000D03*
%TO.P,J1,11,Pin_11*%
%TO.N,unconnected-(J1-Pin_11-Pad11)*%
X33205000Y-66975000D03*
%TO.P,J1,12,Pin_12*%
%TO.N,unconnected-(J1-Pin_12-Pad12)*%
X30665000Y-66975000D03*
%TO.P,J1,13,Pin_13*%
%TO.N,+15V*%
X33205000Y-64435000D03*
%TO.P,J1,14,Pin_14*%
%TO.N,-15V*%
X30665000Y-64435000D03*
%TO.P,J1,15,Pin_15*%
%TO.N,35V*%
X33205000Y-61895000D03*
%TO.P,J1,16,Pin_16*%
%TO.N,Net-(J1-Pin_16)*%
X30665000Y-61895000D03*
%TD*%
D15*
%TO.P,C13,1*%
%TO.N,+15V*%
X110155000Y-86935000D03*
%TO.P,C13,2*%
%TO.N,GND_2*%
X110155000Y-85035000D03*
%TD*%
D16*
%TO.P,R13,1*%
%TO.N,Net-(U3-D5)*%
X78127500Y-75190000D03*
%TO.P,R13,2*%
%TO.N,Net-(U1-I5)*%
X79952500Y-75190000D03*
%TD*%
%TO.P,R16,1*%
%TO.N,Net-(U3-D8)*%
X63407500Y-84755000D03*
%TO.P,R16,2*%
%TO.N,/Control Logic/Fuse_Test*%
X65232500Y-84755000D03*
%TD*%
D17*
%TO.P,R30,1*%
%TO.N,Net-(Q6-B)*%
X99360000Y-63680000D03*
%TO.P,R30,2*%
%TO.N,Net-(D4-A)*%
X99360000Y-61855000D03*
%TD*%
D15*
%TO.P,C15,1*%
%TO.N,+5V*%
X112187000Y-86935000D03*
%TO.P,C15,2*%
%TO.N,GND_21*%
X112187000Y-85035000D03*
%TD*%
D16*
%TO.P,R42,1*%
%TO.N,GND_2*%
X94637500Y-42805000D03*
%TO.P,R42,2*%
%TO.N,Net-(Q13-G)*%
X96462500Y-42805000D03*
%TD*%
D18*
%TO.P,C5,1*%
%TO.N,Net-(U3-EN_H)*%
X45590000Y-75738000D03*
%TO.P,C5,2*%
%TO.N,GND_21*%
X47490000Y-75738000D03*
%TD*%
D17*
%TO.P,R29,1*%
%TO.N,Net-(Q4-B)*%
X95550000Y-63680000D03*
%TO.P,R29,2*%
%TO.N,Net-(D4-A)*%
X95550000Y-61855000D03*
%TD*%
D19*
%TO.P,R35,1*%
%TO.N,Net-(Q10-G)*%
X85987500Y-49790000D03*
%TO.P,R35,2*%
%TO.N,Net-(D4-A)*%
X84162500Y-49790000D03*
%TD*%
D20*
%TO.P,D8,1,K*%
%TO.N,+15V*%
X98725000Y-70745000D03*
D21*
%TO.P,D8,2,A*%
%TO.N,Net-(D8-A)*%
X98725000Y-73285000D03*
%TO.P,D8,3*%
%TO.N,unconnected-(D8-Pad3)*%
X99995000Y-72015000D03*
%TD*%
D17*
%TO.P,R28,1*%
%TO.N,Net-(Q2-B)*%
X91740000Y-63680000D03*
%TO.P,R28,2*%
%TO.N,Net-(D4-A)*%
X91740000Y-61855000D03*
%TD*%
D20*
%TO.P,D9,1,K*%
%TO.N,Net-(D8-A)*%
X98725000Y-77730000D03*
D21*
%TO.P,D9,2,A*%
%TO.N,-15V*%
X98725000Y-80270000D03*
%TO.P,D9,3*%
%TO.N,unconnected-(D9-Pad3)*%
X99995000Y-79000000D03*
%TD*%
D15*
%TO.P,C12,1*%
%TO.N,Net-(Q14-S)*%
X134285000Y-52645000D03*
%TO.P,C12,2*%
%TO.N,Net-(Q15-S)*%
X134285000Y-50745000D03*
%TD*%
D22*
%TO.P,D13,1,K*%
%TO.N,Net-(D10-K)*%
X219375000Y-78590000D03*
%TO.P,D13,2,A*%
%TO.N,Net-(D11-K)*%
X219375000Y-71790000D03*
%TD*%
D16*
%TO.P,R9,1*%
%TO.N,Net-(U3-D1)*%
X78127500Y-67570000D03*
%TO.P,R9,2*%
%TO.N,Net-(U1-I1)*%
X79952500Y-67570000D03*
%TD*%
%TO.P,R14,1*%
%TO.N,Net-(U3-D6)*%
X63407500Y-79675000D03*
%TO.P,R14,2*%
%TO.N,/Control Logic/100uA*%
X65232500Y-79675000D03*
%TD*%
D23*
%TO.P,Q10,1,G*%
%TO.N,Net-(Q10-G)*%
X87615000Y-49790000D03*
%TO.P,Q10,2,S*%
%TO.N,Net-(D4-A)*%
X89515000Y-49790000D03*
%TO.P,Q10,3,D*%
%TO.N,Net-(Q10-D)*%
X88565000Y-47515000D03*
%TD*%
D24*
%TO.P,U3,1,D1*%
%TO.N,Net-(U3-D1)*%
X53525000Y-66975000D03*
D25*
%TO.P,U3,2,UPD_F*%
%TO.N,Net-(U3-UPD_F)*%
X53525000Y-69515000D03*
%TO.P,U3,3,ERR_L*%
%TO.N,Net-(U3-ERR_L)*%
X53525000Y-72055000D03*
%TO.P,U3,4,DRET*%
%TO.N,Net-(U3-DRET)*%
X53525000Y-74595000D03*
%TO.P,U3,5,Vdd*%
%TO.N,+5V*%
X53525000Y-77135000D03*
%TO.P,U3,6,RST_L*%
%TO.N,Net-(U3-RST_L)*%
X53525000Y-79675000D03*
%TO.P,U3,7,DOUT*%
%TO.N,Net-(U3-DOUT)*%
X53525000Y-82215000D03*
%TO.P,U3,8,EN_H*%
%TO.N,Net-(U3-EN_H)*%
X53525000Y-84755000D03*
%TO.P,U3,9,SCK_F*%
%TO.N,Net-(U3-SCK_F)*%
X53525000Y-87295000D03*
%TO.P,U3,10,SND_H*%
%TO.N,Net-(U3-SND_H)*%
X61145000Y-87295000D03*
%TO.P,U3,11,D8*%
%TO.N,Net-(U3-D8)*%
X61145000Y-84755000D03*
%TO.P,U3,12,D7*%
%TO.N,Net-(U3-D7)*%
X61145000Y-82215000D03*
%TO.P,U3,13,D6*%
%TO.N,Net-(U3-D6)*%
X61145000Y-79675000D03*
%TO.P,U3,14,D5*%
%TO.N,Net-(U3-D5)*%
X61145000Y-77135000D03*
%TO.P,U3,15,D4*%
%TO.N,Net-(U3-D4)*%
X61145000Y-74595000D03*
%TO.P,U3,16,Vss*%
%TO.N,GND_21*%
X61145000Y-72055000D03*
%TO.P,U3,17,D3*%
%TO.N,Net-(U3-D3)*%
X61145000Y-69515000D03*
%TO.P,U3,18,D2*%
%TO.N,Net-(U3-D2)*%
X61145000Y-66975000D03*
%TD*%
D16*
%TO.P,R38,1*%
%TO.N,GND_2*%
X84162500Y-42805000D03*
%TO.P,R38,2*%
%TO.N,Net-(Q11-G)*%
X85987500Y-42805000D03*
%TD*%
D19*
%TO.P,R8,1*%
%TO.N,Net-(U3-SCK_F)*%
X51262500Y-87295000D03*
%TO.P,R8,2*%
%TO.N,+5V*%
X49437500Y-87295000D03*
%TD*%
D26*
%TO.P,TP103,1,1*%
%TO.N,Net-(R54-E2)*%
X186875000Y-88565000D03*
%TD*%
D18*
%TO.P,C2,1*%
%TO.N,Net-(U3-DRET)*%
X45590000Y-79802000D03*
%TO.P,C2,2*%
%TO.N,GND_21*%
X47490000Y-79802000D03*
%TD*%
D27*
%TO.P,R51,1*%
%TO.N,Net-(D15-A)*%
X127300000Y-52687500D03*
%TO.P,R51,2*%
%TO.N,Net-(Q15-G)*%
X127300000Y-54512500D03*
%TD*%
D26*
%TO.P,TP201,1,1*%
%TO.N,35V*%
X77135000Y-96145000D03*
%TD*%
D28*
%TO.P,M1,1*%
%TO.N,/Control Logic/Fuse_Test*%
X106345000Y-94175000D03*
%TO.P,M1,2*%
%TO.N,Net-(M1-Pad2)*%
X107615000Y-94175000D03*
%TO.P,M1,3*%
%TO.N,Net-(D6-A)*%
X108885000Y-94175000D03*
%TO.P,M1,4,V-*%
%TO.N,-15V*%
X110155000Y-94175000D03*
%TO.P,M1,5,GND*%
%TO.N,GND_21*%
X111425000Y-94175000D03*
%TO.P,M1,6*%
%TO.N,Net-(D6-A)*%
X112695000Y-94175000D03*
%TO.P,M1,7*%
%TO.N,Net-(D8-A)*%
X113965000Y-94175000D03*
%TO.P,M1,8*%
%TO.N,/Control Logic/ISB1*%
X115235000Y-94175000D03*
%TO.P,M1,9*%
%TO.N,/Control Logic/100uA*%
X115235000Y-89225000D03*
%TO.P,M1,10*%
%TO.N,Net-(D14-K)*%
X113965000Y-89225000D03*
%TO.P,M1,11*%
%TO.N,-15V*%
X112695000Y-89225000D03*
%TO.P,M1,12,VL*%
%TO.N,+5V*%
X111425000Y-89225000D03*
%TO.P,M1,13,V+*%
%TO.N,+15V*%
X110155000Y-89225000D03*
%TO.P,M1,14*%
%TO.N,-15V*%
X108885000Y-89225000D03*
%TO.P,M1,15*%
%TO.N,Net-(D15-K)*%
X107615000Y-89225000D03*
%TO.P,M1,16*%
%TO.N,/Control Logic/1mA*%
X106345000Y-89225000D03*
%TD*%
D19*
%TO.P,R48,1*%
%TO.N,GND_8*%
X142817500Y-79635000D03*
%TO.P,R48,2*%
%TO.N,Net-(D14-A)*%
X140992500Y-79635000D03*
%TD*%
D18*
%TO.P,C4,1*%
%TO.N,Net-(U3-ERR_L)*%
X45590000Y-77770000D03*
%TO.P,C4,2*%
%TO.N,GND_21*%
X47490000Y-77770000D03*
%TD*%
D23*
%TO.P,Q12,1,G*%
%TO.N,Net-(Q12-G)*%
X98090000Y-49790000D03*
%TO.P,Q12,2,S*%
%TO.N,Net-(D4-A)*%
X99990000Y-49790000D03*
%TO.P,Q12,3,D*%
%TO.N,Net-(Q12-D)*%
X99040000Y-47515000D03*
%TD*%
D29*
%TO.P,D5,1,K*%
%TO.N,Net-(D4-A)*%
X87835000Y-83445000D03*
%TO.P,D5,2,A*%
%TO.N,+15V*%
X91835000Y-83445000D03*
%TD*%
D30*
%TO.P,D1,1,K*%
%TO.N,+15V*%
X44635000Y-64435000D03*
%TO.P,D1,2,A*%
%TO.N,GND_2*%
X44635000Y-60135000D03*
%TD*%
D16*
%TO.P,R49,1*%
%TO.N,GND_8*%
X123212500Y-50425000D03*
%TO.P,R49,2*%
%TO.N,Net-(D15-A)*%
X125037500Y-50425000D03*
%TD*%
D15*
%TO.P,C9,1*%
%TO.N,+15V*%
X113330000Y-58995000D03*
%TO.P,C9,2*%
%TO.N,GND_2*%
X113330000Y-57095000D03*
%TD*%
D23*
%TO.P,Q11,1,G*%
%TO.N,Net-(Q11-G)*%
X87569000Y-44698500D03*
%TO.P,Q11,2,S*%
%TO.N,GND_2*%
X89469000Y-44698500D03*
%TO.P,Q11,3,D*%
%TO.N,Net-(Q10-D)*%
X88519000Y-42423500D03*
%TD*%
D18*
%TO.P,C14,1*%
%TO.N,-15V*%
X110040000Y-96820000D03*
%TO.P,C14,2*%
%TO.N,GND_2*%
X111940000Y-96820000D03*
%TD*%
D31*
%TO.P,D14,1,K*%
%TO.N,Net-(D14-K)*%
X137615000Y-82175000D03*
%TO.P,D14,2,A*%
%TO.N,Net-(D14-A)*%
X141115000Y-82175000D03*
%TD*%
D27*
%TO.P,R44,1*%
%TO.N,Net-(M1-Pad2)*%
X215565000Y-65387500D03*
%TO.P,R44,2*%
%TO.N,GND_2*%
X215565000Y-67212500D03*
%TD*%
D16*
%TO.P,R11,1*%
%TO.N,Net-(U3-D3)*%
X78127500Y-71380000D03*
%TO.P,R11,2*%
%TO.N,Net-(U1-I3)*%
X79952500Y-71380000D03*
%TD*%
D22*
%TO.P,D11,1,K*%
%TO.N,Net-(D11-K)*%
X212390000Y-78590000D03*
%TO.P,D11,2,A*%
%TO.N,Net-(D10-K)*%
X212390000Y-71790000D03*
%TD*%
D26*
%TO.P,TP205,1,1*%
%TO.N,Net-(D4-A)*%
X77135000Y-87890000D03*
%TD*%
D19*
%TO.P,R50,1*%
%TO.N,Net-(D14-A)*%
X139007500Y-79635000D03*
%TO.P,R50,2*%
%TO.N,Net-(Q14-G)*%
X137182500Y-79635000D03*
%TD*%
D17*
%TO.P,R23,1*%
%TO.N,Net-(U1-I3)*%
X83485000Y-65307500D03*
%TO.P,R23,2*%
%TO.N,GND_2*%
X83485000Y-63482500D03*
%TD*%
D26*
%TO.P,TP202,1,1*%
%TO.N,+15V*%
X39555000Y-64435000D03*
%TD*%
D11*
%TO.P,JP2,1,A*%
%TO.N,Net-(JP2-A)*%
X260015000Y-96145000D03*
D12*
%TO.P,JP2,2,B*%
%TO.N,Net-(JP2-B)*%
X265095000Y-96145000D03*
%TD*%
D17*
%TO.P,R19,1*%
%TO.N,Net-(U1-I2)*%
X81580000Y-65307500D03*
%TO.P,R19,2*%
%TO.N,GND_2*%
X81580000Y-63482500D03*
%TD*%
D16*
%TO.P,R1,1*%
%TO.N,Net-(J1-Pin_2)*%
X41817500Y-79675000D03*
%TO.P,R1,2*%
%TO.N,Net-(U3-DRET)*%
X43642500Y-79675000D03*
%TD*%
D32*
%TO.P,R54,1,I1*%
%TO.N,Net-(R54-I1)*%
X181110000Y-76245000D03*
D33*
%TO.P,R54,2,E1*%
%TO.N,Net-(R54-E1)*%
X181110000Y-71240000D03*
%TO.P,R54,3,E2*%
%TO.N,Net-(R54-E2)*%
X181110000Y-53740000D03*
D34*
%TO.P,R54,4,I2*%
%TO.N,Net-(D11-K)*%
X181110000Y-48735000D03*
%TD*%
D23*
%TO.P,Q9,1,G*%
%TO.N,Net-(Q9-G)*%
X77155000Y-44698500D03*
%TO.P,Q9,2,S*%
%TO.N,GND_2*%
X79055000Y-44698500D03*
%TO.P,Q9,3,D*%
%TO.N,Net-(Q8-D)*%
X78105000Y-42423500D03*
%TD*%
D35*
%TO.P,U2,1,VOS*%
%TO.N,Net-(C10-Pad1)*%
X112060000Y-66235000D03*
%TO.P,U2,2,-*%
%TO.N,GND_8*%
X113330000Y-66235000D03*
%TO.P,U2,3,+*%
%TO.N,Net-(D8-A)*%
X114600000Y-66235000D03*
%TO.P,U2,4,V-*%
%TO.N,-15V*%
X115870000Y-66235000D03*
%TO.P,U2,5,NC*%
%TO.N,unconnected-(U2-NC-Pad5)*%
X115870000Y-61285000D03*
%TO.P,U2,6*%
%TO.N,GND_8*%
X114600000Y-61285000D03*
%TO.P,U2,7,V+*%
%TO.N,+15V*%
X113330000Y-61285000D03*
%TO.P,U2,8,VOS*%
%TO.N,Net-(C10-Pad2)*%
X112060000Y-61285000D03*
%TD*%
D20*
%TO.P,D7,1,K*%
%TO.N,Net-(D6-A)*%
X93194724Y-94240000D03*
D21*
%TO.P,D7,2,A*%
%TO.N,-15V*%
X93194724Y-91700000D03*
%TO.P,D7,3*%
%TO.N,unconnected-(D7-Pad3)*%
X91924724Y-92970000D03*
%TD*%
D36*
%TO.P,JP1,1,A*%
%TO.N,GND_2*%
X35110000Y-44115000D03*
D12*
%TO.P,JP1,2,B*%
%TO.N,Net-(J1-Pin_16)*%
X30030000Y-44115000D03*
%TD*%
D26*
%TO.P,TP106,1,1*%
%TO.N,GND_8*%
X108250000Y-55505000D03*
%TD*%
D16*
%TO.P,R15,1*%
%TO.N,Net-(U3-D7)*%
X63407500Y-82215000D03*
%TO.P,R15,2*%
%TO.N,/Control Logic/1mA*%
X65232500Y-82215000D03*
%TD*%
D37*
%TO.P,R56,1,1*%
%TO.N,Net-(Q15-S)*%
X138095000Y-49790000D03*
%TO.P,R56,2,2*%
%TO.N,Net-(Q14-S)*%
X138095000Y-53600000D03*
%TD*%
D23*
%TO.P,Q13,1,G*%
%TO.N,Net-(Q13-G)*%
X98110000Y-44698500D03*
%TO.P,Q13,2,S*%
%TO.N,GND_2*%
X100010000Y-44698500D03*
%TO.P,Q13,3,D*%
%TO.N,Net-(Q12-D)*%
X99060000Y-42423500D03*
%TD*%
D38*
%TO.P,Q4,1,B*%
%TO.N,Net-(Q4-B)*%
X94280000Y-59950000D03*
%TO.P,Q4,2,E*%
%TO.N,Net-(Q4-E)*%
X96180000Y-59950000D03*
%TO.P,Q4,3,C*%
%TO.N,Net-(D4-A)*%
X95230000Y-58075000D03*
%TD*%
D26*
%TO.P,TP102,1,1*%
%TO.N,Net-(D10-A)*%
X173540000Y-88565000D03*
%TD*%
D38*
%TO.P,Q7,1,B*%
%TO.N,Net-(Q6-B)*%
X98090000Y-54870000D03*
%TO.P,Q7,2,E*%
%TO.N,Net-(Q6-E)*%
X99990000Y-54870000D03*
%TO.P,Q7,3,C*%
%TO.N,GND_2*%
X99040000Y-52995000D03*
%TD*%
D19*
%TO.P,R33,1*%
%TO.N,Net-(Q9-G)*%
X75507500Y-44710000D03*
%TO.P,R33,2*%
%TO.N,Net-(Q2-E)*%
X73682500Y-44710000D03*
%TD*%
%TO.P,R6,1*%
%TO.N,Net-(U3-DOUT)*%
X51262500Y-82215000D03*
%TO.P,R6,2*%
%TO.N,+5V*%
X49437500Y-82215000D03*
%TD*%
%TO.P,R60,1*%
%TO.N,Net-(U3-RST_L)*%
X51262500Y-79675000D03*
%TO.P,R60,2*%
%TO.N,+5V*%
X49437500Y-79675000D03*
%TD*%
D17*
%TO.P,R25,1*%
%TO.N,Net-(U1-I4)*%
X85390000Y-65307500D03*
%TO.P,R25,2*%
%TO.N,GND_2*%
X85390000Y-63482500D03*
%TD*%
D39*
%TO.P,J5,1,1*%
%TO.N,Net-(J5-Pad1)*%
X230825000Y-44750000D03*
D40*
%TO.P,J5,2,2*%
%TO.N,Net-(D10-A)*%
X230825000Y-47290000D03*
%TD*%
D19*
%TO.P,R59,1*%
%TO.N,Net-(U3-UPD_F)*%
X51262500Y-69515000D03*
%TO.P,R59,2*%
%TO.N,+5V*%
X49437500Y-69515000D03*
%TD*%
%TO.P,R45,1*%
%TO.N,Net-(J4-Pad2)*%
X119207500Y-95550000D03*
%TO.P,R45,2*%
%TO.N,Net-(D6-A)*%
X117382500Y-95550000D03*
%TD*%
D10*
%TO.P,D3,1,K*%
%TO.N,+5V*%
X34720000Y-88565000D03*
%TO.P,D3,2,A*%
%TO.N,GND_21*%
X30420000Y-88565000D03*
%TD*%
D38*
%TO.P,Q5,1,B*%
%TO.N,Net-(Q4-B)*%
X94280000Y-54870000D03*
%TO.P,Q5,2,E*%
%TO.N,Net-(Q4-E)*%
X96180000Y-54870000D03*
%TO.P,Q5,3,C*%
%TO.N,GND_2*%
X95230000Y-52995000D03*
%TD*%
D16*
%TO.P,R46,1*%
%TO.N,Net-(D8-A)*%
X127022500Y-77730000D03*
%TO.P,R46,2*%
%TO.N,Net-(Q14-S)*%
X128847500Y-77730000D03*
%TD*%
%TO.P,R36,1*%
%TO.N,Net-(Q4-E)*%
X84162500Y-47885000D03*
%TO.P,R36,2*%
%TO.N,Net-(Q10-G)*%
X85987500Y-47885000D03*
%TD*%
D39*
%TO.P,J2,1,1*%
%TO.N,Net-(JP2-B)*%
X264460000Y-77730000D03*
D40*
%TO.P,J2,2,2*%
%TO.N,unconnected-(J2-Pad2)*%
X264460000Y-80270000D03*
%TO.P,J2,3,3*%
%TO.N,unconnected-(J2-Pad3)*%
X264460000Y-82810000D03*
%TO.P,J2,4,4*%
%TO.N,Net-(J2-Pad4)*%
X264460000Y-85350000D03*
%TO.P,J2,5,5*%
%TO.N,unconnected-(J2-Pad5)*%
X264460000Y-87890000D03*
%TO.P,J2,6,6*%
%TO.N,Net-(JP2-A)*%
X264460000Y-90430000D03*
%TD*%
D19*
%TO.P,R41,1*%
%TO.N,Net-(Q13-G)*%
X96462500Y-44710000D03*
%TO.P,R41,2*%
%TO.N,Net-(Q6-E)*%
X94637500Y-44710000D03*
%TD*%
D15*
%TO.P,C11,1*%
%TO.N,-15V*%
X117775000Y-65980000D03*
%TO.P,C11,2*%
%TO.N,GND_2*%
X117775000Y-64080000D03*
%TD*%
D27*
%TO.P,R27,1*%
%TO.N,/Control Logic/ISB1*%
X91613000Y-74555000D03*
%TO.P,R27,2*%
%TO.N,+5V*%
X91613000Y-76380000D03*
%TD*%
D41*
%TO.P,RL5,1*%
%TO.N,Net-(Q12-D)*%
X213926000Y-95296000D03*
D42*
%TO.P,RL5,2*%
%TO.N,Net-(R55-E2)*%
X219006000Y-95296000D03*
%TO.P,RL5,3*%
%TO.N,Net-(RL2-Pad5)*%
X224086000Y-95296000D03*
%TO.P,RL5,4*%
X229166000Y-95296000D03*
%TO.P,RL5,5*%
%TO.N,Net-(R54-E2)*%
X234246000Y-95296000D03*
%TO.P,RL5,6*%
%TO.N,unconnected-(RL5-Pad6)*%
X239326000Y-95296000D03*
%TO.P,RL5,7*%
%TO.N,unconnected-(RL5-Pad7)*%
X239326000Y-87676000D03*
%TO.P,RL5,8*%
%TO.N,Net-(R54-I1)*%
X234246000Y-87676000D03*
%TO.P,RL5,9*%
%TO.N,Net-(D10-A)*%
X229166000Y-87676000D03*
%TO.P,RL5,10*%
X224086000Y-87676000D03*
%TO.P,RL5,11*%
%TO.N,Net-(R54-I1)*%
X219006000Y-87676000D03*
%TO.P,RL5,12*%
%TO.N,Net-(Q6-E)*%
X213926000Y-87676000D03*
%TD*%
D38*
%TO.P,Q2,1,B*%
%TO.N,Net-(Q2-B)*%
X90470000Y-59950000D03*
%TO.P,Q2,2,E*%
%TO.N,Net-(Q2-E)*%
X92370000Y-59950000D03*
%TO.P,Q2,3,C*%
%TO.N,Net-(D4-A)*%
X91420000Y-58075000D03*
%TD*%
D22*
%TO.P,D10,1,K*%
%TO.N,Net-(D10-K)*%
X212390000Y-55730000D03*
%TO.P,D10,2,A*%
%TO.N,Net-(D10-A)*%
X212390000Y-48930000D03*
%TD*%
D43*
%TO.P,Q16,1,D*%
%TO.N,Net-(D10-A)*%
X124125000Y-58405000D03*
D44*
%TO.P,Q16,2,S*%
%TO.N,Net-(Q15-S)*%
X125395000Y-57135000D03*
%TO.P,Q16,3,G*%
%TO.N,Net-(Q15-G)*%
X126665000Y-58405000D03*
%TD*%
D26*
%TO.P,TP204,1,1*%
%TO.N,+5V*%
X40190000Y-86660000D03*
%TD*%
D19*
%TO.P,R52,1*%
%TO.N,Net-(D14-K)*%
X131907500Y-82810000D03*
%TO.P,R52,2*%
%TO.N,+15V*%
X130082500Y-82810000D03*
%TD*%
D17*
%TO.P,R61,1*%
%TO.N,GND_21*%
X63685000Y-88842500D03*
%TO.P,R61,2*%
%TO.N,Net-(U3-SND_H)*%
X63685000Y-87017500D03*
%TD*%
D16*
%TO.P,R40,1*%
%TO.N,Net-(Q6-E)*%
X94637500Y-47885000D03*
%TO.P,R40,2*%
%TO.N,Net-(Q12-G)*%
X96462500Y-47885000D03*
%TD*%
D19*
%TO.P,R21,1*%
%TO.N,35V*%
X80587500Y-84080000D03*
%TO.P,R21,2*%
%TO.N,Net-(Q1-G)*%
X78762500Y-84080000D03*
%TD*%
D16*
%TO.P,R10,1*%
%TO.N,Net-(U3-D2)*%
X78127500Y-69475000D03*
%TO.P,R10,2*%
%TO.N,Net-(U1-I2)*%
X79952500Y-69475000D03*
%TD*%
%TO.P,R34,1*%
%TO.N,GND_2*%
X73682500Y-42805000D03*
%TO.P,R34,2*%
%TO.N,Net-(Q9-G)*%
X75507500Y-42805000D03*
%TD*%
D17*
%TO.P,R20,1*%
%TO.N,+5V*%
X67495000Y-88842500D03*
%TO.P,R20,2*%
%TO.N,/Control Logic/1mA*%
X67495000Y-87017500D03*
%TD*%
D22*
%TO.P,D12,1,K*%
%TO.N,Net-(D10-A)*%
X219375000Y-55730000D03*
%TO.P,D12,2,A*%
%TO.N,Net-(D10-K)*%
X219375000Y-48930000D03*
%TD*%
D27*
%TO.P,R43,1*%
%TO.N,+15V*%
X215565000Y-61577500D03*
%TO.P,R43,2*%
%TO.N,Net-(M1-Pad2)*%
X215565000Y-63402500D03*
%TD*%
D43*
%TO.P,Q14,1,D*%
%TO.N,Net-(D10-A)*%
X131745000Y-79635000D03*
D44*
%TO.P,Q14,2,S*%
%TO.N,Net-(Q14-S)*%
X133015000Y-78365000D03*
%TO.P,Q14,3,G*%
%TO.N,Net-(Q14-G)*%
X134285000Y-79635000D03*
%TD*%
D19*
%TO.P,R31,1*%
%TO.N,Net-(Q8-G)*%
X75507500Y-49790000D03*
%TO.P,R31,2*%
%TO.N,Net-(D4-A)*%
X73682500Y-49790000D03*
%TD*%
D16*
%TO.P,R32,1*%
%TO.N,Net-(Q2-E)*%
X73682500Y-47885000D03*
%TO.P,R32,2*%
%TO.N,Net-(Q8-G)*%
X75507500Y-47885000D03*
%TD*%
D45*
%TO.P,RL4,1*%
%TO.N,Net-(Q10-D)*%
X154605000Y-90470000D03*
%TO.P,RL4,3*%
%TO.N,unconnected-(RL4-Pad3)*%
X159685000Y-90470000D03*
%TO.P,RL4,4*%
%TO.N,Net-(D10-A)*%
X162225000Y-90470000D03*
%TO.P,RL4,5*%
%TO.N,Net-(R55-I1)*%
X164765000Y-90470000D03*
%TO.P,RL4,8*%
X164765000Y-85390000D03*
%TO.P,RL4,9*%
%TO.N,Net-(D10-A)*%
X162225000Y-85390000D03*
%TO.P,RL4,10*%
%TO.N,unconnected-(RL4-Pad10)*%
X159685000Y-85390000D03*
%TO.P,RL4,12*%
%TO.N,Net-(Q4-E)*%
X154605000Y-85390000D03*
%TD*%
D16*
%TO.P,R5,1*%
%TO.N,Net-(J1-Pin_1)*%
X41817500Y-81580000D03*
%TO.P,R5,2*%
%TO.N,Net-(U3-SCK_F)*%
X43642500Y-81580000D03*
%TD*%
D38*
%TO.P,Q3,1,B*%
%TO.N,Net-(Q2-B)*%
X90470000Y-54870000D03*
%TO.P,Q3,2,E*%
%TO.N,Net-(Q2-E)*%
X92370000Y-54870000D03*
%TO.P,Q3,3,C*%
%TO.N,GND_2*%
X91420000Y-52995000D03*
%TD*%
D18*
%TO.P,C3,1*%
%TO.N,Net-(U3-DOUT)*%
X45590000Y-73706000D03*
%TO.P,C3,2*%
%TO.N,GND_21*%
X47490000Y-73706000D03*
%TD*%
D26*
%TO.P,TP105,1,1*%
%TO.N,Net-(D8-A)*%
X105075000Y-77095000D03*
%TD*%
D19*
%TO.P,R39,1*%
%TO.N,Net-(Q12-G)*%
X96462500Y-49790000D03*
%TO.P,R39,2*%
%TO.N,Net-(D4-A)*%
X94637500Y-49790000D03*
%TD*%
D16*
%TO.P,R22,1*%
%TO.N,Net-(J1-Pin_5)*%
X74952500Y-84080000D03*
%TO.P,R22,2*%
%TO.N,Net-(Q1-G)*%
X76777500Y-84080000D03*
%TD*%
D15*
%TO.P,C10,1*%
%TO.N,Net-(C10-Pad1)*%
X110155000Y-64710000D03*
%TO.P,C10,2*%
%TO.N,Net-(C10-Pad2)*%
X110155000Y-62810000D03*
%TD*%
D26*
%TO.P,TP104,1,1*%
%TO.N,Net-(R55-E2)*%
X195130000Y-88565000D03*
%TD*%
D37*
%TO.P,R58,1,1*%
%TO.N,Net-(R55-E1)*%
X149525000Y-49790000D03*
%TO.P,R58,2,2*%
%TO.N,Net-(R57-Pad1)*%
X149525000Y-53600000D03*
%TD*%
D43*
%TO.P,Q15,1,D*%
%TO.N,Net-(D10-A)*%
X123490000Y-64755000D03*
D44*
%TO.P,Q15,2,S*%
%TO.N,Net-(Q15-S)*%
X124760000Y-63485000D03*
%TO.P,Q15,3,G*%
%TO.N,Net-(Q15-G)*%
X126030000Y-64755000D03*
%TD*%
D39*
%TO.P,J3,1,1*%
%TO.N,Net-(JP3-A)*%
X264460000Y-49790000D03*
D40*
%TO.P,J3,2,2*%
%TO.N,unconnected-(J3-Pad2)*%
X264460000Y-52330000D03*
%TO.P,J3,3,3*%
%TO.N,unconnected-(J3-Pad3)*%
X264460000Y-54870000D03*
%TO.P,J3,4,4*%
%TO.N,Net-(JP3-B)*%
X264460000Y-57410000D03*
%TD*%
D23*
%TO.P,Q8,1,G*%
%TO.N,Net-(Q8-G)*%
X77135000Y-49790000D03*
%TO.P,Q8,2,S*%
%TO.N,Net-(D4-A)*%
X79035000Y-49790000D03*
%TO.P,Q8,3,D*%
%TO.N,Net-(Q8-D)*%
X78085000Y-47515000D03*
%TD*%
D20*
%TO.P,D6,1,K*%
%TO.N,+15V*%
X86025000Y-91700000D03*
D21*
%TO.P,D6,2,A*%
%TO.N,Net-(D6-A)*%
X86025000Y-94240000D03*
%TO.P,D6,3*%
%TO.N,unconnected-(D6-Pad3)*%
X87295000Y-92970000D03*
%TD*%
D17*
%TO.P,R18,1*%
%TO.N,+5V*%
X65590000Y-88842500D03*
%TO.P,R18,2*%
%TO.N,/Control Logic/Fuse_Test*%
X65590000Y-87017500D03*
%TD*%
D18*
%TO.P,C1,1*%
%TO.N,+5V*%
X44320000Y-84120000D03*
%TO.P,C1,2*%
%TO.N,GND_21*%
X46220000Y-84120000D03*
%TD*%
D16*
%TO.P,R12,1*%
%TO.N,Net-(U3-D4)*%
X78127500Y-73285000D03*
%TO.P,R12,2*%
%TO.N,Net-(U1-I4)*%
X79952500Y-73285000D03*
%TD*%
D27*
%TO.P,R53,1*%
%TO.N,Net-(D15-K)*%
X121585000Y-54870000D03*
%TO.P,R53,2*%
%TO.N,+15V*%
X121585000Y-56695000D03*
%TD*%
D46*
%TO.P,R55,1,I1*%
%TO.N,Net-(R55-I1)*%
X162745000Y-57450000D03*
D47*
%TO.P,R55,2,E1*%
%TO.N,Net-(R55-E1)*%
X165285000Y-57450000D03*
%TO.P,R55,3,E2*%
%TO.N,Net-(R55-E2)*%
X167825000Y-57450000D03*
%TO.P,R55,4,I2*%
%TO.N,Net-(R54-E1)*%
X170365000Y-57450000D03*
%TD*%
D37*
%TO.P,R57,1,1*%
%TO.N,Net-(R57-Pad1)*%
X143810000Y-53600000D03*
%TO.P,R57,2,2*%
%TO.N,Net-(Q15-S)*%
X143810000Y-49790000D03*
%TD*%
D19*
%TO.P,R7,1*%
%TO.N,Net-(U3-EN_H)*%
X51262500Y-84755000D03*
%TO.P,R7,2*%
%TO.N,+5V*%
X49437500Y-84755000D03*
%TD*%
D41*
%TO.P,RL2,1*%
%TO.N,Net-(D4-A)*%
X228900000Y-80905000D03*
D42*
%TO.P,RL2,2*%
%TO.N,GND_8*%
X233980000Y-80905000D03*
%TO.P,RL2,3*%
%TO.N,Net-(R47-Pad2)*%
X239060000Y-80905000D03*
%TO.P,RL2,4*%
%TO.N,Net-(J2-Pad4)*%
X244140000Y-80905000D03*
%TO.P,RL2,5*%
%TO.N,Net-(RL2-Pad5)*%
X249220000Y-80905000D03*
%TO.P,RL2,6*%
%TO.N,unconnected-(RL2-Pad6)*%
X254300000Y-80905000D03*
%TO.P,RL2,7*%
%TO.N,unconnected-(RL2-Pad7)*%
X254300000Y-73285000D03*
%TO.P,RL2,8*%
%TO.N,Net-(RL2-Pad5)*%
X249220000Y-73285000D03*
%TO.P,RL2,9*%
%TO.N,Net-(J4-Pad1)*%
X244140000Y-73285000D03*
%TO.P,RL2,10*%
%TO.N,Net-(R47-Pad2)*%
X239060000Y-73285000D03*
%TO.P,RL2,11*%
%TO.N,GND_2*%
X233980000Y-73285000D03*
%TO.P,RL2,12*%
%TO.N,Net-(U1-O2)*%
X228900000Y-73285000D03*
%TD*%
D17*
%TO.P,R26,1*%
%TO.N,Net-(U1-I5)*%
X87295000Y-65307500D03*
%TO.P,R26,2*%
%TO.N,GND_2*%
X87295000Y-63482500D03*
%TD*%
D41*
%TO.P,RL1,1*%
%TO.N,Net-(D4-A)*%
X228900000Y-63125000D03*
D42*
%TO.P,RL1,2*%
%TO.N,Net-(M1-Pad2)*%
X233980000Y-63125000D03*
%TO.P,RL1,3*%
%TO.N,Net-(J5-Pad1)*%
X239060000Y-63125000D03*
%TO.P,RL1,4*%
%TO.N,Net-(JP2-A)*%
X244140000Y-63125000D03*
%TO.P,RL1,5*%
%TO.N,Net-(D11-K)*%
X249220000Y-63125000D03*
%TO.P,RL1,6*%
%TO.N,unconnected-(RL1-Pad6)*%
X254300000Y-63125000D03*
%TO.P,RL1,7*%
%TO.N,unconnected-(RL1-Pad7)*%
X254300000Y-55505000D03*
%TO.P,RL1,8*%
%TO.N,Net-(JP3-A)*%
X249220000Y-55505000D03*
%TO.P,RL1,9*%
%TO.N,Net-(RL1-Pad10)*%
X244140000Y-55505000D03*
%TO.P,RL1,10*%
X239060000Y-55505000D03*
%TO.P,RL1,11*%
%TO.N,Net-(J5-Pad1)*%
X233980000Y-55505000D03*
%TO.P,RL1,12*%
%TO.N,Net-(U1-O1)*%
X228900000Y-55505000D03*
%TD*%
D45*
%TO.P,RL3,1*%
%TO.N,Net-(Q8-D)*%
X129090000Y-90470000D03*
%TO.P,RL3,3*%
%TO.N,unconnected-(RL3-Pad3)*%
X134170000Y-90470000D03*
%TO.P,RL3,4*%
%TO.N,Net-(D10-A)*%
X136710000Y-90470000D03*
%TO.P,RL3,5*%
%TO.N,Net-(R57-Pad1)*%
X139250000Y-90470000D03*
%TO.P,RL3,8*%
X139250000Y-85390000D03*
%TO.P,RL3,9*%
%TO.N,Net-(D10-A)*%
X136710000Y-85390000D03*
%TO.P,RL3,10*%
%TO.N,unconnected-(RL3-Pad10)*%
X134170000Y-85390000D03*
%TO.P,RL3,12*%
%TO.N,Net-(Q2-E)*%
X129090000Y-85390000D03*
%TD*%
D23*
%TO.P,Q1,1,G*%
%TO.N,Net-(Q1-G)*%
X78725000Y-81910000D03*
%TO.P,Q1,2,S*%
%TO.N,35V*%
X80625000Y-81910000D03*
%TO.P,Q1,3,D*%
%TO.N,Net-(D4-K)*%
X79675000Y-79635000D03*
%TD*%
D48*
%TO.P,U1,1,I1*%
%TO.N,Net-(U1-I1)*%
X82596000Y-68205000D03*
%TO.P,U1,2,I2*%
%TO.N,Net-(U1-I2)*%
X82596000Y-69475000D03*
%TO.P,U1,3,I3*%
%TO.N,Net-(U1-I3)*%
X82596000Y-70745000D03*
%TO.P,U1,4,I4*%
%TO.N,Net-(U1-I4)*%
X82596000Y-72015000D03*
%TO.P,U1,5,I5*%
%TO.N,Net-(U1-I5)*%
X82596000Y-73285000D03*
%TO.P,U1,6,I6*%
%TO.N,Net-(U1-I1)*%
X82596000Y-74555000D03*
%TO.P,U1,7,I7*%
%TO.N,unconnected-(U1-I7-Pad7)*%
X82596000Y-75825000D03*
%TO.P,U1,8,GND*%
%TO.N,GND_2*%
X82596000Y-77095000D03*
%TO.P,U1,9,COM*%
%TO.N,Net-(D4-A)*%
X89096000Y-77095000D03*
%TO.P,U1,10,O7*%
%TO.N,unconnected-(U1-O7-Pad10)*%
X89096000Y-75825000D03*
%TO.P,U1,11,O6*%
%TO.N,/Control Logic/ISB1*%
X89096000Y-74555000D03*
%TO.P,U1,12,O5*%
%TO.N,Net-(Q6-B)*%
X89096000Y-73285000D03*
%TO.P,U1,13,O4*%
%TO.N,Net-(Q4-B)*%
X89096000Y-72015000D03*
%TO.P,U1,14,O3*%
%TO.N,Net-(Q2-B)*%
X89096000Y-70745000D03*
%TO.P,U1,15,O2*%
%TO.N,Net-(U1-O2)*%
X89096000Y-69475000D03*
%TO.P,U1,16,O1*%
%TO.N,Net-(U1-O1)*%
X89096000Y-68205000D03*
%TD*%
D26*
%TO.P,TP203,1,1*%
%TO.N,-15V*%
X30665000Y-51735000D03*
%TD*%
D17*
%TO.P,R17,1*%
%TO.N,Net-(U1-I1)*%
X79675000Y-65307500D03*
%TO.P,R17,2*%
%TO.N,GND_2*%
X79675000Y-63482500D03*
%TD*%
D18*
%TO.P,C6,1*%
%TO.N,Net-(U3-SCK_F)*%
X45590000Y-81834000D03*
%TO.P,C6,2*%
%TO.N,GND_21*%
X47490000Y-81834000D03*
%TD*%
D16*
%TO.P,R3,1*%
%TO.N,Net-(J1-Pin_3)*%
X41817500Y-77770000D03*
%TO.P,R3,2*%
%TO.N,Net-(U3-ERR_L)*%
X43642500Y-77770000D03*
%TD*%
D49*
%TO.P,D4,1,K*%
%TO.N,Net-(D4-K)*%
X83130000Y-79635000D03*
%TO.P,D4,2,A*%
%TO.N,Net-(D4-A)*%
X87930000Y-79635000D03*
%TD*%
D31*
%TO.P,D15,1,K*%
%TO.N,Net-(D15-K)*%
X121740000Y-52965000D03*
%TO.P,D15,2,A*%
%TO.N,Net-(D15-A)*%
X125240000Y-52965000D03*
%TD*%
D26*
%TO.P,TP101,1,1*%
%TO.N,Net-(J4-Pad2)*%
X255455000Y-86025000D03*
%TD*%
D19*
%TO.P,R37,1*%
%TO.N,Net-(Q11-G)*%
X85987500Y-44710000D03*
%TO.P,R37,2*%
%TO.N,Net-(Q4-E)*%
X84162500Y-44710000D03*
%TD*%
D17*
%TO.P,R24,1*%
%TO.N,+5V*%
X69400000Y-88842500D03*
%TO.P,R24,2*%
%TO.N,/Control Logic/100uA*%
X69400000Y-87017500D03*
%TD*%
D16*
%TO.P,R47,1*%
%TO.N,Net-(D10-K)*%
X220090000Y-83445000D03*
%TO.P,R47,2*%
%TO.N,Net-(R47-Pad2)*%
X221915000Y-83445000D03*
%TD*%
D39*
%TO.P,J4,1,1*%
%TO.N,Net-(J4-Pad1)*%
X264460000Y-65030000D03*
D40*
%TO.P,J4,2,2*%
%TO.N,Net-(J4-Pad2)*%
X264460000Y-67570000D03*
%TO.P,J4,3,3*%
%TO.N,unconnected-(J4-Pad3)*%
X264460000Y-70110000D03*
%TD*%
D38*
%TO.P,Q6,1,B*%
%TO.N,Net-(Q6-B)*%
X98095000Y-59950000D03*
%TO.P,Q6,2,E*%
%TO.N,Net-(Q6-E)*%
X99995000Y-59950000D03*
%TO.P,Q6,3,C*%
%TO.N,Net-(D4-A)*%
X99045000Y-58075000D03*
%TD*%
D16*
%TO.P,R4,1*%
%TO.N,Net-(J1-Pin_4)*%
X41817500Y-75865000D03*
%TO.P,R4,2*%
%TO.N,Net-(U3-EN_H)*%
X43642500Y-75865000D03*
%TD*%
%TO.P,R2,1*%
%TO.N,Net-(J1-Pin_6)*%
X41817500Y-73960000D03*
%TO.P,R2,2*%
%TO.N,Net-(U3-DOUT)*%
X43642500Y-73960000D03*
%TD*%
D50*
%TO.N,+5V*%
X112187000Y-86935000D03*
X56065000Y-74595000D03*
X89835000Y-84080000D03*
%TO.N,GND_21*%
X112187000Y-85035000D03*
D51*
X30420000Y-88565000D03*
D50*
X111425000Y-92535000D03*
%TO.N,+15V*%
X120315000Y-58680000D03*
X215565000Y-61577500D03*
X110155000Y-86935000D03*
X108455249Y-43480000D03*
X97455000Y-86620000D03*
X113330000Y-58995000D03*
X103690000Y-43480000D03*
X86861000Y-87054000D03*
X57081000Y-52878000D03*
X203500000Y-49790000D03*
%TO.N,-15V*%
X93338681Y-87890000D03*
X68765000Y-76500000D03*
X110040000Y-96820000D03*
X110155000Y-92535000D03*
X103805000Y-87890000D03*
X34865000Y-51735000D03*
X117775000Y-65980000D03*
X110177018Y-90791000D03*
%TO.N,Net-(D4-A)*%
X91740000Y-61855000D03*
X95550000Y-61855000D03*
X81580000Y-49790000D03*
X190722500Y-46692500D03*
X99360000Y-61855000D03*
X225090000Y-47250000D03*
D51*
X87041000Y-77095000D03*
D50*
%TO.N,Net-(D6-A)*%
X112695000Y-94240000D03*
X108885000Y-94175000D03*
D51*
%TO.N,Net-(D10-A)*%
X212390000Y-48930000D03*
X219375000Y-55730000D03*
%TO.N,Net-(D11-K)*%
X212390000Y-78590000D03*
X219375000Y-71790000D03*
D50*
%TO.N,Net-(D15-K)*%
X121585000Y-79000000D03*
X121585000Y-54870000D03*
D51*
%TO.N,35V*%
X80625000Y-86620000D03*
D50*
%TO.N,Net-(J1-Pin_5)*%
X39555000Y-74595000D03*
X73960000Y-87930000D03*
%TO.N,Net-(J4-Pad2)*%
X172905000Y-98725000D03*
D51*
X120835000Y-95550000D03*
D50*
X239580000Y-98725000D03*
%TO.N,Net-(J4-Pad1)*%
X268905000Y-73920000D03*
X244025000Y-77770000D03*
X244140000Y-59950000D03*
%TO.N,unconnected-(J4-Pad3)*%
X268270000Y-60585000D03*
%TO.N,Net-(M1-Pad2)*%
X107615000Y-96145000D03*
D52*
X201595000Y-78365000D03*
D50*
X105093911Y-96989741D03*
D52*
X198420000Y-81540000D03*
X210485000Y-64395000D03*
X215565000Y-64395000D03*
D50*
%TO.N,/Control Logic/Fuse_Test*%
X65590000Y-87017500D03*
D51*
X65590000Y-91105000D03*
D50*
%TO.N,/Control Logic/ISB1*%
X94915000Y-94480000D03*
X94915000Y-85985000D03*
X113965000Y-97415000D03*
X112095045Y-98126000D03*
%TO.N,/Control Logic/100uA*%
X69400000Y-87017500D03*
X69400000Y-92375000D03*
X69400000Y-98725000D03*
X115235000Y-89225000D03*
%TO.N,/Control Logic/1mA*%
X106345000Y-89225000D03*
X103805000Y-89160000D03*
X67495000Y-90270000D03*
X67495000Y-87017500D03*
%TO.N,Net-(U1-I1)*%
X82596000Y-74555000D03*
X82596000Y-68205000D03*
%TO.N,Net-(U3-DRET)*%
X45590000Y-79802000D03*
%TO.N,Net-(U1-O1)*%
X90089000Y-66808000D03*
%TO.N,Net-(U1-O2)*%
X91867000Y-67158033D03*
%TO.N,Net-(Q2-E)*%
X73682500Y-47885000D03*
X92370000Y-54870000D03*
%TO.N,Net-(Q4-E)*%
X84162500Y-47885000D03*
X101175419Y-55328419D03*
X154605000Y-46455000D03*
X96180000Y-54870000D03*
%TO.N,Net-(Q6-E)*%
X196276744Y-57171744D03*
X94637500Y-47885000D03*
X99990000Y-54870000D03*
%TO.N,Net-(Q8-D)*%
X78105000Y-45980000D03*
%TO.N,Net-(Q10-D)*%
X88646000Y-45980000D03*
X103805000Y-54235000D03*
X153335000Y-46455000D03*
%TO.N,Net-(Q12-D)*%
X195245000Y-55505000D03*
%TO.N,Net-(U3-DOUT)*%
X50350000Y-71420000D03*
X45590000Y-73706000D03*
%TO.N,Net-(U3-ERR_L)*%
X45590000Y-77770000D03*
%TO.N,Net-(U3-EN_H)*%
X45590000Y-75738000D03*
%TO.N,Net-(U3-SCK_F)*%
X45590000Y-81834000D03*
%TO.N,GND_2*%
X122855000Y-72015000D03*
X103690000Y-41829000D03*
D51*
X202230000Y-46615000D03*
D50*
X209215000Y-68840000D03*
X125395000Y-84080000D03*
X117775000Y-64080000D03*
D51*
X215565000Y-68840000D03*
D50*
X117502065Y-60312065D03*
X111940000Y-96820000D03*
X117140000Y-84080000D03*
%TO.N,GND_8*%
X225725000Y-82610000D03*
X142425000Y-61895000D03*
X142817500Y-79635000D03*
D51*
X113965000Y-63760000D03*
D52*
X225725000Y-63760000D03*
%TD*%
D53*
%TO.N,+5V*%
X40190000Y-86660000D02*
X38285000Y-88565000D01*
D54*
X111425000Y-87697000D02*
X111425000Y-89225000D01*
X90130000Y-83785000D02*
X90130000Y-82496052D01*
X49437500Y-82215000D02*
X49437500Y-79675000D01*
X44320000Y-84120000D02*
X41780000Y-86660000D01*
X49437500Y-75587500D02*
X49437500Y-69515000D01*
X49437500Y-87295000D02*
X51952500Y-89810000D01*
X48802500Y-86660000D02*
X49437500Y-87295000D01*
X64622500Y-89810000D02*
X65590000Y-88842500D01*
X69400000Y-88842500D02*
X67495000Y-88842500D01*
X112187000Y-86935000D02*
X111425000Y-87697000D01*
X50985000Y-77135000D02*
X49437500Y-75587500D01*
X40190000Y-86660000D02*
X48802500Y-86660000D01*
X49437500Y-84755000D02*
X49437500Y-82215000D01*
X91613000Y-81013052D02*
X91613000Y-76380000D01*
X53525000Y-77135000D02*
X50985000Y-77135000D01*
X90130000Y-82496052D02*
X91613000Y-81013052D01*
X51952500Y-89810000D02*
X64622500Y-89810000D01*
X65590000Y-88842500D02*
X67495000Y-88842500D01*
X49437500Y-87295000D02*
X49437500Y-84755000D01*
X56065000Y-74595000D02*
X53525000Y-77135000D01*
D53*
X38285000Y-88565000D02*
X34720000Y-88565000D01*
D54*
X41780000Y-86660000D02*
X40190000Y-86660000D01*
X49437500Y-79675000D02*
X49437500Y-75587500D01*
X89835000Y-84080000D02*
X90130000Y-83785000D01*
%TO.N,GND_21*%
X59490000Y-73710000D02*
X61145000Y-72055000D01*
X63685000Y-88842500D02*
X60517662Y-88842500D01*
X44868948Y-82940000D02*
X36045000Y-82940000D01*
X47490000Y-77770000D02*
X47490000Y-79802000D01*
X60517662Y-88842500D02*
X59490000Y-87814838D01*
X47490000Y-73706000D02*
X47490000Y-69746052D01*
X57350000Y-68260000D02*
X61145000Y-72055000D01*
X111425000Y-94175000D02*
X111425000Y-92535000D01*
X47490000Y-81834000D02*
X47490000Y-82850000D01*
X47490000Y-69746052D02*
X48976052Y-68260000D01*
X59490000Y-87814838D02*
X59490000Y-73710000D01*
X47490000Y-79802000D02*
X47490000Y-81834000D01*
X48976052Y-68260000D02*
X57350000Y-68260000D01*
X47490000Y-75738000D02*
X47490000Y-77770000D01*
X46220000Y-84120000D02*
X46048948Y-84120000D01*
X47490000Y-73706000D02*
X47490000Y-75738000D01*
X46048948Y-84120000D02*
X44868948Y-82940000D01*
X36045000Y-82940000D02*
X30420000Y-88565000D01*
X47490000Y-82850000D02*
X46220000Y-84120000D01*
%TO.N,+15V*%
X130082500Y-82810000D02*
X109887678Y-82810000D01*
X97455000Y-72015000D02*
X98725000Y-70745000D01*
X91835000Y-83445000D02*
X91835000Y-86959000D01*
D53*
X44635000Y-64435000D02*
X39555000Y-64435000D01*
D54*
X110456320Y-43038325D02*
X110945646Y-42548999D01*
X110456313Y-43038325D02*
X110456320Y-43038325D01*
X110041003Y-43453640D02*
X110041003Y-43453639D01*
X197571000Y-43861000D02*
X203500000Y-49790000D01*
X110945646Y-42549000D02*
X112120355Y-42548999D01*
X57081000Y-52878000D02*
X56192000Y-52878000D01*
X154175034Y-42964325D02*
X155071709Y-43861000D01*
X110041003Y-43453641D02*
X110041003Y-43453640D01*
X121585000Y-57410000D02*
X120315000Y-58680000D01*
X95116000Y-87054000D02*
X91740000Y-87054000D01*
X110155000Y-86935000D02*
X109200000Y-86935000D01*
X110945646Y-42548999D02*
X110945645Y-42548999D01*
X108455249Y-43480000D02*
X103690000Y-43480000D01*
X110945645Y-42548999D02*
X110945646Y-42549000D01*
X110115000Y-43379644D02*
X110169816Y-43324827D01*
X109200000Y-86935000D02*
X108324000Y-86059000D01*
X110169816Y-43324827D02*
X110263337Y-43231307D01*
X108324000Y-86059000D02*
X108324000Y-84373678D01*
X190790999Y-43861000D02*
X197571000Y-43861000D01*
X97455000Y-86620000D02*
X97455000Y-72015000D01*
X153759711Y-42548999D02*
X154175033Y-42964322D01*
X121585000Y-56695000D02*
X121585000Y-57410000D01*
X108455249Y-43480000D02*
X110014643Y-43480000D01*
X108324000Y-84373678D02*
X109887678Y-82810000D01*
X95550000Y-86620000D02*
X95116000Y-87054000D01*
X110263337Y-43231307D02*
X110456313Y-43038325D01*
D53*
X39555000Y-64435000D02*
X33205000Y-64435000D01*
D54*
X113330000Y-61285000D02*
X113330000Y-58995000D01*
X155071709Y-43861000D02*
X190790999Y-43861000D01*
X154175033Y-42964322D02*
X154175034Y-42964325D01*
X97455000Y-86620000D02*
X95550000Y-86620000D01*
X153759710Y-42548999D02*
X153759711Y-42548999D01*
X153172356Y-42548999D02*
X153759711Y-42549000D01*
X56192000Y-52878000D02*
X44635000Y-64435000D01*
X112120355Y-42548999D02*
X112120356Y-42549000D01*
X110014643Y-43480000D02*
X110041003Y-43453641D01*
X110155000Y-86935000D02*
X110155000Y-89225000D01*
X110014643Y-43480000D02*
X110014644Y-43480000D01*
X86861000Y-87054000D02*
X91740000Y-87054000D01*
X110041003Y-43453640D02*
X110115000Y-43379644D01*
X112120356Y-42549000D02*
X153172356Y-42548999D01*
X110475000Y-58995000D02*
X113330000Y-58995000D01*
X98725000Y-70745000D02*
X110475000Y-58995000D01*
X91835000Y-86959000D02*
X91740000Y-87054000D01*
X153759711Y-42549000D02*
X153759710Y-42548999D01*
D53*
%TO.N,-15V*%
X34865000Y-51735000D02*
X30665000Y-51735000D01*
D54*
X115870000Y-66235000D02*
X117520000Y-66235000D01*
X98725000Y-85985000D02*
X98725000Y-84627283D01*
X70109000Y-77844000D02*
X68765000Y-76500000D01*
X83485000Y-87890000D02*
X93338681Y-87890000D01*
X82030000Y-89345000D02*
X74192717Y-89345000D01*
X74192717Y-89345000D02*
X70109000Y-85261283D01*
X111745612Y-90791000D02*
X112695000Y-89841612D01*
X110155000Y-94175000D02*
X110155000Y-96705000D01*
X103805000Y-87890000D02*
X98725000Y-87890000D01*
X110155000Y-94175000D02*
X110155000Y-92535000D01*
X82030000Y-89345000D02*
X83485000Y-87890000D01*
X93338681Y-87890000D02*
X98725000Y-87890000D01*
X108885000Y-90209999D02*
X109466001Y-90791000D01*
X70109000Y-85261283D02*
X70109000Y-77844000D01*
X110155000Y-96705000D02*
X110040000Y-96820000D01*
X98725000Y-87890000D02*
X98725000Y-85985000D01*
X109466001Y-90791000D02*
X111745612Y-90791000D01*
X117520000Y-66235000D02*
X117775000Y-65980000D01*
X112695000Y-89841612D02*
X112695000Y-89225000D01*
X98725000Y-84627283D02*
X98725000Y-80270000D01*
X108885000Y-89225000D02*
X108885000Y-90209999D01*
%TO.N,Net-(D4-A)*%
X98720000Y-51060000D02*
X99990000Y-49790000D01*
X85390000Y-83445000D02*
X87390000Y-83445000D01*
X74837500Y-50945000D02*
X77880000Y-50945000D01*
X95907500Y-51060000D02*
X98720000Y-51060000D01*
X226995000Y-49155000D02*
X226995000Y-61220000D01*
X73682500Y-49790000D02*
X74837500Y-50945000D01*
X225090000Y-47250000D02*
X226995000Y-49155000D01*
X190722500Y-46692500D02*
X190125000Y-47290000D01*
X101265000Y-58045000D02*
X101265000Y-61220000D01*
X89515000Y-49790000D02*
X94637500Y-49790000D01*
X112020000Y-47290000D02*
X101265000Y-58045000D01*
X95230000Y-61535000D02*
X95550000Y-61855000D01*
X79035000Y-49790000D02*
X81580000Y-49790000D01*
X91420000Y-58075000D02*
X91420000Y-61535000D01*
D53*
X87041000Y-77095000D02*
X87041000Y-78746000D01*
D54*
X190125000Y-47290000D02*
X112020000Y-47290000D01*
D53*
X87930000Y-79635000D02*
X87930000Y-82905000D01*
D54*
X91420000Y-61535000D02*
X91740000Y-61855000D01*
D53*
X87041000Y-78746000D02*
X87930000Y-79635000D01*
D54*
X95230000Y-58075000D02*
X95230000Y-61535000D01*
X80945000Y-87890000D02*
X85390000Y-83445000D01*
X88360000Y-50945000D02*
X89515000Y-49790000D01*
X101265000Y-61220000D02*
X100630000Y-61855000D01*
X77880000Y-50945000D02*
X79035000Y-49790000D01*
X77135000Y-87890000D02*
X80945000Y-87890000D01*
X87390000Y-83445000D02*
X87930000Y-82905000D01*
X81580000Y-49790000D02*
X84162500Y-49790000D01*
X226995000Y-61220000D02*
X228900000Y-63125000D01*
X100630000Y-61855000D02*
X99360000Y-61855000D01*
X99045000Y-61540000D02*
X99360000Y-61855000D01*
X94637500Y-49790000D02*
X95907500Y-51060000D01*
X99045000Y-58075000D02*
X99045000Y-61540000D01*
X87041000Y-77095000D02*
X87865000Y-77095000D01*
X85317500Y-50945000D02*
X88360000Y-50945000D01*
X84162500Y-49790000D02*
X85317500Y-50945000D01*
%TO.N,Net-(D6-A)*%
X107974000Y-96981000D02*
X108885000Y-96070000D01*
X108885000Y-96070000D02*
X108885000Y-94175000D01*
X113129000Y-97761283D02*
X113618717Y-98251000D01*
X89200000Y-94240000D02*
X93194724Y-94240000D01*
X114681500Y-98251000D02*
X117382500Y-95550000D01*
X113129000Y-94609000D02*
X113129000Y-97761283D01*
X93194724Y-94240000D02*
X93789724Y-93645000D01*
X93789724Y-93645000D02*
X104812322Y-93645000D01*
X105590000Y-94422678D02*
X105590000Y-95306612D01*
X112695000Y-94175000D02*
X113129000Y-94609000D01*
X89200000Y-94240000D02*
X86025000Y-94240000D01*
X112695000Y-94240000D02*
X112695000Y-94175000D01*
X113618717Y-98251000D02*
X114681500Y-98251000D01*
X104812322Y-93645000D02*
X105590000Y-94422678D01*
X105902718Y-95615000D02*
X107268717Y-96981000D01*
X107268717Y-96981000D02*
X107974000Y-96981000D01*
X105590000Y-95306612D02*
X105898388Y-95615000D01*
X105898388Y-95615000D02*
X105902718Y-95615000D01*
D55*
%TO.N,Net-(D10-A)*%
X224086000Y-87676000D02*
X229166000Y-87676000D01*
D54*
%TO.N,Net-(D10-K)*%
X220010000Y-83445000D02*
X219375000Y-82810000D01*
D55*
X212575000Y-71790000D02*
X219375000Y-78590000D01*
X212390000Y-55730000D02*
X212390000Y-71790000D01*
X212390000Y-71790000D02*
X212575000Y-71790000D01*
D54*
X219375000Y-82810000D02*
X219375000Y-78590000D01*
X220090000Y-83445000D02*
X220010000Y-83445000D01*
D55*
X219190000Y-48930000D02*
X212390000Y-55730000D01*
X219375000Y-48930000D02*
X219190000Y-48930000D01*
%TO.N,Net-(D11-K)*%
X249220000Y-63125000D02*
X249220000Y-65030000D01*
X246045000Y-68205000D02*
X222960000Y-68205000D01*
X222960000Y-68205000D02*
X219375000Y-71790000D01*
X249220000Y-65030000D02*
X246045000Y-68205000D01*
D54*
%TO.N,Net-(D14-K)*%
X135832500Y-82175000D02*
X135197500Y-82810000D01*
X131907500Y-86100000D02*
X131907500Y-82810000D01*
X114910001Y-87295000D02*
X113965000Y-88240001D01*
X131907500Y-82810000D02*
X135197500Y-82810000D01*
X130712500Y-87295000D02*
X114910001Y-87295000D01*
X130712500Y-87295000D02*
X131907500Y-86100000D01*
X113965000Y-88240001D02*
X113965000Y-89225000D01*
X137615000Y-82175000D02*
X135832500Y-82175000D01*
%TO.N,Net-(D15-K)*%
X119045000Y-81540000D02*
X110155000Y-81540000D01*
X121585000Y-54870000D02*
X121585000Y-53120000D01*
X110155000Y-81540000D02*
X107615000Y-84080000D01*
X121585000Y-79000000D02*
X119045000Y-81540000D01*
X121585000Y-53120000D02*
X121740000Y-52965000D01*
X107615000Y-84080000D02*
X107615000Y-89225000D01*
D53*
%TO.N,Net-(J1-Pin_16)*%
X28760000Y-61895000D02*
X27136000Y-60271000D01*
X27136000Y-60271000D02*
X27136000Y-47009000D01*
X27136000Y-47009000D02*
X30030000Y-44115000D01*
X30665000Y-61895000D02*
X28760000Y-61895000D01*
D56*
%TO.N,Net-(J1-Pin_1)*%
X39912500Y-79675000D02*
X41817500Y-81580000D01*
X33205000Y-79675000D02*
X39912500Y-79675000D01*
%TO.N,Net-(J1-Pin_3)*%
X33205000Y-77135000D02*
X41182500Y-77135000D01*
X41182500Y-77135000D02*
X41817500Y-77770000D01*
D53*
%TO.N,35V*%
X80625000Y-81910000D02*
X80625000Y-86620000D01*
D54*
X80625000Y-84117500D02*
X80587500Y-84080000D01*
X80625000Y-86620000D02*
X80625000Y-84117500D01*
D56*
%TO.N,Net-(J1-Pin_2)*%
X30665000Y-79675000D02*
X31868400Y-78471600D01*
X31868400Y-78471600D02*
X40614100Y-78471600D01*
X40614100Y-78471600D02*
X41817500Y-79675000D01*
%TO.N,Net-(J1-Pin_6)*%
X41249100Y-73391600D02*
X41817500Y-73960000D01*
X30665000Y-74595000D02*
X31868400Y-73391600D01*
X31868400Y-73391600D02*
X41249100Y-73391600D01*
%TO.N,Net-(J1-Pin_4)*%
X31935000Y-75865000D02*
X41817500Y-75865000D01*
X30665000Y-77135000D02*
X31935000Y-75865000D01*
D54*
%TO.N,Net-(J1-Pin_5)*%
X33205000Y-74595000D02*
X39555000Y-74595000D01*
X73960000Y-87930000D02*
X73960000Y-85072500D01*
X73960000Y-85072500D02*
X74952500Y-84080000D01*
%TO.N,Net-(J2-Pad4)*%
X245255000Y-80905000D02*
X244140000Y-80905000D01*
X264460000Y-85350000D02*
X260015000Y-89795000D01*
X260015000Y-89795000D02*
X254145000Y-89795000D01*
X254145000Y-89795000D02*
X245255000Y-80905000D01*
D55*
%TO.N,Net-(JP2-B)*%
X265730000Y-77730000D02*
X267000000Y-79000000D01*
X264460000Y-77730000D02*
X265730000Y-77730000D01*
X267000000Y-79000000D02*
X267000000Y-94240000D01*
X267000000Y-94240000D02*
X265095000Y-96145000D01*
%TO.N,Net-(JP3-B)*%
X268905000Y-47250000D02*
X268905000Y-54870000D01*
X266365000Y-57410000D02*
X264460000Y-57410000D01*
X268905000Y-54870000D02*
X266365000Y-57410000D01*
X265730000Y-44075000D02*
X268905000Y-47250000D01*
%TO.N,Net-(JP3-A)*%
X254927776Y-50325600D02*
X254125600Y-51127776D01*
X260650000Y-49790000D02*
X264460000Y-49790000D01*
X254959400Y-50325600D02*
X254927776Y-50325600D01*
X260650000Y-44075000D02*
X260650000Y-49790000D01*
X249755600Y-55505000D02*
X249220000Y-55505000D01*
X254125600Y-51127776D02*
X250557776Y-54695600D01*
X249755600Y-55497776D02*
X249755600Y-55505000D01*
X260650000Y-49790000D02*
X255495000Y-49790000D01*
X255495000Y-49790000D02*
X254959400Y-50325600D01*
X250557776Y-54695600D02*
X249755600Y-55497776D01*
D54*
%TO.N,Net-(J4-Pad2)*%
X239580000Y-98725000D02*
X172905000Y-98725000D01*
X256205000Y-86620000D02*
X255455000Y-86620000D01*
X256840000Y-85985000D02*
X256205000Y-86620000D01*
X256840000Y-75190000D02*
X256840000Y-85985000D01*
X264460000Y-67570000D02*
X256840000Y-75190000D01*
X120835000Y-95550000D02*
X119207500Y-95550000D01*
D56*
%TO.N,Net-(J4-Pad1)*%
X268905000Y-73920000D02*
X268905000Y-98685000D01*
X244140000Y-59950000D02*
X244140000Y-61220000D01*
X268905000Y-98685000D02*
X258110000Y-98685000D01*
X246045000Y-61220000D02*
X244140000Y-61220000D01*
X258110000Y-75825000D02*
X268905000Y-75825000D01*
X242489000Y-82850000D02*
X242489000Y-79040000D01*
X258110000Y-98685000D02*
X258110000Y-90557000D01*
X242235000Y-65030000D02*
X246045000Y-65030000D01*
D54*
X250490000Y-66935000D02*
X244140000Y-73285000D01*
D56*
X245791000Y-80171000D02*
X254653000Y-89033000D01*
X245791000Y-79040000D02*
X245791000Y-80171000D01*
D54*
X262555000Y-65030000D02*
X260650000Y-66935000D01*
D56*
X244025000Y-79040000D02*
X245791000Y-79040000D01*
X244140000Y-61220000D02*
X242235000Y-61220000D01*
X254653000Y-89033000D02*
X258110000Y-89033000D01*
X246045000Y-65030000D02*
X246045000Y-61220000D01*
X253637000Y-90557000D02*
X245930000Y-82850000D01*
X242235000Y-61220000D02*
X242235000Y-65030000D01*
X245930000Y-82850000D02*
X242489000Y-82850000D01*
X244025000Y-79040000D02*
X244025000Y-77770000D01*
X258110000Y-90557000D02*
X253637000Y-90557000D01*
D54*
X260650000Y-66935000D02*
X250490000Y-66935000D01*
X264460000Y-65030000D02*
X262555000Y-65030000D01*
D56*
X242489000Y-79040000D02*
X244025000Y-79040000D01*
X258110000Y-89033000D02*
X258110000Y-75825000D01*
%TO.N,unconnected-(J4-Pad3)*%
X258110000Y-47885000D02*
X254225000Y-47885000D01*
X256130000Y-51695000D02*
X260650000Y-51695000D01*
X251125000Y-56700000D02*
X256130000Y-51695000D01*
X251125000Y-57410000D02*
X251125000Y-56700000D01*
X264460000Y-70110000D02*
X267000000Y-67570000D01*
X270810000Y-59315000D02*
X270810000Y-41535000D01*
X267000000Y-67570000D02*
X267000000Y-60585000D01*
X254225000Y-47885000D02*
X247315000Y-54795000D01*
X258110000Y-41535000D02*
X258110000Y-47885000D01*
X267000000Y-60585000D02*
X268270000Y-60585000D01*
X247315000Y-57410000D02*
X251125000Y-57410000D01*
X260650000Y-51695000D02*
X260650000Y-59315000D01*
X267000000Y-60585000D02*
X267000000Y-59315000D01*
X267000000Y-59315000D02*
X270810000Y-59315000D01*
X247315000Y-54795000D02*
X247315000Y-57410000D01*
X260650000Y-59315000D02*
X267000000Y-59315000D01*
X270810000Y-41535000D02*
X258110000Y-41535000D01*
D55*
%TO.N,Net-(J5-Pad1)*%
X233980000Y-45048000D02*
X233682000Y-44750000D01*
X233980000Y-58045000D02*
X239060000Y-63125000D01*
X233980000Y-55505000D02*
X233980000Y-45048000D01*
X233980000Y-55505000D02*
X233980000Y-58045000D01*
X233682000Y-44750000D02*
X230825000Y-44750000D01*
D54*
%TO.N,Net-(M1-Pad2)*%
X233980000Y-63125000D02*
X231717500Y-65387500D01*
X210485000Y-69475000D02*
X210485000Y-64395000D01*
X201595000Y-78365000D02*
X210485000Y-69475000D01*
X170005058Y-99159942D02*
X183815000Y-85350000D01*
X194610000Y-85350000D02*
X198420000Y-81540000D01*
X215565000Y-64395000D02*
X215565000Y-63402500D01*
X215565000Y-65387500D02*
X215565000Y-64395000D01*
X105129741Y-96989741D02*
X107299942Y-99159942D01*
X183815000Y-85350000D02*
X194610000Y-85350000D01*
X107615000Y-94175000D02*
X107615000Y-96145000D01*
X107299942Y-99159942D02*
X170005058Y-99159942D01*
X231717500Y-65387500D02*
X215565000Y-65387500D01*
X105093911Y-96989741D02*
X105129741Y-96989741D01*
%TO.N,/Control Logic/Fuse_Test*%
X82850000Y-91065000D02*
X84152319Y-89762681D01*
X72650000Y-91105000D02*
X65590000Y-91105000D01*
X72690000Y-91065000D02*
X72650000Y-91105000D01*
X72690000Y-91065000D02*
X82850000Y-91065000D01*
X65590000Y-85112500D02*
X65232500Y-84755000D01*
X84152319Y-89762681D02*
X101932681Y-89762681D01*
X101932681Y-89762681D02*
X106345000Y-94175000D01*
X65590000Y-87017500D02*
X65590000Y-85112500D01*
%TO.N,/Control Logic/ISB1*%
X106070000Y-96784960D02*
X106070000Y-96784961D01*
X115235000Y-96145000D02*
X115235000Y-94175000D01*
X109408948Y-98090000D02*
X109405000Y-98086052D01*
X93010000Y-74555000D02*
X89096000Y-74555000D01*
X107375039Y-98090000D02*
X106070000Y-96784960D01*
X109405000Y-98086052D02*
X109405000Y-98090000D01*
X105189388Y-95908677D02*
X105604710Y-96324000D01*
X104881000Y-94716356D02*
X104881000Y-95600290D01*
X112095045Y-98126000D02*
X112059045Y-98090000D01*
X109405000Y-98090000D02*
X107375039Y-98090000D01*
X106167520Y-96882480D02*
X106070000Y-96784960D01*
X94915000Y-76460000D02*
X93010000Y-74555000D01*
X113965000Y-97415000D02*
X115235000Y-96145000D01*
X104518644Y-94354000D02*
X104881000Y-94716356D01*
X95041000Y-94354000D02*
X104518644Y-94354000D01*
X105609040Y-96324000D02*
X106167520Y-96882480D01*
X112059045Y-98090000D02*
X109408948Y-98090000D01*
X105604710Y-96324000D02*
X105609040Y-96324000D01*
X94915000Y-85985000D02*
X94915000Y-76460000D01*
X94915000Y-94480000D02*
X95041000Y-94354000D01*
X104881000Y-95600290D02*
X105189388Y-95908677D01*
%TO.N,/Control Logic/100uA*%
X69400000Y-98725000D02*
X69400000Y-92375000D01*
X69400000Y-87017500D02*
X69400000Y-83842500D01*
X69400000Y-83842500D02*
X65232500Y-79675000D01*
%TO.N,/Control Logic/1mA*%
X67536000Y-90229000D02*
X67495000Y-90270000D01*
X103698681Y-89053681D02*
X103805000Y-89160000D01*
X67495000Y-84477500D02*
X65232500Y-82215000D01*
X72256000Y-90229000D02*
X67536000Y-90229000D01*
X82416000Y-90229000D02*
X83591319Y-89053681D01*
X72256000Y-90229000D02*
X82416000Y-90229000D01*
X83591319Y-89053681D02*
X103698681Y-89053681D01*
X67495000Y-87017500D02*
X67495000Y-84477500D01*
%TO.N,Net-(Q1-G)*%
X78725000Y-84042500D02*
X78762500Y-84080000D01*
X78725000Y-81910000D02*
X78725000Y-84042500D01*
X76777500Y-84080000D02*
X78762500Y-84080000D01*
%TO.N,Net-(Q8-G)*%
X75507500Y-47885000D02*
X75507500Y-49790000D01*
X75507500Y-49790000D02*
X77135000Y-49790000D01*
%TO.N,Net-(Q11-G)*%
X85987500Y-42805000D02*
X85987500Y-44710000D01*
X85987500Y-44710000D02*
X87615000Y-44710000D01*
%TO.N,Net-(Q12-G)*%
X96462500Y-49790000D02*
X98090000Y-49790000D01*
X96462500Y-47885000D02*
X96462500Y-49790000D01*
%TO.N,Net-(Q15-G)*%
X127300000Y-54512500D02*
X127300000Y-57770000D01*
X127300000Y-57770000D02*
X126665000Y-58405000D01*
D56*
%TO.N,Net-(U1-I1)*%
X79675000Y-67292500D02*
X79952500Y-67570000D01*
X82596000Y-68205000D02*
X82596000Y-67886000D01*
X82596000Y-67886000D02*
X82280000Y-67570000D01*
X79675000Y-65307500D02*
X79675000Y-67292500D01*
X82596000Y-68205000D02*
X82915000Y-68205000D01*
X82280000Y-67570000D02*
X79952500Y-67570000D01*
%TO.N,Net-(U1-I2)*%
X81708572Y-65307500D02*
X84243400Y-67842328D01*
X84243400Y-69121599D02*
X83889999Y-69475000D01*
X84243400Y-67842328D02*
X84243400Y-69121599D01*
X79952500Y-69475000D02*
X82915000Y-69475000D01*
X83889999Y-69475000D02*
X82915000Y-69475000D01*
X81580000Y-65307500D02*
X81708572Y-65307500D01*
%TO.N,Net-(U1-I3)*%
X84749200Y-66571700D02*
X84749200Y-69885799D01*
X79952500Y-71380000D02*
X80587500Y-70745000D01*
X84749200Y-69885799D02*
X83889999Y-70745000D01*
X80587500Y-70745000D02*
X82915000Y-70745000D01*
X83889999Y-70745000D02*
X82915000Y-70745000D01*
X83485000Y-65307500D02*
X84749200Y-66571700D01*
%TO.N,Net-(U1-I4)*%
X85390000Y-69983000D02*
X83358000Y-72015000D01*
X85390000Y-65307500D02*
X85390000Y-69983000D01*
X79952500Y-73285000D02*
X81222500Y-72015000D01*
X81222500Y-72015000D02*
X82915000Y-72015000D01*
X83358000Y-72015000D02*
X82915000Y-72015000D01*
%TO.N,Net-(U1-I5)*%
X81857500Y-73285000D02*
X82915000Y-73285000D01*
X79952500Y-75190000D02*
X81857500Y-73285000D01*
X83336072Y-73285000D02*
X82915000Y-73285000D01*
X85895800Y-70725272D02*
X83336072Y-73285000D01*
X87295000Y-65307500D02*
X85895800Y-66706700D01*
X85895800Y-66706700D02*
X85895800Y-70725272D01*
%TO.N,Net-(U3-DRET)*%
X45463000Y-79675000D02*
X45590000Y-79802000D01*
X43642500Y-79675000D02*
X45463000Y-79675000D01*
D54*
%TO.N,Net-(U1-O1)*%
X90089000Y-66808000D02*
X89096000Y-67801000D01*
X89096000Y-67801000D02*
X89096000Y-68205000D01*
%TO.N,Net-(U1-O2)*%
X90597000Y-69475000D02*
X89096000Y-69475000D01*
X91867000Y-68205000D02*
X90597000Y-69475000D01*
X91867000Y-67158033D02*
X91867000Y-68205000D01*
%TO.N,Net-(C10-Pad1)*%
X112060000Y-66235000D02*
X111680000Y-66235000D01*
X111680000Y-66235000D02*
X110155000Y-64710000D01*
%TO.N,Net-(C10-Pad2)*%
X112060000Y-61285000D02*
X111680000Y-61285000D01*
X111680000Y-61285000D02*
X110155000Y-62810000D01*
%TO.N,Net-(Q14-S)*%
X135240000Y-53600000D02*
X134285000Y-52645000D01*
X138095000Y-53600000D02*
X135240000Y-53600000D01*
X132380000Y-77730000D02*
X133015000Y-78365000D01*
X128847500Y-77730000D02*
X132380000Y-77730000D01*
%TO.N,Net-(Q15-S)*%
X135240000Y-49790000D02*
X134285000Y-50745000D01*
D53*
X138095000Y-49790000D02*
X143810000Y-49790000D01*
D54*
X138095000Y-49790000D02*
X135240000Y-49790000D01*
X125395000Y-57135000D02*
X125395000Y-56775000D01*
X134219000Y-50679000D02*
X134285000Y-50745000D01*
D53*
%TO.N,Net-(D4-K)*%
X79675000Y-79635000D02*
X83130000Y-79635000D01*
D54*
%TO.N,Net-(D8-A)*%
X114600000Y-67570000D02*
X105075000Y-77095000D01*
X105075000Y-77095000D02*
X103170000Y-75190000D01*
X114600000Y-66235000D02*
X114600000Y-67570000D01*
X103170000Y-75190000D02*
X98725000Y-75190000D01*
X127022500Y-77730000D02*
X105710000Y-77730000D01*
X105710000Y-77730000D02*
X105075000Y-77095000D01*
X98725000Y-75190000D02*
X98725000Y-77730000D01*
X106933388Y-91700000D02*
X112106612Y-91700000D01*
X105075000Y-89841612D02*
X106933388Y-91700000D01*
X105075000Y-77095000D02*
X105075000Y-89841612D01*
X98725000Y-73285000D02*
X98725000Y-75190000D01*
X112106612Y-91700000D02*
X113965000Y-93558388D01*
X113965000Y-93558388D02*
X113965000Y-94175000D01*
%TO.N,Net-(D14-A)*%
X140992500Y-82052500D02*
X141115000Y-82175000D01*
X140992500Y-79635000D02*
X140992500Y-82052500D01*
X139007500Y-79635000D02*
X140992500Y-79635000D01*
%TO.N,Net-(D15-A)*%
X127300000Y-52687500D02*
X125517500Y-52687500D01*
X125240000Y-50627500D02*
X125037500Y-50425000D01*
X125517500Y-52687500D02*
X125240000Y-52965000D01*
X125240000Y-52965000D02*
X125240000Y-50627500D01*
%TO.N,Net-(Q2-E)*%
X73682500Y-44710000D02*
X73682500Y-47885000D01*
X92370000Y-59950000D02*
X92370000Y-54870000D01*
%TO.N,Net-(Q2-B)*%
X90470000Y-62410000D02*
X91740000Y-63680000D01*
X90470000Y-54870000D02*
X90470000Y-59950000D01*
X90470000Y-59950000D02*
X90470000Y-62410000D01*
X90597000Y-70745000D02*
X88839999Y-70745000D01*
X92883000Y-68459000D02*
X90597000Y-70745000D01*
X91740000Y-63760000D02*
X92883000Y-64903000D01*
X92883000Y-64903000D02*
X92883000Y-68459000D01*
%TO.N,Net-(Q4-E)*%
X102267678Y-54235000D02*
X111752679Y-44750000D01*
X111752678Y-44750000D02*
X111826678Y-44676000D01*
X111752679Y-44750000D02*
X111752678Y-44750000D01*
X154605000Y-46455000D02*
X154605000Y-46402323D01*
X96185000Y-56775000D02*
X96180000Y-56770000D01*
X152878677Y-44676000D02*
X111826678Y-44676000D01*
X102267678Y-54236160D02*
X102267678Y-54235000D01*
X111826678Y-44676000D02*
X111826679Y-44676000D01*
X96185000Y-56775000D02*
X96180000Y-56780000D01*
X101175419Y-55328419D02*
X102267678Y-54236160D01*
X96180000Y-56770000D02*
X96180000Y-54870000D01*
X96180000Y-56780000D02*
X96180000Y-59950000D01*
X84162500Y-44710000D02*
X84162500Y-47885000D01*
X154605000Y-46402323D02*
X152878677Y-44676000D01*
%TO.N,Net-(Q4-B)*%
X94360000Y-63680000D02*
X94280000Y-63760000D01*
X94280000Y-68332000D02*
X90597000Y-72015000D01*
X94280000Y-59950000D02*
X94280000Y-63760000D01*
X94280000Y-54870000D02*
X94280000Y-59950000D01*
X95550000Y-63680000D02*
X94360000Y-63680000D01*
X94280000Y-63760000D02*
X94280000Y-68332000D01*
X90597000Y-72015000D02*
X88839999Y-72015000D01*
%TO.N,Net-(Q6-B)*%
X98095000Y-65787000D02*
X90597000Y-73285000D01*
X90597000Y-73285000D02*
X89096000Y-73285000D01*
X98095000Y-59950000D02*
X98095000Y-63760000D01*
X98090000Y-54870000D02*
X98090000Y-59945000D01*
X99360000Y-63680000D02*
X98175000Y-63680000D01*
X98095000Y-63760000D02*
X98095000Y-65787000D01*
X98175000Y-63680000D02*
X98095000Y-63760000D01*
X98090000Y-59945000D02*
X98095000Y-59950000D01*
%TO.N,Net-(Q6-E)*%
X154590355Y-45385000D02*
X153172355Y-43967000D01*
X196276744Y-57171744D02*
X194813771Y-57171744D01*
X111533001Y-43967000D02*
X111117677Y-44382322D01*
X194075098Y-47505098D02*
X191955000Y-45385000D01*
X101016999Y-54483000D02*
X100377000Y-54483000D01*
X100377000Y-54483000D02*
X99990000Y-54870000D01*
X111533001Y-43967000D02*
X111533000Y-43966999D01*
X194813771Y-57171744D02*
X194075098Y-56433071D01*
X194075098Y-56433071D02*
X194075098Y-47505098D01*
X111117677Y-44382322D02*
X101016999Y-54483000D01*
X99995000Y-54875000D02*
X99990000Y-54870000D01*
X111533000Y-43967000D02*
X111533001Y-43967000D01*
X191955000Y-45385000D02*
X154590355Y-45385000D01*
X111533000Y-43967000D02*
X111533000Y-43966999D01*
X99995000Y-59950000D02*
X99995000Y-54875000D01*
X112120356Y-43967000D02*
X111533000Y-43966999D01*
X94637500Y-44710000D02*
X94637500Y-47885000D01*
X153172355Y-43967000D02*
X112120356Y-43967000D01*
%TO.N,Net-(Q8-D)*%
X78085000Y-45960000D02*
X78105000Y-45980000D01*
X78085000Y-47515000D02*
X78085000Y-46000000D01*
X78085000Y-42435000D02*
X78085000Y-45960000D01*
X78085000Y-46000000D02*
X78105000Y-45980000D01*
%TO.N,Net-(Q9-G)*%
X75507500Y-44710000D02*
X77135000Y-44710000D01*
X75507500Y-42805000D02*
X75507500Y-44710000D01*
%TO.N,Net-(Q10-D)*%
X88565000Y-45899000D02*
X88646000Y-45980000D01*
X88565000Y-46061000D02*
X88646000Y-45980000D01*
X153335000Y-46135000D02*
X152585000Y-45385000D01*
X88565000Y-42435000D02*
X88565000Y-45899000D01*
X103805000Y-53700356D02*
X103805000Y-54235000D01*
X112120356Y-45385000D02*
X103805000Y-53700356D01*
X153335000Y-46455000D02*
X153335000Y-46135000D01*
X88565000Y-47515000D02*
X88565000Y-46061000D01*
X152585000Y-45385000D02*
X112120356Y-45385000D01*
%TO.N,Net-(Q10-G)*%
X85987500Y-49790000D02*
X87615000Y-49790000D01*
X85987500Y-47885000D02*
X85987500Y-49790000D01*
%TO.N,Net-(Q12-D)*%
X195245000Y-47551383D02*
X192316617Y-44623000D01*
X153466033Y-43258000D02*
X152878677Y-43257999D01*
X110750000Y-43747321D02*
X110676001Y-43821322D01*
X153881356Y-43673325D02*
X153881356Y-43673322D01*
X153466033Y-43257999D02*
X153466033Y-43258000D01*
X154831031Y-44623000D02*
X153881356Y-43673325D01*
X111826679Y-43258000D02*
X111826678Y-43257999D01*
X110676001Y-43821322D02*
X110408678Y-44088643D01*
X152878677Y-43258000D02*
X111826679Y-43258000D01*
X110823999Y-43673322D02*
X110823999Y-43673323D01*
X110334677Y-44162644D02*
X110334677Y-44162646D01*
X110823999Y-43673323D02*
X110750000Y-43747321D01*
X111826678Y-43257999D02*
X111239322Y-43257999D01*
X99040000Y-42435000D02*
X99040000Y-45974000D01*
X99046000Y-45980000D02*
X99040000Y-45974000D01*
X192316617Y-44623000D02*
X154831031Y-44623000D01*
X110408678Y-44088643D02*
X110408678Y-44088645D01*
X195245000Y-55505000D02*
X195245000Y-47551383D01*
X110408678Y-44088645D02*
X110334677Y-44162644D01*
X99040000Y-45974000D02*
X99040000Y-47515000D01*
X152878677Y-43257999D02*
X152878677Y-43258000D01*
X111239322Y-43257999D02*
X111239323Y-43258000D01*
X153881356Y-43673322D02*
X153466033Y-43257999D01*
X108517322Y-45980000D02*
X99046000Y-45980000D01*
X111239323Y-43258000D02*
X110823999Y-43673322D01*
X110334677Y-44162646D02*
X108517322Y-45980000D01*
%TO.N,Net-(Q13-G)*%
X96462500Y-42805000D02*
X96462500Y-44710000D01*
X96462500Y-44710000D02*
X98090000Y-44710000D01*
%TO.N,Net-(Q14-G)*%
X137182500Y-79635000D02*
X134285000Y-79635000D01*
%TO.N,Net-(R47-Pad2)*%
X236520000Y-83445000D02*
X221915000Y-83445000D01*
X239060000Y-80905000D02*
X236520000Y-83445000D01*
D55*
%TO.N,Net-(R54-I1)*%
X218371000Y-90851000D02*
X232341000Y-90851000D01*
X218371000Y-90851000D02*
X210906000Y-90851000D01*
X196300000Y-76245000D02*
X181110000Y-76245000D01*
X232341000Y-90851000D02*
X234246000Y-88946000D01*
X219006000Y-90851000D02*
X219006000Y-87676000D01*
X234246000Y-88946000D02*
X234246000Y-87676000D01*
X218371000Y-90851000D02*
X219006000Y-90851000D01*
X210906000Y-90851000D02*
X196300000Y-76245000D01*
D54*
%TO.N,Net-(R54-E2)*%
X234246000Y-95296000D02*
X232722000Y-96820000D01*
X232722000Y-96820000D02*
X195130000Y-96820000D01*
X195130000Y-96820000D02*
X186875000Y-88565000D01*
%TO.N,Net-(R55-E2)*%
X199702000Y-93137000D02*
X195130000Y-88565000D01*
X219006000Y-95296000D02*
X216847000Y-93137000D01*
X216847000Y-93137000D02*
X199702000Y-93137000D01*
D53*
%TO.N,Net-(R55-E1)*%
X149565000Y-49830000D02*
X160205000Y-49830000D01*
X149525000Y-49790000D02*
X149565000Y-49830000D01*
X160205000Y-49830000D02*
X165285000Y-54910000D01*
X165285000Y-54910000D02*
X165285000Y-57450000D01*
%TO.N,Net-(R57-Pad1)*%
X143810000Y-53600000D02*
X149525000Y-53600000D01*
D55*
%TO.N,Net-(RL1-Pad10)*%
X239060000Y-55505000D02*
X244140000Y-55505000D01*
D56*
%TO.N,Net-(U3-DOUT)*%
X45590000Y-73706000D02*
X45336000Y-73960000D01*
X56901000Y-78839000D02*
X56901000Y-73256162D01*
X53525000Y-82215000D02*
X56901000Y-78839000D01*
X50985000Y-70785000D02*
X50350000Y-71420000D01*
X56901000Y-73256162D02*
X54429838Y-70785000D01*
X54429838Y-70785000D02*
X50985000Y-70785000D01*
X45336000Y-73960000D02*
X43642500Y-73960000D01*
D54*
X53525000Y-82215000D02*
X51262500Y-82215000D01*
D56*
%TO.N,Net-(U3-ERR_L)*%
X43642500Y-77770000D02*
X45590000Y-77770000D01*
%TO.N,Net-(U3-EN_H)*%
X45463000Y-75865000D02*
X45590000Y-75738000D01*
D54*
X51262500Y-84755000D02*
X53525000Y-84755000D01*
D56*
X43642500Y-75865000D02*
X45463000Y-75865000D01*
%TO.N,Net-(U3-SCK_F)*%
X43642500Y-81580000D02*
X45336000Y-81580000D01*
D54*
X51262500Y-87295000D02*
X53525000Y-87295000D01*
D56*
X45336000Y-81580000D02*
X45590000Y-81834000D01*
D54*
%TO.N,GND_2*%
X84162500Y-41598499D02*
X84640000Y-41120999D01*
X94637500Y-42805000D02*
X94637500Y-41283499D01*
X122855000Y-72015000D02*
X120315000Y-69475000D01*
X77601001Y-41067000D02*
X73263999Y-41067000D01*
D56*
X88348400Y-66030528D02*
X86401600Y-67977328D01*
D54*
X114285000Y-57095000D02*
X117502065Y-60312065D01*
X89031001Y-41067000D02*
X84693999Y-41067000D01*
X83370000Y-54870000D02*
X88565000Y-54870000D01*
X90476000Y-52959000D02*
X91384000Y-52959000D01*
X89515000Y-44710000D02*
X89515000Y-41087000D01*
X79121000Y-41067000D02*
X77708999Y-41067000D01*
D56*
X88348400Y-64535900D02*
X88348400Y-66030528D01*
D54*
X85390000Y-63482500D02*
X87295000Y-63482500D01*
X91420000Y-52995000D02*
X95230000Y-52995000D01*
X79675000Y-63482500D02*
X81580000Y-63482500D01*
X38158000Y-41067000D02*
X69331000Y-41067000D01*
X103690000Y-41829000D02*
X103736000Y-41783000D01*
X81580000Y-63482500D02*
X83485000Y-63482500D01*
D56*
X83889999Y-77095000D02*
X82915000Y-77095000D01*
D54*
X99990000Y-44710000D02*
X99990000Y-41570000D01*
X35110000Y-44115000D02*
X38158000Y-41067000D01*
X103736000Y-41783000D02*
X197398000Y-41783000D01*
X89515000Y-41087000D02*
X89535000Y-41067000D01*
D53*
X35110000Y-47680000D02*
X39165000Y-51735000D01*
D54*
X219375000Y-75825000D02*
X231440000Y-75825000D01*
X73156001Y-41067000D02*
X69400000Y-41067000D01*
X83485000Y-63482500D02*
X85390000Y-63482500D01*
X203500000Y-63125000D02*
X134285000Y-63125000D01*
X94746001Y-41067000D02*
X89535000Y-41067000D01*
X83370000Y-54870000D02*
X75710000Y-54870000D01*
X99487000Y-41067000D02*
X94853999Y-41067000D01*
X117140000Y-84080000D02*
X125395000Y-84080000D01*
X120315000Y-69475000D02*
X120315000Y-66620000D01*
X94800000Y-41120999D02*
X94746001Y-41067000D01*
X73682500Y-42805000D02*
X73682500Y-41593499D01*
X79035000Y-41153000D02*
X79121000Y-41067000D01*
X197398000Y-41783000D02*
X202230000Y-46615000D01*
X84162500Y-42805000D02*
X84162500Y-41598499D01*
X134285000Y-63125000D02*
X125395000Y-72015000D01*
X79035000Y-44710000D02*
X79035000Y-41153000D01*
X73682500Y-41593499D02*
X73210000Y-41120999D01*
X62923000Y-42083000D02*
X38943000Y-42083000D01*
X36911000Y-44115000D02*
X35110000Y-44115000D01*
X231440000Y-75825000D02*
X233980000Y-73285000D01*
X99990000Y-41570000D02*
X99487000Y-41067000D01*
D56*
X86401600Y-67977328D02*
X86401600Y-74583399D01*
D54*
X215565000Y-68840000D02*
X215565000Y-67212500D01*
X209215000Y-68840000D02*
X203500000Y-63125000D01*
X75710000Y-54870000D02*
X62923000Y-42083000D01*
X88565000Y-54870000D02*
X90476000Y-52959000D01*
X73210000Y-41120999D02*
X73156001Y-41067000D01*
D56*
X86401600Y-74583399D02*
X83889999Y-77095000D01*
D54*
X125395000Y-72015000D02*
X122855000Y-72015000D01*
X89535000Y-41067000D02*
X89138999Y-41067000D01*
X73263999Y-41067000D02*
X73210000Y-41120999D01*
X113330000Y-57095000D02*
X114285000Y-57095000D01*
X120315000Y-66620000D02*
X117775000Y-64080000D01*
X111110000Y-84080000D02*
X117140000Y-84080000D01*
X95230000Y-52995000D02*
X99040000Y-52995000D01*
X215565000Y-72015000D02*
X219375000Y-75825000D01*
X83485000Y-54985000D02*
X83370000Y-54870000D01*
X110155000Y-85035000D02*
X111110000Y-84080000D01*
X94853999Y-41067000D02*
X94800000Y-41120999D01*
X38943000Y-42083000D02*
X36911000Y-44115000D01*
X91384000Y-52959000D02*
X91420000Y-52995000D01*
X84693999Y-41067000D02*
X84640000Y-41120999D01*
D53*
X35110000Y-44115000D02*
X35110000Y-47680000D01*
X44635000Y-60135000D02*
X44635000Y-57205000D01*
D54*
X84586001Y-41067000D02*
X79121000Y-41067000D01*
D56*
X87295000Y-63482500D02*
X88348400Y-64535900D01*
D53*
X44635000Y-57205000D02*
X39165000Y-51735000D01*
D54*
X94637500Y-41283499D02*
X94800000Y-41120999D01*
X215565000Y-68840000D02*
X215565000Y-72015000D01*
X83485000Y-63482500D02*
X83485000Y-54985000D01*
X84640000Y-41120999D02*
X84586001Y-41067000D01*
%TO.N,Net-(U3-D1)*%
X63065000Y-65720000D02*
X54780000Y-65720000D01*
X54780000Y-65720000D02*
X53525000Y-66975000D01*
X78127500Y-67570000D02*
X64915000Y-67570000D01*
X64915000Y-67570000D02*
X63065000Y-65720000D01*
%TO.N,Net-(U3-D2)*%
X78127500Y-69475000D02*
X63645000Y-69475000D01*
X63645000Y-69475000D02*
X61145000Y-66975000D01*
%TO.N,Net-(U3-D3)*%
X78127500Y-71380000D02*
X63010000Y-71380000D01*
X63010000Y-71380000D02*
X61145000Y-69515000D01*
%TO.N,Net-(U3-D4)*%
X63725000Y-73285000D02*
X62415000Y-74595000D01*
X78127500Y-73285000D02*
X63725000Y-73285000D01*
X62415000Y-74595000D02*
X61145000Y-74595000D01*
%TO.N,Net-(U3-D5)*%
X62313750Y-77135000D02*
X61145000Y-77135000D01*
X78127500Y-75190000D02*
X64258750Y-75190000D01*
X64258750Y-75190000D02*
X62313750Y-77135000D01*
%TO.N,Net-(U3-D6)*%
X63407500Y-79675000D02*
X61145000Y-79675000D01*
%TO.N,Net-(U3-D7)*%
X63407500Y-82215000D02*
X61145000Y-82215000D01*
%TO.N,Net-(U3-D8)*%
X63407500Y-84755000D02*
X61145000Y-84755000D01*
%TO.N,GND_8*%
X113330000Y-64395000D02*
X113965000Y-63760000D01*
X232275000Y-82610000D02*
X233980000Y-80905000D01*
X115235000Y-63760000D02*
X119045000Y-59950000D01*
X120990000Y-61895000D02*
X194570000Y-61895000D01*
X221915000Y-45980000D02*
X225725000Y-49790000D01*
X119045000Y-59950000D02*
X119045000Y-53656052D01*
X113965000Y-63760000D02*
X114600000Y-63125000D01*
X113330000Y-66235000D02*
X113330000Y-64395000D01*
X225725000Y-49790000D02*
X225725000Y-63760000D01*
X194570000Y-61895000D02*
X210485000Y-45980000D01*
X119045000Y-53656052D02*
X122276052Y-50425000D01*
X114600000Y-63125000D02*
X114600000Y-61285000D01*
X210485000Y-45980000D02*
X221915000Y-45980000D01*
X225725000Y-82610000D02*
X232275000Y-82610000D01*
X113965000Y-63760000D02*
X115235000Y-63760000D01*
X122276052Y-50425000D02*
X123212500Y-50425000D01*
X119045000Y-59950000D02*
X120990000Y-61895000D01*
%TO.N,Net-(U3-UPD_F)*%
X51262500Y-69515000D02*
X53525000Y-69515000D01*
%TO.N,Net-(U3-RST_L)*%
X51262500Y-79675000D02*
X53525000Y-79675000D01*
%TO.N,Net-(U3-SND_H)*%
X61422500Y-87017500D02*
X61145000Y-87295000D01*
X63685000Y-87017500D02*
X61422500Y-87017500D01*
%TD*%
M02*
