M48
; DRILL file {KiCad 9.0.7} date 2026-03-05T17:42:56+0100
; FORMAT={-:-/ absolute / metric / decimal}
; #@! TF.CreationDate,2026-03-05T17:42:56+01:00
; #@! TF.GenerationSoftware,Kicad,Pcbnew,9.0.7
; #@! TF.FileFunction,Plated,1,2,PTH
FMAT,2
METRIC
; #@! TA.AperFunction,Plated,PTH,ViaDrill
T1C0.300
; #@! TA.AperFunction,Plated,PTH,ViaDrill
T2C0.381
; #@! TA.AperFunction,Plated,PTH,ViaDrill
T3C0.635
; #@! TA.AperFunction,Plated,PTH,ComponentDrill
T4C0.700
; #@! TA.AperFunction,Plated,PTH,ComponentDrill
T5C0.750
; #@! TA.AperFunction,Plated,PTH,ComponentDrill
T6C0.800
; #@! TA.AperFunction,Plated,PTH,ComponentDrill
T7C0.840
; #@! TA.AperFunction,Plated,PTH,ComponentDrill
T8C1.000
; #@! TA.AperFunction,Plated,PTH,ComponentDrill
T9C1.010
; #@! TA.AperFunction,Plated,PTH,ComponentDrill
T10C1.100
; #@! TA.AperFunction,Plated,PTH,ComponentDrill
T11C1.120
; #@! TA.AperFunction,Plated,PTH,ComponentDrill
T12C1.220
; #@! TA.AperFunction,Plated,PTH,ComponentDrill
T13C1.300
%
G90
G05
T1
X198.42Y-81.54
X201.595Y-78.365
X210.485Y-64.395
X215.565Y-64.395
X225.725Y-63.76
T2
X34.865Y-51.735
X39.555Y-74.595
X45.59Y-73.706
X45.59Y-75.738
X45.59Y-77.77
X45.59Y-79.802
X45.59Y-81.834
X50.35Y-71.42
X56.065Y-74.595
X57.081Y-52.878
X65.59Y-87.017
X67.495Y-87.017
X67.495Y-90.27
X68.765Y-76.5
X69.4Y-87.017
X69.4Y-92.375
X69.4Y-98.725
X73.682Y-47.885
X73.96Y-87.93
X78.105Y-45.98
X81.58Y-49.79
X82.596Y-68.205
X82.596Y-74.555
X84.162Y-47.885
X86.861Y-87.054
X88.646Y-45.98
X89.835Y-84.08
X90.089Y-66.808
X91.74Y-61.855
X91.867Y-67.158
X92.37Y-54.87
X93.339Y-87.89
X94.637Y-47.885
X94.915Y-85.985
X94.915Y-94.48
X95.55Y-61.855
X96.18Y-54.87
X97.455Y-86.62
X99.36Y-61.855
X99.99Y-54.87
X101.175Y-55.328
X103.69Y-41.829
X103.69Y-43.48
X103.805Y-54.235
X103.805Y-87.89
X103.805Y-89.16
X105.094Y-96.99
X106.345Y-89.225
X107.615Y-96.145
X108.455Y-43.48
X108.885Y-94.175
X110.04Y-96.82
X110.155Y-86.935
X110.155Y-92.535
X110.177Y-90.791
X111.425Y-92.535
X111.94Y-96.82
X112.095Y-98.126
X112.187Y-85.035
X112.187Y-86.935
X112.695Y-94.24
X113.33Y-58.995
X113.965Y-97.415
X115.235Y-89.225
X117.14Y-84.08
X117.502Y-60.312
X117.775Y-64.08
X117.775Y-65.98
X120.315Y-58.68
X121.585Y-54.87
X121.585Y-79.0
X122.855Y-72.015
X125.395Y-84.08
X142.425Y-61.895
X142.817Y-79.635
X153.335Y-46.455
X154.605Y-46.455
X172.905Y-98.725
X190.722Y-46.692
X195.245Y-55.505
X196.277Y-57.172
X203.5Y-49.79
X209.215Y-68.84
X215.565Y-61.578
X225.09Y-47.25
X225.725Y-82.61
X239.58Y-98.725
X244.025Y-77.77
X244.14Y-59.95
X268.27Y-60.585
X268.905Y-73.92
T3
X30.42Y-88.565
X65.59Y-91.105
X80.625Y-86.62
X87.041Y-77.095
X113.965Y-63.76
X120.835Y-95.55
X202.23Y-46.615
X212.39Y-48.93
X212.39Y-78.59
X215.565Y-68.84
X219.375Y-55.73
X219.375Y-71.79
T4
X86.025Y-91.7
X86.025Y-94.24
X87.295Y-92.97
X91.925Y-92.97
X93.195Y-91.7
X93.195Y-94.24
X98.725Y-70.745
X98.725Y-73.285
X98.725Y-77.73
X98.725Y-80.27
X99.995Y-72.015
X99.995Y-79.0
T5
X123.49Y-64.755
X124.125Y-58.405
X124.76Y-63.485
X125.395Y-57.135
X126.03Y-64.755
X126.665Y-58.405
X131.745Y-79.635
X133.015Y-78.365
X134.285Y-79.635
T6
X53.525Y-66.975
X53.525Y-69.515
X53.525Y-72.055
X53.525Y-74.595
X53.525Y-77.135
X53.525Y-79.675
X53.525Y-82.215
X53.525Y-84.755
X53.525Y-87.295
X61.145Y-66.975
X61.145Y-69.515
X61.145Y-72.055
X61.145Y-74.595
X61.145Y-77.135
X61.145Y-79.675
X61.145Y-82.215
X61.145Y-84.755
X61.145Y-87.295
T7
X138.095Y-49.79
X138.095Y-53.6
X143.81Y-49.79
X143.81Y-53.6
X149.525Y-49.79
X149.525Y-53.6
T8
X30.665Y-51.735
X30.665Y-61.895
X30.665Y-64.435
X30.665Y-66.975
X30.665Y-69.515
X30.665Y-72.055
X30.665Y-74.595
X30.665Y-77.135
X30.665Y-79.675
X33.205Y-61.895
X33.205Y-64.435
X33.205Y-66.975
X33.205Y-69.515
X33.205Y-72.055
X33.205Y-74.595
X33.205Y-77.135
X33.205Y-79.675
X39.555Y-64.435
X40.19Y-86.66
X77.135Y-87.89
X77.135Y-96.145
X105.075Y-77.095
X108.25Y-55.505
X129.09Y-85.39
X129.09Y-90.47
X134.17Y-85.39
X134.17Y-90.47
X136.71Y-85.39
X136.71Y-90.47
X139.25Y-85.39
X139.25Y-90.47
X154.605Y-85.39
X154.605Y-90.47
X159.685Y-85.39
X159.685Y-90.47
X162.225Y-85.39
X162.225Y-90.47
X164.765Y-85.39
X164.765Y-90.47
X173.54Y-88.565
X186.875Y-88.565
X195.13Y-88.565
X255.455Y-86.025
T9
X181.11Y-53.74
X181.11Y-71.24
T10
X230.825Y-44.75
X230.825Y-47.29
X264.46Y-49.79
X264.46Y-52.33
X264.46Y-54.87
X264.46Y-57.41
X264.46Y-65.03
X264.46Y-67.57
X264.46Y-70.11
X264.46Y-77.73
X264.46Y-80.27
X264.46Y-82.81
X264.46Y-85.35
X264.46Y-87.89
X264.46Y-90.43
T11
X162.745Y-57.45
X165.285Y-57.45
X167.825Y-57.45
X170.365Y-57.45
T12
X181.11Y-48.735
X181.11Y-76.245
T13
X30.03Y-44.115
X35.11Y-44.115
X213.926Y-87.676
X213.926Y-95.296
X219.006Y-87.676
X219.006Y-95.296
X224.086Y-87.676
X224.086Y-95.296
X228.9Y-55.505
X228.9Y-63.125
X228.9Y-73.285
X228.9Y-80.905
X229.166Y-87.676
X229.166Y-95.296
X233.98Y-55.505
X233.98Y-63.125
X233.98Y-73.285
X233.98Y-80.905
X234.246Y-87.676
X234.246Y-95.296
X239.06Y-55.505
X239.06Y-63.125
X239.06Y-73.285
X239.06Y-80.905
X239.326Y-87.676
X239.326Y-95.296
X244.14Y-55.505
X244.14Y-63.125
X244.14Y-73.285
X244.14Y-80.905
X249.22Y-55.505
X249.22Y-63.125
X249.22Y-73.285
X249.22Y-80.905
X254.3Y-55.505
X254.3Y-63.125
X254.3Y-73.285
X254.3Y-80.905
X260.015Y-96.145
X260.65Y-44.075
X265.095Y-96.145
X265.73Y-44.075
M30
