%TF.GenerationSoftware,KiCad,Pcbnew,9.0.7*%
%TF.CreationDate,2026-03-05T17:42:54+01:00*%
%TF.ProjectId,Datron 1281 Strom Option,44617472-6f6e-4203-9132-383120537472,1*%
%TF.SameCoordinates,Original*%
%TF.FileFunction,Copper,L2,Bot*%
%TF.FilePolarity,Positive*%
%FSLAX46Y46*%
G04 Gerber Fmt 4.6, Leading zero omitted, Abs format (unit mm)*
G04 Created by KiCad (PCBNEW 9.0.7) date 2026-03-05 17:42:54*
%MOMM*%
%LPD*%
G01*
G04 APERTURE LIST*
G04 Aperture macros list*
%AMRoundRect*
0 Rectangle with rounded corners*
0 $1 Rounding radius*
0 $2 $3 $4 $5 $6 $7 $8 $9 X,Y pos of 4 corners*
0 Add a 4 corners polygon primitive as box body*
4,1,4,$2,$3,$4,$5,$6,$7,$8,$9,$2,$3,0*
0 Add four circle primitives for the rounded corners*
1,1,$1+$1,$2,$3*
1,1,$1+$1,$4,$5*
1,1,$1+$1,$6,$7*
1,1,$1+$1,$8,$9*
0 Add four rect primitives between the rounded corners*
20,1,$1+$1,$2,$3,$4,$5,0*
20,1,$1+$1,$4,$5,$6,$7,0*
20,1,$1+$1,$6,$7,$8,$9,0*
20,1,$1+$1,$8,$9,$2,$3,0*%
G04 Aperture macros list end*
%TA.AperFunction,ComponentPad*%
%ADD10RoundRect,0.650000X-0.650000X-0.650000X0.650000X-0.650000X0.650000X0.650000X-0.650000X0.650000X0*%
%TD*%
%TA.AperFunction,ComponentPad*%
%ADD11C,2.600000*%
%TD*%
%TA.AperFunction,ComponentPad*%
%ADD12RoundRect,0.250000X0.600000X0.600000X-0.600000X0.600000X-0.600000X-0.600000X0.600000X-0.600000X0*%
%TD*%
%TA.AperFunction,ComponentPad*%
%ADD13C,1.700000*%
%TD*%
%TA.AperFunction,ComponentPad*%
%ADD14O,1.200000X1.600000*%
%TD*%
%TA.AperFunction,ComponentPad*%
%ADD15C,1.200000*%
%TD*%
%TA.AperFunction,ComponentPad*%
%ADD16RoundRect,0.250000X-0.950000X-0.550000X0.950000X-0.550000X0.950000X0.550000X-0.950000X0.550000X0*%
%TD*%
%TA.AperFunction,ComponentPad*%
%ADD17O,2.400000X1.600000*%
%TD*%
%TA.AperFunction,ComponentPad*%
%ADD18C,2.000000*%
%TD*%
%TA.AperFunction,ComponentPad*%
%ADD19R,1.830000X1.830000*%
%TD*%
%TA.AperFunction,ComponentPad*%
%ADD20C,1.515000*%
%TD*%
%TA.AperFunction,ComponentPad*%
%ADD21C,1.830000*%
%TD*%
%TA.AperFunction,ComponentPad*%
%ADD22RoundRect,0.650000X0.650000X0.650000X-0.650000X0.650000X-0.650000X-0.650000X0.650000X-0.650000X0*%
%TD*%
%TA.AperFunction,ComponentPad*%
%ADD23C,1.365000*%
%TD*%
%TA.AperFunction,ComponentPad*%
%ADD24R,1.650000X1.650000*%
%TD*%
%TA.AperFunction,ComponentPad*%
%ADD25C,1.650000*%
%TD*%
%TA.AperFunction,ComponentPad*%
%ADD26R,1.950000X1.950000*%
%TD*%
%TA.AperFunction,ComponentPad*%
%ADD27C,1.950000*%
%TD*%
%TA.AperFunction,ComponentPad*%
%ADD28R,1.300000X1.300000*%
%TD*%
%TA.AperFunction,ComponentPad*%
%ADD29C,1.300000*%
%TD*%
%TA.AperFunction,ComponentPad*%
%ADD30C,1.550000*%
%TD*%
%TA.AperFunction,ComponentPad*%
%ADD31R,1.680000X1.680000*%
%TD*%
%TA.AperFunction,ComponentPad*%
%ADD32C,1.680000*%
%TD*%
%TA.AperFunction,ViaPad*%
%ADD33C,0.762000*%
%TD*%
%TA.AperFunction,ViaPad*%
%ADD34C,1.270000*%
%TD*%
%TA.AperFunction,ViaPad*%
%ADD35C,0.600000*%
%TD*%
%TA.AperFunction,Conductor*%
%ADD36C,1.270000*%
%TD*%
%TA.AperFunction,Conductor*%
%ADD37C,0.508000*%
%TD*%
%TA.AperFunction,Conductor*%
%ADD38C,2.032000*%
%TD*%
%TA.AperFunction,Conductor*%
%ADD39C,0.304800*%
%TD*%
G04 APERTURE END LIST*
D10*
%TO.P,JP3,1,A*%
%TO.N,Net-(JP3-A)*%
X260650000Y-44075000D03*
D11*
%TO.P,JP3,2,B*%
%TO.N,Net-(JP3-B)*%
X265730000Y-44075000D03*
%TD*%
D12*
%TO.P,J1,1,Pin_1*%
%TO.N,Net-(J1-Pin_1)*%
X33205000Y-79675000D03*
D13*
%TO.P,J1,2,Pin_2*%
%TO.N,Net-(J1-Pin_2)*%
X30665000Y-79675000D03*
%TO.P,J1,3,Pin_3*%
%TO.N,Net-(J1-Pin_3)*%
X33205000Y-77135000D03*
%TO.P,J1,4,Pin_4*%
%TO.N,Net-(J1-Pin_4)*%
X30665000Y-77135000D03*
%TO.P,J1,5,Pin_5*%
%TO.N,Net-(J1-Pin_5)*%
X33205000Y-74595000D03*
%TO.P,J1,6,Pin_6*%
%TO.N,Net-(J1-Pin_6)*%
X30665000Y-74595000D03*
%TO.P,J1,7,Pin_7*%
%TO.N,+5V*%
X33205000Y-72055000D03*
%TO.P,J1,8,Pin_8*%
%TO.N,GND_21*%
X30665000Y-72055000D03*
%TO.P,J1,9,Pin_9*%
%TO.N,unconnected-(J1-Pin_9-Pad9)*%
X33205000Y-69515000D03*
%TO.P,J1,10,Pin_10*%
%TO.N,unconnected-(J1-Pin_10-Pad10)*%
X30665000Y-69515000D03*
%TO.P,J1,11,Pin_11*%
%TO.N,unconnected-(J1-Pin_11-Pad11)*%
X33205000Y-66975000D03*
%TO.P,J1,12,Pin_12*%
%TO.N,unconnected-(J1-Pin_12-Pad12)*%
X30665000Y-66975000D03*
%TO.P,J1,13,Pin_13*%
%TO.N,+15V*%
X33205000Y-64435000D03*
%TO.P,J1,14,Pin_14*%
%TO.N,-15V*%
X30665000Y-64435000D03*
%TO.P,J1,15,Pin_15*%
%TO.N,35V*%
X33205000Y-61895000D03*
%TO.P,J1,16,Pin_16*%
%TO.N,Net-(J1-Pin_16)*%
X30665000Y-61895000D03*
%TD*%
D14*
%TO.P,D8,1,K*%
%TO.N,+15V*%
X98725000Y-70745000D03*
D15*
%TO.P,D8,2,A*%
%TO.N,Net-(D8-A)*%
X98725000Y-73285000D03*
%TO.P,D8,3*%
%TO.N,unconnected-(D8-Pad3)*%
X99995000Y-72015000D03*
%TD*%
D14*
%TO.P,D9,1,K*%
%TO.N,Net-(D8-A)*%
X98725000Y-77730000D03*
D15*
%TO.P,D9,2,A*%
%TO.N,-15V*%
X98725000Y-80270000D03*
%TO.P,D9,3*%
%TO.N,unconnected-(D9-Pad3)*%
X99995000Y-79000000D03*
%TD*%
D16*
%TO.P,U3,1,D1*%
%TO.N,Net-(U3-D1)*%
X53525000Y-66975000D03*
D17*
%TO.P,U3,2,UPD_F*%
%TO.N,Net-(U3-UPD_F)*%
X53525000Y-69515000D03*
%TO.P,U3,3,ERR_L*%
%TO.N,Net-(U3-ERR_L)*%
X53525000Y-72055000D03*
%TO.P,U3,4,DRET*%
%TO.N,Net-(U3-DRET)*%
X53525000Y-74595000D03*
%TO.P,U3,5,Vdd*%
%TO.N,+5V*%
X53525000Y-77135000D03*
%TO.P,U3,6,RST_L*%
%TO.N,Net-(U3-RST_L)*%
X53525000Y-79675000D03*
%TO.P,U3,7,DOUT*%
%TO.N,Net-(U3-DOUT)*%
X53525000Y-82215000D03*
%TO.P,U3,8,EN_H*%
%TO.N,Net-(U3-EN_H)*%
X53525000Y-84755000D03*
%TO.P,U3,9,SCK_F*%
%TO.N,Net-(U3-SCK_F)*%
X53525000Y-87295000D03*
%TO.P,U3,10,SND_H*%
%TO.N,Net-(U3-SND_H)*%
X61145000Y-87295000D03*
%TO.P,U3,11,D8*%
%TO.N,Net-(U3-D8)*%
X61145000Y-84755000D03*
%TO.P,U3,12,D7*%
%TO.N,Net-(U3-D7)*%
X61145000Y-82215000D03*
%TO.P,U3,13,D6*%
%TO.N,Net-(U3-D6)*%
X61145000Y-79675000D03*
%TO.P,U3,14,D5*%
%TO.N,Net-(U3-D5)*%
X61145000Y-77135000D03*
%TO.P,U3,15,D4*%
%TO.N,Net-(U3-D4)*%
X61145000Y-74595000D03*
%TO.P,U3,16,Vss*%
%TO.N,GND_21*%
X61145000Y-72055000D03*
%TO.P,U3,17,D3*%
%TO.N,Net-(U3-D3)*%
X61145000Y-69515000D03*
%TO.P,U3,18,D2*%
%TO.N,Net-(U3-D2)*%
X61145000Y-66975000D03*
%TD*%
D18*
%TO.P,TP103,1,1*%
%TO.N,Net-(R54-E2)*%
X186875000Y-88565000D03*
%TD*%
%TO.P,TP201,1,1*%
%TO.N,35V*%
X77135000Y-96145000D03*
%TD*%
%TO.P,TP205,1,1*%
%TO.N,Net-(D4-A)*%
X77135000Y-87890000D03*
%TD*%
%TO.P,TP202,1,1*%
%TO.N,+15V*%
X39555000Y-64435000D03*
%TD*%
D10*
%TO.P,JP2,1,A*%
%TO.N,Net-(JP2-A)*%
X260015000Y-96145000D03*
D11*
%TO.P,JP2,2,B*%
%TO.N,Net-(JP2-B)*%
X265095000Y-96145000D03*
%TD*%
D19*
%TO.P,R54,1,I1*%
%TO.N,Net-(R54-I1)*%
X181110000Y-76245000D03*
D20*
%TO.P,R54,2,E1*%
%TO.N,Net-(R54-E1)*%
X181110000Y-71240000D03*
%TO.P,R54,3,E2*%
%TO.N,Net-(R54-E2)*%
X181110000Y-53740000D03*
D21*
%TO.P,R54,4,I2*%
%TO.N,Net-(D11-K)*%
X181110000Y-48735000D03*
%TD*%
D14*
%TO.P,D7,1,K*%
%TO.N,Net-(D6-A)*%
X93194724Y-94240000D03*
D15*
%TO.P,D7,2,A*%
%TO.N,-15V*%
X93194724Y-91700000D03*
%TO.P,D7,3*%
%TO.N,unconnected-(D7-Pad3)*%
X91924724Y-92970000D03*
%TD*%
D22*
%TO.P,JP1,1,A*%
%TO.N,GND_2*%
X35110000Y-44115000D03*
D11*
%TO.P,JP1,2,B*%
%TO.N,Net-(J1-Pin_16)*%
X30030000Y-44115000D03*
%TD*%
D18*
%TO.P,TP106,1,1*%
%TO.N,GND_8*%
X108250000Y-55505000D03*
%TD*%
D23*
%TO.P,R56,1,1*%
%TO.N,Net-(Q15-S)*%
X138095000Y-49790000D03*
%TO.P,R56,2,2*%
%TO.N,Net-(Q14-S)*%
X138095000Y-53600000D03*
%TD*%
D18*
%TO.P,TP102,1,1*%
%TO.N,Net-(D10-A)*%
X173540000Y-88565000D03*
%TD*%
D24*
%TO.P,J5,1,1*%
%TO.N,Net-(J5-Pad1)*%
X230825000Y-44750000D03*
D25*
%TO.P,J5,2,2*%
%TO.N,Net-(D10-A)*%
X230825000Y-47290000D03*
%TD*%
D24*
%TO.P,J2,1,1*%
%TO.N,Net-(JP2-B)*%
X264460000Y-77730000D03*
D25*
%TO.P,J2,2,2*%
%TO.N,unconnected-(J2-Pad2)*%
X264460000Y-80270000D03*
%TO.P,J2,3,3*%
%TO.N,unconnected-(J2-Pad3)*%
X264460000Y-82810000D03*
%TO.P,J2,4,4*%
%TO.N,Net-(J2-Pad4)*%
X264460000Y-85350000D03*
%TO.P,J2,5,5*%
%TO.N,unconnected-(J2-Pad5)*%
X264460000Y-87890000D03*
%TO.P,J2,6,6*%
%TO.N,Net-(JP2-A)*%
X264460000Y-90430000D03*
%TD*%
D26*
%TO.P,RL5,1*%
%TO.N,Net-(Q12-D)*%
X213926000Y-95296000D03*
D27*
%TO.P,RL5,2*%
%TO.N,Net-(R55-E2)*%
X219006000Y-95296000D03*
%TO.P,RL5,3*%
%TO.N,Net-(RL2-Pad5)*%
X224086000Y-95296000D03*
%TO.P,RL5,4*%
X229166000Y-95296000D03*
%TO.P,RL5,5*%
%TO.N,Net-(R54-E2)*%
X234246000Y-95296000D03*
%TO.P,RL5,6*%
%TO.N,unconnected-(RL5-Pad6)*%
X239326000Y-95296000D03*
%TO.P,RL5,7*%
%TO.N,unconnected-(RL5-Pad7)*%
X239326000Y-87676000D03*
%TO.P,RL5,8*%
%TO.N,Net-(R54-I1)*%
X234246000Y-87676000D03*
%TO.P,RL5,9*%
%TO.N,Net-(D10-A)*%
X229166000Y-87676000D03*
%TO.P,RL5,10*%
X224086000Y-87676000D03*
%TO.P,RL5,11*%
%TO.N,Net-(R54-I1)*%
X219006000Y-87676000D03*
%TO.P,RL5,12*%
%TO.N,Net-(Q6-E)*%
X213926000Y-87676000D03*
%TD*%
D28*
%TO.P,Q16,1,D*%
%TO.N,Net-(D10-A)*%
X124125000Y-58405000D03*
D29*
%TO.P,Q16,2,S*%
%TO.N,Net-(Q15-S)*%
X125395000Y-57135000D03*
%TO.P,Q16,3,G*%
%TO.N,Net-(Q15-G)*%
X126665000Y-58405000D03*
%TD*%
D18*
%TO.P,TP204,1,1*%
%TO.N,+5V*%
X40190000Y-86660000D03*
%TD*%
D28*
%TO.P,Q14,1,D*%
%TO.N,Net-(D10-A)*%
X131745000Y-79635000D03*
D29*
%TO.P,Q14,2,S*%
%TO.N,Net-(Q14-S)*%
X133015000Y-78365000D03*
%TO.P,Q14,3,G*%
%TO.N,Net-(Q14-G)*%
X134285000Y-79635000D03*
%TD*%
D30*
%TO.P,RL4,1*%
%TO.N,Net-(Q10-D)*%
X154605000Y-90470000D03*
%TO.P,RL4,3*%
%TO.N,unconnected-(RL4-Pad3)*%
X159685000Y-90470000D03*
%TO.P,RL4,4*%
%TO.N,Net-(D10-A)*%
X162225000Y-90470000D03*
%TO.P,RL4,5*%
%TO.N,Net-(R55-I1)*%
X164765000Y-90470000D03*
%TO.P,RL4,8*%
X164765000Y-85390000D03*
%TO.P,RL4,9*%
%TO.N,Net-(D10-A)*%
X162225000Y-85390000D03*
%TO.P,RL4,10*%
%TO.N,unconnected-(RL4-Pad10)*%
X159685000Y-85390000D03*
%TO.P,RL4,12*%
%TO.N,Net-(Q4-E)*%
X154605000Y-85390000D03*
%TD*%
D18*
%TO.P,TP105,1,1*%
%TO.N,Net-(D8-A)*%
X105075000Y-77095000D03*
%TD*%
%TO.P,TP104,1,1*%
%TO.N,Net-(R55-E2)*%
X195130000Y-88565000D03*
%TD*%
D23*
%TO.P,R58,1,1*%
%TO.N,Net-(R55-E1)*%
X149525000Y-49790000D03*
%TO.P,R58,2,2*%
%TO.N,Net-(R57-Pad1)*%
X149525000Y-53600000D03*
%TD*%
D28*
%TO.P,Q15,1,D*%
%TO.N,Net-(D10-A)*%
X123490000Y-64755000D03*
D29*
%TO.P,Q15,2,S*%
%TO.N,Net-(Q15-S)*%
X124760000Y-63485000D03*
%TO.P,Q15,3,G*%
%TO.N,Net-(Q15-G)*%
X126030000Y-64755000D03*
%TD*%
D24*
%TO.P,J3,1,1*%
%TO.N,Net-(JP3-A)*%
X264460000Y-49790000D03*
D25*
%TO.P,J3,2,2*%
%TO.N,unconnected-(J3-Pad2)*%
X264460000Y-52330000D03*
%TO.P,J3,3,3*%
%TO.N,unconnected-(J3-Pad3)*%
X264460000Y-54870000D03*
%TO.P,J3,4,4*%
%TO.N,Net-(JP3-B)*%
X264460000Y-57410000D03*
%TD*%
D14*
%TO.P,D6,1,K*%
%TO.N,+15V*%
X86025000Y-91700000D03*
D15*
%TO.P,D6,2,A*%
%TO.N,Net-(D6-A)*%
X86025000Y-94240000D03*
%TO.P,D6,3*%
%TO.N,unconnected-(D6-Pad3)*%
X87295000Y-92970000D03*
%TD*%
D31*
%TO.P,R55,1,I1*%
%TO.N,Net-(R55-I1)*%
X162745000Y-57450000D03*
D32*
%TO.P,R55,2,E1*%
%TO.N,Net-(R55-E1)*%
X165285000Y-57450000D03*
%TO.P,R55,3,E2*%
%TO.N,Net-(R55-E2)*%
X167825000Y-57450000D03*
%TO.P,R55,4,I2*%
%TO.N,Net-(R54-E1)*%
X170365000Y-57450000D03*
%TD*%
D23*
%TO.P,R57,1,1*%
%TO.N,Net-(R57-Pad1)*%
X143810000Y-53600000D03*
%TO.P,R57,2,2*%
%TO.N,Net-(Q15-S)*%
X143810000Y-49790000D03*
%TD*%
D26*
%TO.P,RL2,1*%
%TO.N,Net-(D4-A)*%
X228900000Y-80905000D03*
D27*
%TO.P,RL2,2*%
%TO.N,GND_8*%
X233980000Y-80905000D03*
%TO.P,RL2,3*%
%TO.N,Net-(R47-Pad2)*%
X239060000Y-80905000D03*
%TO.P,RL2,4*%
%TO.N,Net-(J2-Pad4)*%
X244140000Y-80905000D03*
%TO.P,RL2,5*%
%TO.N,Net-(RL2-Pad5)*%
X249220000Y-80905000D03*
%TO.P,RL2,6*%
%TO.N,unconnected-(RL2-Pad6)*%
X254300000Y-80905000D03*
%TO.P,RL2,7*%
%TO.N,unconnected-(RL2-Pad7)*%
X254300000Y-73285000D03*
%TO.P,RL2,8*%
%TO.N,Net-(RL2-Pad5)*%
X249220000Y-73285000D03*
%TO.P,RL2,9*%
%TO.N,Net-(J4-Pad1)*%
X244140000Y-73285000D03*
%TO.P,RL2,10*%
%TO.N,Net-(R47-Pad2)*%
X239060000Y-73285000D03*
%TO.P,RL2,11*%
%TO.N,GND_2*%
X233980000Y-73285000D03*
%TO.P,RL2,12*%
%TO.N,Net-(U1-O2)*%
X228900000Y-73285000D03*
%TD*%
D26*
%TO.P,RL1,1*%
%TO.N,Net-(D4-A)*%
X228900000Y-63125000D03*
D27*
%TO.P,RL1,2*%
%TO.N,Net-(M1-Pad2)*%
X233980000Y-63125000D03*
%TO.P,RL1,3*%
%TO.N,Net-(J5-Pad1)*%
X239060000Y-63125000D03*
%TO.P,RL1,4*%
%TO.N,Net-(JP2-A)*%
X244140000Y-63125000D03*
%TO.P,RL1,5*%
%TO.N,Net-(D11-K)*%
X249220000Y-63125000D03*
%TO.P,RL1,6*%
%TO.N,unconnected-(RL1-Pad6)*%
X254300000Y-63125000D03*
%TO.P,RL1,7*%
%TO.N,unconnected-(RL1-Pad7)*%
X254300000Y-55505000D03*
%TO.P,RL1,8*%
%TO.N,Net-(JP3-A)*%
X249220000Y-55505000D03*
%TO.P,RL1,9*%
%TO.N,Net-(RL1-Pad10)*%
X244140000Y-55505000D03*
%TO.P,RL1,10*%
X239060000Y-55505000D03*
%TO.P,RL1,11*%
%TO.N,Net-(J5-Pad1)*%
X233980000Y-55505000D03*
%TO.P,RL1,12*%
%TO.N,Net-(U1-O1)*%
X228900000Y-55505000D03*
%TD*%
D30*
%TO.P,RL3,1*%
%TO.N,Net-(Q8-D)*%
X129090000Y-90470000D03*
%TO.P,RL3,3*%
%TO.N,unconnected-(RL3-Pad3)*%
X134170000Y-90470000D03*
%TO.P,RL3,4*%
%TO.N,Net-(D10-A)*%
X136710000Y-90470000D03*
%TO.P,RL3,5*%
%TO.N,Net-(R57-Pad1)*%
X139250000Y-90470000D03*
%TO.P,RL3,8*%
X139250000Y-85390000D03*
%TO.P,RL3,9*%
%TO.N,Net-(D10-A)*%
X136710000Y-85390000D03*
%TO.P,RL3,10*%
%TO.N,unconnected-(RL3-Pad10)*%
X134170000Y-85390000D03*
%TO.P,RL3,12*%
%TO.N,Net-(Q2-E)*%
X129090000Y-85390000D03*
%TD*%
D18*
%TO.P,TP203,1,1*%
%TO.N,-15V*%
X30665000Y-51735000D03*
%TD*%
%TO.P,TP101,1,1*%
%TO.N,Net-(J4-Pad2)*%
X255455000Y-86025000D03*
%TD*%
D24*
%TO.P,J4,1,1*%
%TO.N,Net-(J4-Pad1)*%
X264460000Y-65030000D03*
D25*
%TO.P,J4,2,2*%
%TO.N,Net-(J4-Pad2)*%
X264460000Y-67570000D03*
%TO.P,J4,3,3*%
%TO.N,unconnected-(J4-Pad3)*%
X264460000Y-70110000D03*
%TD*%
D33*
%TO.N,+5V*%
X112187000Y-86935000D03*
X56065000Y-74595000D03*
X89835000Y-84080000D03*
%TO.N,GND_21*%
X112187000Y-85035000D03*
D34*
X30420000Y-88565000D03*
D33*
X111425000Y-92535000D03*
%TO.N,+15V*%
X120315000Y-58680000D03*
X215565000Y-61577500D03*
X110155000Y-86935000D03*
X108455249Y-43480000D03*
X97455000Y-86620000D03*
X113330000Y-58995000D03*
X103690000Y-43480000D03*
X86861000Y-87054000D03*
X57081000Y-52878000D03*
X203500000Y-49790000D03*
%TO.N,-15V*%
X93338681Y-87890000D03*
X68765000Y-76500000D03*
X110040000Y-96820000D03*
X110155000Y-92535000D03*
X103805000Y-87890000D03*
X34865000Y-51735000D03*
X117775000Y-65980000D03*
X110177018Y-90791000D03*
%TO.N,Net-(D4-A)*%
X91740000Y-61855000D03*
X95550000Y-61855000D03*
X81580000Y-49790000D03*
X190722500Y-46692500D03*
X99360000Y-61855000D03*
X225090000Y-47250000D03*
D34*
X87041000Y-77095000D03*
D33*
%TO.N,Net-(D6-A)*%
X112695000Y-94240000D03*
X108885000Y-94175000D03*
D34*
%TO.N,Net-(D10-A)*%
X212390000Y-48930000D03*
X219375000Y-55730000D03*
%TO.N,Net-(D11-K)*%
X212390000Y-78590000D03*
X219375000Y-71790000D03*
D33*
%TO.N,Net-(D15-K)*%
X121585000Y-79000000D03*
X121585000Y-54870000D03*
D34*
%TO.N,35V*%
X80625000Y-86620000D03*
D33*
%TO.N,Net-(J1-Pin_5)*%
X39555000Y-74595000D03*
X73960000Y-87930000D03*
%TO.N,Net-(J4-Pad2)*%
X172905000Y-98725000D03*
D34*
X120835000Y-95550000D03*
D33*
X239580000Y-98725000D03*
%TO.N,Net-(J4-Pad1)*%
X268905000Y-73920000D03*
X244025000Y-77770000D03*
X244140000Y-59950000D03*
%TO.N,unconnected-(J4-Pad3)*%
X268270000Y-60585000D03*
%TO.N,Net-(M1-Pad2)*%
X107615000Y-96145000D03*
D35*
X201595000Y-78365000D03*
D33*
X105093911Y-96989741D03*
D35*
X198420000Y-81540000D03*
X210485000Y-64395000D03*
X215565000Y-64395000D03*
D33*
%TO.N,/Control Logic/Fuse_Test*%
X65590000Y-87017500D03*
D34*
X65590000Y-91105000D03*
D33*
%TO.N,/Control Logic/ISB1*%
X94915000Y-94480000D03*
X94915000Y-85985000D03*
X113965000Y-97415000D03*
X112095045Y-98126000D03*
%TO.N,/Control Logic/100uA*%
X69400000Y-87017500D03*
X69400000Y-92375000D03*
X69400000Y-98725000D03*
X115235000Y-89225000D03*
%TO.N,/Control Logic/1mA*%
X106345000Y-89225000D03*
X103805000Y-89160000D03*
X67495000Y-90270000D03*
X67495000Y-87017500D03*
%TO.N,Net-(U1-I1)*%
X82596000Y-74555000D03*
X82596000Y-68205000D03*
%TO.N,Net-(U3-DRET)*%
X45590000Y-79802000D03*
%TO.N,Net-(U1-O1)*%
X90089000Y-66808000D03*
%TO.N,Net-(U1-O2)*%
X91867000Y-67158033D03*
%TO.N,Net-(Q2-E)*%
X73682500Y-47885000D03*
X92370000Y-54870000D03*
%TO.N,Net-(Q4-E)*%
X84162500Y-47885000D03*
X101175419Y-55328419D03*
X154605000Y-46455000D03*
X96180000Y-54870000D03*
%TO.N,Net-(Q6-E)*%
X196276744Y-57171744D03*
X94637500Y-47885000D03*
X99990000Y-54870000D03*
%TO.N,Net-(Q8-D)*%
X78105000Y-45980000D03*
%TO.N,Net-(Q10-D)*%
X88646000Y-45980000D03*
X103805000Y-54235000D03*
X153335000Y-46455000D03*
%TO.N,Net-(Q12-D)*%
X195245000Y-55505000D03*
%TO.N,Net-(U3-DOUT)*%
X50350000Y-71420000D03*
X45590000Y-73706000D03*
%TO.N,Net-(U3-ERR_L)*%
X45590000Y-77770000D03*
%TO.N,Net-(U3-EN_H)*%
X45590000Y-75738000D03*
%TO.N,Net-(U3-SCK_F)*%
X45590000Y-81834000D03*
%TO.N,GND_2*%
X122855000Y-72015000D03*
X103690000Y-41829000D03*
D34*
X202230000Y-46615000D03*
D33*
X209215000Y-68840000D03*
X125395000Y-84080000D03*
X117775000Y-64080000D03*
D34*
X215565000Y-68840000D03*
D33*
X117502065Y-60312065D03*
X111940000Y-96820000D03*
X117140000Y-84080000D03*
%TO.N,GND_8*%
X225725000Y-82610000D03*
X142425000Y-61895000D03*
X142817500Y-79635000D03*
D34*
X113965000Y-63760000D03*
D35*
X225725000Y-63760000D03*
%TD*%
D36*
%TO.N,+5V*%
X35745000Y-73960000D02*
X35745000Y-82215000D01*
X33840000Y-72055000D02*
X35745000Y-73960000D01*
D37*
X63367500Y-73007500D02*
X63367500Y-71737500D01*
X113330000Y-85792000D02*
X113330000Y-84715000D01*
X59860000Y-70800000D02*
X56065000Y-74595000D01*
X62430000Y-70800000D02*
X59860000Y-70800000D01*
X112695000Y-84080000D02*
X89835000Y-84080000D01*
X112187000Y-86935000D02*
X113330000Y-85792000D01*
D36*
X33205000Y-72055000D02*
X33840000Y-72055000D01*
D37*
X63367500Y-71737500D02*
X62430000Y-70800000D01*
D36*
X35745000Y-82215000D02*
X40190000Y-86660000D01*
D37*
X89835000Y-84080000D02*
X74440000Y-84080000D01*
X74440000Y-84080000D02*
X63367500Y-73007500D01*
X113330000Y-84715000D02*
X112695000Y-84080000D01*
D36*
%TO.N,GND_21*%
X27136000Y-74314000D02*
X27136000Y-85281000D01*
X30665000Y-72055000D02*
X29395000Y-72055000D01*
X27136000Y-85281000D02*
X30420000Y-88565000D01*
D37*
X94327717Y-85390000D02*
X74480000Y-85390000D01*
X111351000Y-85871000D02*
X111351000Y-92461000D01*
D36*
X29395000Y-72055000D02*
X27136000Y-74314000D01*
D37*
X95462283Y-85350000D02*
X95261283Y-85149000D01*
X112187000Y-85035000D02*
X111351000Y-85871000D01*
X95261283Y-85149000D02*
X94568717Y-85149000D01*
X112187000Y-85035000D02*
X111872000Y-85350000D01*
X111351000Y-92461000D02*
X111425000Y-92535000D01*
X74480000Y-85390000D02*
X61145000Y-72055000D01*
X94568717Y-85149000D02*
X94327717Y-85390000D01*
X111872000Y-85350000D02*
X95462283Y-85350000D01*
%TO.N,+15V*%
X86861000Y-87054000D02*
X86025000Y-87890000D01*
X119680000Y-59315000D02*
X113650000Y-59315000D01*
X215287500Y-61577500D02*
X215565000Y-61577500D01*
X86025000Y-87890000D02*
X86025000Y-91700000D01*
X67495000Y-43480000D02*
X103690000Y-43480000D01*
X203500000Y-49790000D02*
X215287500Y-61577500D01*
X109840000Y-86620000D02*
X110155000Y-86935000D01*
X97455000Y-86620000D02*
X109840000Y-86620000D01*
X110675000Y-56340000D02*
X113330000Y-58995000D01*
X108455249Y-43480000D02*
X110675000Y-45699751D01*
X113650000Y-59315000D02*
X113330000Y-58995000D01*
X58097000Y-52878000D02*
X67495000Y-43480000D01*
X57081000Y-52878000D02*
X58097000Y-52878000D01*
X110675000Y-45699751D02*
X110675000Y-56340000D01*
X120315000Y-58680000D02*
X119680000Y-59315000D01*
%TO.N,-15V*%
X93010000Y-91515276D02*
X93194724Y-91700000D01*
X93010000Y-88218681D02*
X93010000Y-91515276D01*
D36*
X27490000Y-63165000D02*
X27490000Y-54910000D01*
D37*
X93338681Y-87890000D02*
X93010000Y-88218681D01*
X48079838Y-51735000D02*
X34865000Y-51735000D01*
X108049000Y-88959000D02*
X106980000Y-87890000D01*
D36*
X28760000Y-64435000D02*
X27490000Y-63165000D01*
X27490000Y-54910000D02*
X30665000Y-51735000D01*
D37*
X108049000Y-94829000D02*
X108049000Y-88959000D01*
X64955000Y-68610162D02*
X48079838Y-51735000D01*
X106980000Y-87890000D02*
X103805000Y-87890000D01*
X117775000Y-76460000D02*
X117775000Y-65980000D01*
X110155000Y-92535000D02*
X110155000Y-90813018D01*
D36*
X30665000Y-64435000D02*
X28760000Y-64435000D01*
D37*
X68765000Y-76500000D02*
X64955000Y-72690000D01*
X64955000Y-72690000D02*
X64955000Y-68610162D01*
X110040000Y-96820000D02*
X108049000Y-94829000D01*
X113965000Y-80270000D02*
X117775000Y-76460000D01*
X98725000Y-80270000D02*
X113965000Y-80270000D01*
X110155000Y-90813018D02*
X110177018Y-90791000D01*
D36*
%TO.N,Net-(D4-A)*%
X87041000Y-77095000D02*
X87041000Y-66554000D01*
D37*
X228900000Y-63125000D02*
X230805000Y-65030000D01*
X190722500Y-46692500D02*
X192705000Y-44710000D01*
X81580000Y-49790000D02*
X89200000Y-57410000D01*
X192705000Y-44710000D02*
X222550000Y-44710000D01*
X222550000Y-44710000D02*
X225090000Y-47250000D01*
D36*
X87041000Y-66554000D02*
X89200000Y-64395000D01*
X89200000Y-64395000D02*
X91740000Y-61855000D01*
D37*
X230805000Y-65030000D02*
X230805000Y-79000000D01*
X230805000Y-79000000D02*
X228900000Y-80905000D01*
D36*
X99360000Y-61855000D02*
X95550000Y-61855000D01*
X95550000Y-61855000D02*
X91740000Y-61855000D01*
D37*
X89200000Y-57410000D02*
X89200000Y-64395000D01*
%TO.N,Net-(D6-A)*%
X112695000Y-94240000D02*
X108950000Y-94240000D01*
X108950000Y-94240000D02*
X108885000Y-94175000D01*
D38*
%TO.N,Net-(D10-A)*%
X221546000Y-90216000D02*
X221546000Y-96439000D01*
D37*
X123490000Y-71380000D02*
X131745000Y-79635000D01*
D38*
X222385000Y-55730000D02*
X230825000Y-47290000D01*
X164464561Y-93327500D02*
X178302500Y-93327500D01*
X224086000Y-60441000D02*
X219375000Y-55730000D01*
X162225000Y-91087939D02*
X164464561Y-93327500D01*
X219375000Y-55730000D02*
X222385000Y-55730000D01*
D37*
X123490000Y-59040000D02*
X124125000Y-58405000D01*
D38*
X136710000Y-90470000D02*
X136710000Y-85390000D01*
X224086000Y-87676000D02*
X221546000Y-90216000D01*
X136710000Y-91566015D02*
X138471485Y-93327500D01*
X138471485Y-93327500D02*
X164464561Y-93327500D01*
X162225000Y-90470000D02*
X162225000Y-91087939D01*
X221546000Y-96439000D02*
X219895000Y-98090000D01*
X212390000Y-48930000D02*
X212575000Y-48930000D01*
X212575000Y-48930000D02*
X219375000Y-55730000D01*
X136710000Y-90470000D02*
X136710000Y-91566015D01*
D37*
X136825000Y-84715000D02*
X136825000Y-89795000D01*
X123490000Y-64755000D02*
X123490000Y-59040000D01*
D38*
X178302500Y-93327500D02*
X173540000Y-88565000D01*
X224086000Y-87676000D02*
X224086000Y-60441000D01*
X183065000Y-98090000D02*
X178302500Y-93327500D01*
D37*
X131745000Y-79635000D02*
X136825000Y-84715000D01*
X123490000Y-64755000D02*
X123490000Y-71380000D01*
D38*
X162225000Y-90470000D02*
X162225000Y-85390000D01*
X219895000Y-98090000D02*
X183065000Y-98090000D01*
%TO.N,Net-(D11-K)*%
X205630000Y-78590000D02*
X212390000Y-78590000D01*
X181110000Y-48735000D02*
X195460000Y-48735000D01*
X198420000Y-51695000D02*
X198420000Y-71380000D01*
X195460000Y-48735000D02*
X198420000Y-51695000D01*
X212390000Y-78590000D02*
X212575000Y-78590000D01*
X198420000Y-71380000D02*
X205630000Y-78590000D01*
X212575000Y-78590000D02*
X219375000Y-71790000D01*
D37*
%TO.N,Net-(D15-K)*%
X121585000Y-79000000D02*
X121585000Y-54870000D01*
D36*
%TO.N,35V*%
X77135000Y-96145000D02*
X56025000Y-96145000D01*
X80625000Y-86620000D02*
X80625000Y-92655000D01*
X38285000Y-66975000D02*
X33205000Y-61895000D01*
X38285000Y-78405000D02*
X38285000Y-66975000D01*
X80625000Y-92655000D02*
X77135000Y-96145000D01*
X56025000Y-96145000D02*
X38285000Y-78405000D01*
D37*
%TO.N,Net-(J1-Pin_5)*%
X73960000Y-90355000D02*
X70670000Y-93645000D01*
X56218717Y-93645000D02*
X39555000Y-76981283D01*
X73960000Y-87930000D02*
X73960000Y-90355000D01*
X70670000Y-93645000D02*
X56218717Y-93645000D01*
X39555000Y-76981283D02*
X39555000Y-74595000D01*
D38*
%TO.N,Net-(JP2-A)*%
X249220000Y-68205000D02*
X244140000Y-63125000D01*
X255570000Y-68205000D02*
X249220000Y-68205000D01*
X260015000Y-72650000D02*
X255570000Y-68205000D01*
X260015000Y-90430000D02*
X260015000Y-72650000D01*
X260015000Y-90430000D02*
X264460000Y-90430000D01*
X260015000Y-96145000D02*
X260015000Y-90430000D01*
D37*
%TO.N,Net-(J4-Pad2)*%
X172905000Y-98725000D02*
X124010000Y-98725000D01*
X246045000Y-86620000D02*
X241485000Y-91180000D01*
X241485000Y-96820000D02*
X239580000Y-98725000D01*
X241485000Y-91180000D02*
X241485000Y-96820000D01*
X124010000Y-98725000D02*
X120835000Y-95550000D01*
X255455000Y-86620000D02*
X246045000Y-86620000D01*
D39*
%TO.N,Net-(J4-Pad1)*%
X245803000Y-79040000D02*
X244025000Y-79040000D01*
X267000000Y-67570000D02*
X267000000Y-73920000D01*
X246045000Y-61220000D02*
X246045000Y-62490000D01*
X242235000Y-63760000D02*
X242235000Y-61220000D01*
X246045000Y-62490000D02*
X249855000Y-66300000D01*
X268905000Y-75825000D02*
X268905000Y-98685000D01*
X258110000Y-73285000D02*
X257475000Y-72650000D01*
X242235000Y-61220000D02*
X244140000Y-61220000D01*
X244140000Y-61220000D02*
X246045000Y-61220000D01*
X244140000Y-61220000D02*
X244140000Y-59950000D01*
X244025000Y-77770000D02*
X244025000Y-79040000D01*
X244025000Y-79040000D02*
X242475600Y-79040000D01*
X261920000Y-75825000D02*
X267000000Y-75825000D01*
X264460000Y-65030000D02*
X267000000Y-67570000D01*
X254935000Y-70110000D02*
X248585000Y-70110000D01*
X267000000Y-75825000D02*
X268905000Y-75825000D01*
X248585000Y-70110000D02*
X242235000Y-63760000D01*
X245803000Y-82850000D02*
X245803000Y-79040000D01*
X256205000Y-66300000D02*
X261920000Y-72015000D01*
X242475600Y-79040000D02*
X242475600Y-82850000D01*
X249855000Y-66300000D02*
X256205000Y-66300000D01*
X268905000Y-98685000D02*
X258110000Y-98685000D01*
X257475000Y-72650000D02*
X254935000Y-70110000D01*
X267000000Y-73920000D02*
X267000000Y-75825000D01*
X267000000Y-73920000D02*
X268905000Y-73920000D01*
X242475600Y-82850000D02*
X245803000Y-82850000D01*
X261920000Y-72015000D02*
X261920000Y-75825000D01*
X258110000Y-98685000D02*
X258110000Y-73285000D01*
%TO.N,unconnected-(J4-Pad3)*%
X258110000Y-47885000D02*
X254225000Y-47885000D01*
X260650000Y-59315000D02*
X268270000Y-59315000D01*
X256130000Y-51695000D02*
X260650000Y-51695000D01*
X251125000Y-57410000D02*
X251125000Y-56700000D01*
X254225000Y-47885000D02*
X247315000Y-54795000D01*
X260650000Y-51695000D02*
X260650000Y-59315000D01*
X247315000Y-54795000D02*
X247315000Y-57410000D01*
X268270000Y-60585000D02*
X268270000Y-59315000D01*
X270810000Y-59315000D02*
X270810000Y-41535000D01*
X258110000Y-41535000D02*
X258110000Y-47885000D01*
X247315000Y-57410000D02*
X251125000Y-57410000D01*
X270810000Y-41535000D02*
X258110000Y-41535000D01*
X251125000Y-56700000D02*
X256130000Y-51695000D01*
X268270000Y-59315000D02*
X270810000Y-59315000D01*
D37*
%TO.N,Net-(M1-Pad2)*%
X105093911Y-96989741D02*
X105109762Y-96973890D01*
X107335109Y-96973890D02*
X107615000Y-96693999D01*
X198420000Y-81540000D02*
X201595000Y-78365000D01*
X105109762Y-96973890D02*
X107335109Y-96973890D01*
X210485000Y-64395000D02*
X215565000Y-64395000D01*
X107615000Y-96693999D02*
X107615000Y-96145000D01*
%TO.N,/Control Logic/Fuse_Test*%
X65590000Y-91105000D02*
X65590000Y-87017500D01*
%TO.N,/Control Logic/ISB1*%
X112095045Y-98126000D02*
X113254000Y-98126000D01*
X113254000Y-98126000D02*
X113965000Y-97415000D01*
X94915000Y-85985000D02*
X94915000Y-94480000D01*
%TO.N,/Control Logic/100uA*%
X69400000Y-92375000D02*
X69400000Y-87017500D01*
X69920000Y-99245000D02*
X69400000Y-98725000D01*
X115235000Y-89225000D02*
X115235000Y-97327283D01*
X115235000Y-97327283D02*
X113317283Y-99245000D01*
X107797392Y-99245000D02*
X69920000Y-99245000D01*
X113317283Y-99245000D02*
X107797392Y-99245000D01*
%TO.N,/Control Logic/1mA*%
X106280000Y-89160000D02*
X106345000Y-89225000D01*
X67495000Y-90270000D02*
X67495000Y-87017500D01*
X103805000Y-89160000D02*
X106280000Y-89160000D01*
%TO.N,Net-(Q15-G)*%
X126030000Y-64755000D02*
X126665000Y-64120000D01*
X126665000Y-64120000D02*
X126665000Y-58405000D01*
D39*
%TO.N,Net-(U1-I1)*%
X82596000Y-74555000D02*
X82596000Y-68205000D01*
%TO.N,Net-(U3-DRET)*%
X51813000Y-86025000D02*
X54795000Y-86025000D01*
X54795000Y-86025000D02*
X56065000Y-84755000D01*
X56065000Y-84755000D02*
X56065000Y-77135000D01*
X56065000Y-77135000D02*
X53525000Y-74595000D01*
X45590000Y-79802000D02*
X51813000Y-86025000D01*
D37*
%TO.N,Net-(U1-O1)*%
X233865000Y-50540000D02*
X228900000Y-55505000D01*
X90089000Y-66808000D02*
X90597000Y-66300000D01*
X233865000Y-42845000D02*
X233865000Y-50540000D01*
X105001000Y-62564000D02*
X105001000Y-43439000D01*
X106992000Y-41448000D02*
X232468000Y-41448000D01*
X90597000Y-66300000D02*
X101265000Y-66300000D01*
X105001000Y-43439000D02*
X106992000Y-41448000D01*
X101265000Y-66300000D02*
X105001000Y-62564000D01*
X232468000Y-41448000D02*
X233865000Y-42845000D01*
%TO.N,Net-(U1-O2)*%
X105710000Y-44000000D02*
X107500000Y-42210000D01*
X105710000Y-62857677D02*
X105710000Y-62857678D01*
X226995000Y-54235000D02*
X226995000Y-71380000D01*
X226995000Y-71380000D02*
X228900000Y-73285000D01*
X91867000Y-67158033D02*
X101676967Y-67158033D01*
X232595000Y-48635000D02*
X226995000Y-54235000D01*
X232595000Y-43480000D02*
X232595000Y-48635000D01*
X231325000Y-42210000D02*
X232595000Y-43480000D01*
X107500000Y-42210000D02*
X231325000Y-42210000D01*
X105710000Y-62857677D02*
X105710000Y-44000000D01*
X105710000Y-63125000D02*
X105710000Y-62857677D01*
X101676967Y-67158033D02*
X105710000Y-63125000D01*
%TO.N,Net-(Q14-S)*%
X133015000Y-78365000D02*
X131110000Y-76460000D01*
X131110000Y-63760000D02*
X138095000Y-56775000D01*
X138095000Y-56775000D02*
X138095000Y-53600000D01*
X131110000Y-76460000D02*
X131110000Y-63760000D01*
%TO.N,Net-(Q15-S)*%
X130750000Y-57135000D02*
X138095000Y-49790000D01*
X125395000Y-57135000D02*
X130750000Y-57135000D01*
X124760000Y-63485000D02*
X125395000Y-62850000D01*
X125395000Y-62850000D02*
X125395000Y-57135000D01*
%TO.N,Net-(Q2-E)*%
X82215000Y-47885000D02*
X73682500Y-47885000D01*
X92370000Y-54870000D02*
X92364000Y-54864000D01*
X89194000Y-54864000D02*
X82215000Y-47885000D01*
X69589000Y-49155000D02*
X70859000Y-47885000D01*
X124800000Y-85390000D02*
X129090000Y-85390000D01*
X92364000Y-54864000D02*
X89194000Y-54864000D01*
X120735000Y-81325000D02*
X76285000Y-81325000D01*
X70859000Y-47885000D02*
X73682500Y-47885000D01*
X120735000Y-81325000D02*
X124800000Y-85390000D01*
X69589000Y-74629000D02*
X69589000Y-49155000D01*
X76285000Y-81325000D02*
X69589000Y-74629000D01*
%TO.N,Net-(Q4-E)*%
X98304000Y-54870000D02*
X96180000Y-54870000D01*
X84162500Y-47885000D02*
X88398000Y-47885000D01*
X88398000Y-47885000D02*
X95383000Y-54870000D01*
X95383000Y-54870000D02*
X96180000Y-54870000D01*
X101175419Y-55328419D02*
X100750838Y-55753000D01*
X100750838Y-55753000D02*
X99187000Y-55753000D01*
X154605000Y-85390000D02*
X154605000Y-46455000D01*
X99187000Y-55753000D02*
X98304000Y-54870000D01*
%TO.N,Net-(Q6-E)*%
X195954000Y-81881322D02*
X201748678Y-87676000D01*
X196000000Y-71334000D02*
X195954000Y-71380000D01*
X196276744Y-57171744D02*
X196000000Y-57448489D01*
X94637500Y-47885000D02*
X94637500Y-48592500D01*
X196000000Y-57448489D02*
X196000000Y-71334000D01*
X99990000Y-53945000D02*
X99990000Y-54870000D01*
X94637500Y-48592500D02*
X99990000Y-53945000D01*
X201748678Y-87676000D02*
X213926000Y-87676000D01*
X195954000Y-71380000D02*
X195954000Y-81881322D01*
%TO.N,Net-(Q8-D)*%
X70785000Y-45980000D02*
X68880000Y-47885000D01*
X119525000Y-82810000D02*
X127185000Y-90470000D01*
X68880000Y-47885000D02*
X68880000Y-75190000D01*
X127185000Y-90470000D02*
X129090000Y-90470000D01*
X68880000Y-75190000D02*
X76500000Y-82810000D01*
X78105000Y-45980000D02*
X70785000Y-45980000D01*
X76500000Y-82810000D02*
X119525000Y-82810000D01*
%TO.N,Net-(Q10-D)*%
X153335000Y-46455000D02*
X153335000Y-89200000D01*
X95550000Y-45980000D02*
X103805000Y-54235000D01*
X153335000Y-89200000D02*
X154605000Y-90470000D01*
X88646000Y-45980000D02*
X95550000Y-45980000D01*
%TO.N,Net-(Q12-D)*%
X208366000Y-95296000D02*
X195245000Y-82175000D01*
X213926000Y-95296000D02*
X208366000Y-95296000D01*
X195245000Y-82175000D02*
X195245000Y-55505000D01*
%TO.N,Net-(R47-Pad2)*%
X239060000Y-73285000D02*
X239060000Y-80905000D01*
D38*
%TO.N,Net-(R54-E1)*%
X170365000Y-57450000D02*
X170365000Y-60495000D01*
X170365000Y-60495000D02*
X181110000Y-71240000D01*
D37*
%TO.N,Net-(R54-E2)*%
X186875000Y-59505000D02*
X186875000Y-88565000D01*
X181110000Y-53740000D02*
X186875000Y-59505000D01*
%TO.N,Net-(R55-E2)*%
X183815000Y-51695000D02*
X187625000Y-55505000D01*
X187625000Y-55505000D02*
X187625000Y-81060000D01*
X187625000Y-81060000D02*
X195130000Y-88565000D01*
X173580000Y-51695000D02*
X183815000Y-51695000D01*
X167825000Y-57450000D02*
X173580000Y-51695000D01*
D38*
%TO.N,Net-(R55-I1)*%
X164765000Y-85390000D02*
X164765000Y-84275000D01*
X162745000Y-82255000D02*
X162745000Y-57450000D01*
X164765000Y-90470000D02*
X164765000Y-85390000D01*
X164765000Y-88680000D02*
X164765000Y-84275000D01*
X164765000Y-84275000D02*
X162745000Y-82255000D01*
%TO.N,Net-(R57-Pad1)*%
X139885000Y-57525000D02*
X139885000Y-84755000D01*
X143810000Y-53600000D02*
X139885000Y-57525000D01*
X139250000Y-90470000D02*
X139250000Y-85390000D01*
X139885000Y-84755000D02*
X139250000Y-85390000D01*
D37*
%TO.N,Net-(RL2-Pad5)*%
X238258000Y-91867000D02*
X249220000Y-80905000D01*
X229166000Y-95296000D02*
X232595000Y-91867000D01*
X249220000Y-73285000D02*
X249220000Y-80905000D01*
X232595000Y-91867000D02*
X238258000Y-91867000D01*
X229166000Y-95296000D02*
X224086000Y-95296000D01*
D39*
%TO.N,Net-(U3-DOUT)*%
X50350000Y-71420000D02*
X47876000Y-71420000D01*
X47876000Y-71420000D02*
X45590000Y-73706000D01*
%TO.N,Net-(U3-ERR_L)*%
X51305000Y-72055000D02*
X53525000Y-72055000D01*
X45590000Y-77770000D02*
X51305000Y-72055000D01*
%TO.N,Net-(U3-EN_H)*%
X45285801Y-78504400D02*
X47274400Y-78504400D01*
X45590000Y-75738000D02*
X44855600Y-76472400D01*
X44855600Y-76472400D02*
X44855600Y-78074199D01*
X47274400Y-78504400D02*
X53525000Y-84755000D01*
X44855600Y-78074199D02*
X45285801Y-78504400D01*
%TO.N,Net-(U3-SCK_F)*%
X51051000Y-87295000D02*
X53525000Y-87295000D01*
X45590000Y-81834000D02*
X51051000Y-87295000D01*
D37*
%TO.N,GND_2*%
X45651000Y-41067000D02*
X102928000Y-41067000D01*
X122855000Y-81540000D02*
X122855000Y-72015000D01*
X113965000Y-94795000D02*
X111940000Y-96820000D01*
X113965000Y-87255000D02*
X113965000Y-94795000D01*
X117502065Y-63807065D02*
X117775000Y-64080000D01*
X102928000Y-41067000D02*
X103690000Y-41829000D01*
X125395000Y-84080000D02*
X122855000Y-81540000D01*
X117502065Y-60312065D02*
X117502065Y-63807065D01*
X38158000Y-41067000D02*
X45651000Y-41067000D01*
X117140000Y-84080000D02*
X113965000Y-87255000D01*
X35110000Y-44115000D02*
X38158000Y-41067000D01*
X202230000Y-61855000D02*
X209215000Y-68840000D01*
X202230000Y-46615000D02*
X202230000Y-61855000D01*
X209215000Y-68840000D02*
X215565000Y-68840000D01*
%TO.N,GND_8*%
X113965000Y-63760000D02*
X108250000Y-58045000D01*
X142817500Y-79635000D02*
X142425000Y-79242500D01*
X225725000Y-63760000D02*
X225725000Y-82610000D01*
X108250000Y-58045000D02*
X108250000Y-55505000D01*
X142425000Y-79242500D02*
X142425000Y-61895000D01*
%TD*%
M02*
