%TF.GenerationSoftware,KiCad,Pcbnew,9.0.7*%
%TF.CreationDate,2026-03-05T17:42:54+01:00*%
%TF.ProjectId,Datron 1281 Strom Option,44617472-6f6e-4203-9132-383120537472,1*%
%TF.SameCoordinates,Original*%
%TF.FileFunction,Paste,Top*%
%TF.FilePolarity,Positive*%
%FSLAX46Y46*%
G04 Gerber Fmt 4.6, Leading zero omitted, Abs format (unit mm)*
G04 Created by KiCad (PCBNEW 9.0.7) date 2026-03-05 17:42:54*
%MOMM*%
%LPD*%
G01*
G04 APERTURE LIST*
G04 Aperture macros list*
%AMRoundRect*
0 Rectangle with rounded corners*
0 $1 Rounding radius*
0 $2 $3 $4 $5 $6 $7 $8 $9 X,Y pos of 4 corners*
0 Add a 4 corners polygon primitive as box body*
4,1,4,$2,$3,$4,$5,$6,$7,$8,$9,$2,$3,0*
0 Add four circle primitives for the rounded corners*
1,1,$1+$1,$2,$3*
1,1,$1+$1,$4,$5*
1,1,$1+$1,$6,$7*
1,1,$1+$1,$8,$9*
0 Add four rect primitives between the rounded corners*
20,1,$1+$1,$2,$3,$4,$5,0*
20,1,$1+$1,$4,$5,$6,$7,0*
20,1,$1+$1,$6,$7,$8,$9,0*
20,1,$1+$1,$8,$9,$2,$3,0*%
G04 Aperture macros list end*
%ADD10RoundRect,0.250000X1.000000X0.900000X-1.000000X0.900000X-1.000000X-0.900000X1.000000X-0.900000X0*%
%ADD11RoundRect,0.250000X0.475000X-0.250000X0.475000X0.250000X-0.475000X0.250000X-0.475000X-0.250000X0*%
%ADD12RoundRect,0.250000X-0.262500X-0.450000X0.262500X-0.450000X0.262500X0.450000X-0.262500X0.450000X0*%
%ADD13RoundRect,0.250000X0.450000X-0.262500X0.450000X0.262500X-0.450000X0.262500X-0.450000X-0.262500X0*%
%ADD14RoundRect,0.250000X-0.250000X-0.475000X0.250000X-0.475000X0.250000X0.475000X-0.250000X0.475000X0*%
%ADD15RoundRect,0.250000X0.262500X0.450000X-0.262500X0.450000X-0.262500X-0.450000X0.262500X-0.450000X0*%
%ADD16RoundRect,0.250000X1.400000X1.000000X-1.400000X1.000000X-1.400000X-1.000000X1.400000X-1.000000X0*%
%ADD17RoundRect,0.150000X0.150000X-0.512500X0.150000X0.512500X-0.150000X0.512500X-0.150000X-0.512500X0*%
%ADD18RoundRect,0.250000X-0.450000X0.262500X-0.450000X-0.262500X0.450000X-0.262500X0.450000X0.262500X0*%
%ADD19RoundRect,0.075000X0.225000X-0.910000X0.225000X0.910000X-0.225000X0.910000X-0.225000X-0.910000X0*%
%ADD20RoundRect,0.250000X-1.000000X-0.650000X1.000000X-0.650000X1.000000X0.650000X-1.000000X0.650000X0*%
%ADD21RoundRect,0.250000X0.900000X-1.000000X0.900000X1.000000X-0.900000X1.000000X-0.900000X-1.000000X0*%
%ADD22RoundRect,0.250000X-0.400000X-0.600000X0.400000X-0.600000X0.400000X0.600000X-0.400000X0.600000X0*%
%ADD23RoundRect,0.150000X0.150000X-0.825000X0.150000X0.825000X-0.150000X0.825000X-0.150000X-0.825000X0*%
%ADD24RoundRect,0.150000X0.150000X-0.587500X0.150000X0.587500X-0.150000X0.587500X-0.150000X-0.587500X0*%
%ADD25RoundRect,0.150000X-1.050000X-0.150000X1.050000X-0.150000X1.050000X0.150000X-1.050000X0.150000X0*%
%ADD26RoundRect,0.250000X-0.500000X-1.100000X0.500000X-1.100000X0.500000X1.100000X-0.500000X1.100000X0*%
G04 APERTURE END LIST*
D10*
%TO.C,D2*%
X39165000Y-51735000D03*
X34865000Y-51735000D03*
%TD*%
D11*
%TO.C,C13*%
X110155000Y-86935000D03*
X110155000Y-85035000D03*
%TD*%
D12*
%TO.C,R13*%
X78127500Y-75190000D03*
X79952500Y-75190000D03*
%TD*%
%TO.C,R16*%
X63407500Y-84755000D03*
X65232500Y-84755000D03*
%TD*%
D13*
%TO.C,R30*%
X99360000Y-63680000D03*
X99360000Y-61855000D03*
%TD*%
D11*
%TO.C,C15*%
X112187000Y-86935000D03*
X112187000Y-85035000D03*
%TD*%
D12*
%TO.C,R42*%
X94637500Y-42805000D03*
X96462500Y-42805000D03*
%TD*%
D14*
%TO.C,C5*%
X45590000Y-75738000D03*
X47490000Y-75738000D03*
%TD*%
D13*
%TO.C,R29*%
X95550000Y-63680000D03*
X95550000Y-61855000D03*
%TD*%
D15*
%TO.C,R35*%
X85987500Y-49790000D03*
X84162500Y-49790000D03*
%TD*%
D13*
%TO.C,R28*%
X91740000Y-63680000D03*
X91740000Y-61855000D03*
%TD*%
D11*
%TO.C,C12*%
X134285000Y-52645000D03*
X134285000Y-50745000D03*
%TD*%
D16*
%TO.C,D13*%
X219375000Y-78590000D03*
X219375000Y-71790000D03*
%TD*%
D12*
%TO.C,R9*%
X78127500Y-67570000D03*
X79952500Y-67570000D03*
%TD*%
%TO.C,R14*%
X63407500Y-79675000D03*
X65232500Y-79675000D03*
%TD*%
D17*
%TO.C,Q10*%
X87615000Y-49790000D03*
X89515000Y-49790000D03*
X88565000Y-47515000D03*
%TD*%
D12*
%TO.C,R38*%
X84162500Y-42805000D03*
X85987500Y-42805000D03*
%TD*%
D15*
%TO.C,R8*%
X51262500Y-87295000D03*
X49437500Y-87295000D03*
%TD*%
D14*
%TO.C,C2*%
X45590000Y-79802000D03*
X47490000Y-79802000D03*
%TD*%
D18*
%TO.C,R51*%
X127300000Y-52687500D03*
X127300000Y-54512500D03*
%TD*%
D19*
%TO.C,M1*%
X106345000Y-94175000D03*
X107615000Y-94175000D03*
X108885000Y-94175000D03*
X110155000Y-94175000D03*
X111425000Y-94175000D03*
X112695000Y-94175000D03*
X113965000Y-94175000D03*
X115235000Y-94175000D03*
X115235000Y-89225000D03*
X113965000Y-89225000D03*
X112695000Y-89225000D03*
X111425000Y-89225000D03*
X110155000Y-89225000D03*
X108885000Y-89225000D03*
X107615000Y-89225000D03*
X106345000Y-89225000D03*
%TD*%
D15*
%TO.C,R48*%
X142817500Y-79635000D03*
X140992500Y-79635000D03*
%TD*%
D14*
%TO.C,C4*%
X45590000Y-77770000D03*
X47490000Y-77770000D03*
%TD*%
D17*
%TO.C,Q12*%
X98090000Y-49790000D03*
X99990000Y-49790000D03*
X99040000Y-47515000D03*
%TD*%
D20*
%TO.C,D5*%
X87835000Y-83445000D03*
X91835000Y-83445000D03*
%TD*%
D21*
%TO.C,D1*%
X44635000Y-64435000D03*
X44635000Y-60135000D03*
%TD*%
D12*
%TO.C,R49*%
X123212500Y-50425000D03*
X125037500Y-50425000D03*
%TD*%
D11*
%TO.C,C9*%
X113330000Y-58995000D03*
X113330000Y-57095000D03*
%TD*%
D17*
%TO.C,Q11*%
X87569000Y-44698500D03*
X89469000Y-44698500D03*
X88519000Y-42423500D03*
%TD*%
D14*
%TO.C,C14*%
X110040000Y-96820000D03*
X111940000Y-96820000D03*
%TD*%
D22*
%TO.C,D14*%
X137615000Y-82175000D03*
X141115000Y-82175000D03*
%TD*%
D18*
%TO.C,R44*%
X215565000Y-65387500D03*
X215565000Y-67212500D03*
%TD*%
D12*
%TO.C,R11*%
X78127500Y-71380000D03*
X79952500Y-71380000D03*
%TD*%
D16*
%TO.C,D11*%
X212390000Y-78590000D03*
X212390000Y-71790000D03*
%TD*%
D15*
%TO.C,R50*%
X139007500Y-79635000D03*
X137182500Y-79635000D03*
%TD*%
D13*
%TO.C,R23*%
X83485000Y-65307500D03*
X83485000Y-63482500D03*
%TD*%
%TO.C,R19*%
X81580000Y-65307500D03*
X81580000Y-63482500D03*
%TD*%
D12*
%TO.C,R1*%
X41817500Y-79675000D03*
X43642500Y-79675000D03*
%TD*%
D17*
%TO.C,Q9*%
X77155000Y-44698500D03*
X79055000Y-44698500D03*
X78105000Y-42423500D03*
%TD*%
D23*
%TO.C,U2*%
X112060000Y-66235000D03*
X113330000Y-66235000D03*
X114600000Y-66235000D03*
X115870000Y-66235000D03*
X115870000Y-61285000D03*
X114600000Y-61285000D03*
X113330000Y-61285000D03*
X112060000Y-61285000D03*
%TD*%
D12*
%TO.C,R15*%
X63407500Y-82215000D03*
X65232500Y-82215000D03*
%TD*%
D17*
%TO.C,Q13*%
X98110000Y-44698500D03*
X100010000Y-44698500D03*
X99060000Y-42423500D03*
%TD*%
D24*
%TO.C,Q4*%
X94280000Y-59950000D03*
X96180000Y-59950000D03*
X95230000Y-58075000D03*
%TD*%
%TO.C,Q7*%
X98090000Y-54870000D03*
X99990000Y-54870000D03*
X99040000Y-52995000D03*
%TD*%
D15*
%TO.C,R33*%
X75507500Y-44710000D03*
X73682500Y-44710000D03*
%TD*%
%TO.C,R6*%
X51262500Y-82215000D03*
X49437500Y-82215000D03*
%TD*%
%TO.C,R60*%
X51262500Y-79675000D03*
X49437500Y-79675000D03*
%TD*%
D13*
%TO.C,R25*%
X85390000Y-65307500D03*
X85390000Y-63482500D03*
%TD*%
D15*
%TO.C,R59*%
X51262500Y-69515000D03*
X49437500Y-69515000D03*
%TD*%
%TO.C,R45*%
X119207500Y-95550000D03*
X117382500Y-95550000D03*
%TD*%
D10*
%TO.C,D3*%
X34720000Y-88565000D03*
X30420000Y-88565000D03*
%TD*%
D24*
%TO.C,Q5*%
X94280000Y-54870000D03*
X96180000Y-54870000D03*
X95230000Y-52995000D03*
%TD*%
D12*
%TO.C,R46*%
X127022500Y-77730000D03*
X128847500Y-77730000D03*
%TD*%
%TO.C,R36*%
X84162500Y-47885000D03*
X85987500Y-47885000D03*
%TD*%
D15*
%TO.C,R41*%
X96462500Y-44710000D03*
X94637500Y-44710000D03*
%TD*%
D11*
%TO.C,C11*%
X117775000Y-65980000D03*
X117775000Y-64080000D03*
%TD*%
D18*
%TO.C,R27*%
X91613000Y-74555000D03*
X91613000Y-76380000D03*
%TD*%
D24*
%TO.C,Q2*%
X90470000Y-59950000D03*
X92370000Y-59950000D03*
X91420000Y-58075000D03*
%TD*%
D16*
%TO.C,D10*%
X212390000Y-55730000D03*
X212390000Y-48930000D03*
%TD*%
D15*
%TO.C,R52*%
X131907500Y-82810000D03*
X130082500Y-82810000D03*
%TD*%
D13*
%TO.C,R61*%
X63685000Y-88842500D03*
X63685000Y-87017500D03*
%TD*%
D12*
%TO.C,R40*%
X94637500Y-47885000D03*
X96462500Y-47885000D03*
%TD*%
D15*
%TO.C,R21*%
X80587500Y-84080000D03*
X78762500Y-84080000D03*
%TD*%
D12*
%TO.C,R10*%
X78127500Y-69475000D03*
X79952500Y-69475000D03*
%TD*%
%TO.C,R34*%
X73682500Y-42805000D03*
X75507500Y-42805000D03*
%TD*%
D13*
%TO.C,R20*%
X67495000Y-88842500D03*
X67495000Y-87017500D03*
%TD*%
D16*
%TO.C,D12*%
X219375000Y-55730000D03*
X219375000Y-48930000D03*
%TD*%
D18*
%TO.C,R43*%
X215565000Y-61577500D03*
X215565000Y-63402500D03*
%TD*%
D15*
%TO.C,R31*%
X75507500Y-49790000D03*
X73682500Y-49790000D03*
%TD*%
D12*
%TO.C,R32*%
X73682500Y-47885000D03*
X75507500Y-47885000D03*
%TD*%
%TO.C,R5*%
X41817500Y-81580000D03*
X43642500Y-81580000D03*
%TD*%
D24*
%TO.C,Q3*%
X90470000Y-54870000D03*
X92370000Y-54870000D03*
X91420000Y-52995000D03*
%TD*%
D14*
%TO.C,C3*%
X45590000Y-73706000D03*
X47490000Y-73706000D03*
%TD*%
D15*
%TO.C,R39*%
X96462500Y-49790000D03*
X94637500Y-49790000D03*
%TD*%
D12*
%TO.C,R22*%
X74952500Y-84080000D03*
X76777500Y-84080000D03*
%TD*%
D11*
%TO.C,C10*%
X110155000Y-64710000D03*
X110155000Y-62810000D03*
%TD*%
D17*
%TO.C,Q8*%
X77135000Y-49790000D03*
X79035000Y-49790000D03*
X78085000Y-47515000D03*
%TD*%
D13*
%TO.C,R18*%
X65590000Y-88842500D03*
X65590000Y-87017500D03*
%TD*%
D14*
%TO.C,C1*%
X44320000Y-84120000D03*
X46220000Y-84120000D03*
%TD*%
D12*
%TO.C,R12*%
X78127500Y-73285000D03*
X79952500Y-73285000D03*
%TD*%
D18*
%TO.C,R53*%
X121585000Y-54870000D03*
X121585000Y-56695000D03*
%TD*%
D15*
%TO.C,R7*%
X51262500Y-84755000D03*
X49437500Y-84755000D03*
%TD*%
D13*
%TO.C,R26*%
X87295000Y-65307500D03*
X87295000Y-63482500D03*
%TD*%
D17*
%TO.C,Q1*%
X78725000Y-81910000D03*
X80625000Y-81910000D03*
X79675000Y-79635000D03*
%TD*%
D25*
%TO.C,U1*%
X82596000Y-68205000D03*
X82596000Y-69475000D03*
X82596000Y-70745000D03*
X82596000Y-72015000D03*
X82596000Y-73285000D03*
X82596000Y-74555000D03*
X82596000Y-75825000D03*
X82596000Y-77095000D03*
X89096000Y-77095000D03*
X89096000Y-75825000D03*
X89096000Y-74555000D03*
X89096000Y-73285000D03*
X89096000Y-72015000D03*
X89096000Y-70745000D03*
X89096000Y-69475000D03*
X89096000Y-68205000D03*
%TD*%
D13*
%TO.C,R17*%
X79675000Y-65307500D03*
X79675000Y-63482500D03*
%TD*%
D14*
%TO.C,C6*%
X45590000Y-81834000D03*
X47490000Y-81834000D03*
%TD*%
D12*
%TO.C,R3*%
X41817500Y-77770000D03*
X43642500Y-77770000D03*
%TD*%
D26*
%TO.C,D4*%
X83130000Y-79635000D03*
X87930000Y-79635000D03*
%TD*%
D22*
%TO.C,D15*%
X121740000Y-52965000D03*
X125240000Y-52965000D03*
%TD*%
D15*
%TO.C,R37*%
X85987500Y-44710000D03*
X84162500Y-44710000D03*
%TD*%
D13*
%TO.C,R24*%
X69400000Y-88842500D03*
X69400000Y-87017500D03*
%TD*%
D12*
%TO.C,R47*%
X220090000Y-83445000D03*
X221915000Y-83445000D03*
%TD*%
D24*
%TO.C,Q6*%
X98095000Y-59950000D03*
X99995000Y-59950000D03*
X99045000Y-58075000D03*
%TD*%
D12*
%TO.C,R4*%
X41817500Y-75865000D03*
X43642500Y-75865000D03*
%TD*%
%TO.C,R2*%
X41817500Y-73960000D03*
X43642500Y-73960000D03*
%TD*%
M02*
