%TF.GenerationSoftware,KiCad,Pcbnew,9.0.7*%
%TF.CreationDate,2026-03-05T17:42:54+01:00*%
%TF.ProjectId,Datron 1281 Strom Option,44617472-6f6e-4203-9132-383120537472,1*%
%TF.SameCoordinates,Original*%
%TF.FileFunction,Soldermask,Bot*%
%TF.FilePolarity,Negative*%
%FSLAX46Y46*%
G04 Gerber Fmt 4.6, Leading zero omitted, Abs format (unit mm)*
G04 Created by KiCad (PCBNEW 9.0.7) date 2026-03-05 17:42:54*
%MOMM*%
%LPD*%
G01*
G04 APERTURE LIST*
G04 Aperture macros list*
%AMRoundRect*
0 Rectangle with rounded corners*
0 $1 Rounding radius*
0 $2 $3 $4 $5 $6 $7 $8 $9 X,Y pos of 4 corners*
0 Add a 4 corners polygon primitive as box body*
4,1,4,$2,$3,$4,$5,$6,$7,$8,$9,$2,$3,0*
0 Add four circle primitives for the rounded corners*
1,1,$1+$1,$2,$3*
1,1,$1+$1,$4,$5*
1,1,$1+$1,$6,$7*
1,1,$1+$1,$8,$9*
0 Add four rect primitives between the rounded corners*
20,1,$1+$1,$2,$3,$4,$5,0*
20,1,$1+$1,$4,$5,$6,$7,0*
20,1,$1+$1,$6,$7,$8,$9,0*
20,1,$1+$1,$8,$9,$2,$3,0*%
G04 Aperture macros list end*
%ADD10C,0.100000*%
%ADD11RoundRect,0.650000X-0.650000X-0.650000X0.650000X-0.650000X0.650000X0.650000X-0.650000X0.650000X0*%
%ADD12C,2.600000*%
%ADD13RoundRect,0.250000X0.600000X0.600000X-0.600000X0.600000X-0.600000X-0.600000X0.600000X-0.600000X0*%
%ADD14C,1.700000*%
%ADD15O,1.200000X1.600000*%
%ADD16C,1.200000*%
%ADD17RoundRect,0.250000X-0.950000X-0.550000X0.950000X-0.550000X0.950000X0.550000X-0.950000X0.550000X0*%
%ADD18O,2.400000X1.600000*%
%ADD19C,2.000000*%
%ADD20R,1.830000X1.830000*%
%ADD21C,1.515000*%
%ADD22C,1.830000*%
%ADD23RoundRect,0.650000X0.650000X0.650000X-0.650000X0.650000X-0.650000X-0.650000X0.650000X-0.650000X0*%
%ADD24C,1.365000*%
%ADD25R,1.650000X1.650000*%
%ADD26C,1.650000*%
%ADD27R,1.950000X1.950000*%
%ADD28C,1.950000*%
%ADD29R,1.300000X1.300000*%
%ADD30C,1.300000*%
%ADD31C,1.550000*%
%ADD32R,1.680000X1.680000*%
%ADD33C,1.680000*%
G04 APERTURE END LIST*
D10*
X245955400Y-82850000D02*
X245952472Y-82879732D01*
X245929716Y-82934669D01*
X245887669Y-82976716D01*
X245832732Y-82999472D01*
X245803000Y-83002400D01*
X242475600Y-83002400D01*
X242445868Y-82999472D01*
X242390931Y-82976716D01*
X242348884Y-82934669D01*
X242326128Y-82879732D01*
X242323200Y-82850000D01*
X242323200Y-79192400D01*
X242628000Y-79192400D01*
X242628000Y-82697600D01*
X245650600Y-82697600D01*
X245650600Y-79192400D01*
X242628000Y-79192400D01*
X242323200Y-79192400D01*
X242323200Y-79040000D01*
X242326128Y-79010268D01*
X242348884Y-78955331D01*
X242390931Y-78913284D01*
X242445868Y-78890528D01*
X242475600Y-78887600D01*
X245803000Y-78887600D01*
X245832732Y-78890528D01*
X245887669Y-78913284D01*
X245929716Y-78955331D01*
X245952472Y-79010268D01*
X245955400Y-79040000D01*
X245955400Y-79192400D01*
X245955400Y-82850000D01*
G36*
X245955400Y-82850000D02*
G01*
X245952472Y-82879732D01*
X245929716Y-82934669D01*
X245887669Y-82976716D01*
X245832732Y-82999472D01*
X245803000Y-83002400D01*
X242475600Y-83002400D01*
X242445868Y-82999472D01*
X242390931Y-82976716D01*
X242348884Y-82934669D01*
X242326128Y-82879732D01*
X242323200Y-82850000D01*
X242323200Y-79192400D01*
X242628000Y-79192400D01*
X242628000Y-82697600D01*
X245650600Y-82697600D01*
X245650600Y-79192400D01*
X242628000Y-79192400D01*
X242323200Y-79192400D01*
X242323200Y-79040000D01*
X242326128Y-79010268D01*
X242348884Y-78955331D01*
X242390931Y-78913284D01*
X242445868Y-78890528D01*
X242475600Y-78887600D01*
X245803000Y-78887600D01*
X245832732Y-78890528D01*
X245887669Y-78913284D01*
X245929716Y-78955331D01*
X245952472Y-79010268D01*
X245955400Y-79040000D01*
X245955400Y-79192400D01*
X245955400Y-82850000D01*
G37*
X270962400Y-59315000D02*
X270959472Y-59344732D01*
X270936716Y-59399669D01*
X270894669Y-59441716D01*
X270839732Y-59464472D01*
X270810000Y-59467400D01*
X260650000Y-59467400D01*
X260620268Y-59464472D01*
X260565331Y-59441716D01*
X260523284Y-59399669D01*
X260500528Y-59344732D01*
X260497600Y-59315000D01*
X260497600Y-51847400D01*
X256193126Y-51847400D01*
X251277400Y-56763126D01*
X251277400Y-57410000D01*
X251274472Y-57439732D01*
X251251716Y-57494669D01*
X251209669Y-57536716D01*
X251154732Y-57559472D01*
X251125000Y-57562400D01*
X247315000Y-57562400D01*
X247285268Y-57559472D01*
X247230331Y-57536716D01*
X247188284Y-57494669D01*
X247165528Y-57439732D01*
X247162600Y-57410000D01*
X247162600Y-54858126D01*
X247467400Y-54858126D01*
X247467400Y-57257600D01*
X250972600Y-57257600D01*
X250972600Y-56700000D01*
X250975528Y-56670268D01*
X250998284Y-56615331D01*
X251017237Y-56592237D01*
X256022237Y-51587237D01*
X256045331Y-51568284D01*
X256100268Y-51545528D01*
X256130000Y-51542600D01*
X260650000Y-51542600D01*
X260679732Y-51545528D01*
X260734669Y-51568284D01*
X260776716Y-51610331D01*
X260799472Y-51665268D01*
X260802400Y-51695000D01*
X260802400Y-59162600D01*
X270657600Y-59162600D01*
X270657600Y-41687400D01*
X258262400Y-41687400D01*
X258262400Y-47885000D01*
X258259472Y-47914732D01*
X258236716Y-47969669D01*
X258194669Y-48011716D01*
X258139732Y-48034472D01*
X258110000Y-48037400D01*
X254288126Y-48037400D01*
X247467400Y-54858126D01*
X247162600Y-54858126D01*
X247162600Y-54795000D01*
X247165528Y-54765268D01*
X247188283Y-54710331D01*
X247207237Y-54687237D01*
X254117237Y-47777237D01*
X254140331Y-47758284D01*
X254195268Y-47735528D01*
X254225000Y-47732600D01*
X257957600Y-47732600D01*
X257957600Y-41535000D01*
X257960528Y-41505268D01*
X257983284Y-41450331D01*
X258025331Y-41408284D01*
X258080268Y-41385528D01*
X258110000Y-41382600D01*
X270810000Y-41382600D01*
X270839732Y-41385528D01*
X270894669Y-41408284D01*
X270936716Y-41450331D01*
X270959472Y-41505268D01*
X270962400Y-41535000D01*
X270962400Y-41687400D01*
X270962400Y-59315000D01*
G36*
X270962400Y-59315000D02*
G01*
X270959472Y-59344732D01*
X270936716Y-59399669D01*
X270894669Y-59441716D01*
X270839732Y-59464472D01*
X270810000Y-59467400D01*
X260650000Y-59467400D01*
X260620268Y-59464472D01*
X260565331Y-59441716D01*
X260523284Y-59399669D01*
X260500528Y-59344732D01*
X260497600Y-59315000D01*
X260497600Y-51847400D01*
X256193126Y-51847400D01*
X251277400Y-56763126D01*
X251277400Y-57410000D01*
X251274472Y-57439732D01*
X251251716Y-57494669D01*
X251209669Y-57536716D01*
X251154732Y-57559472D01*
X251125000Y-57562400D01*
X247315000Y-57562400D01*
X247285268Y-57559472D01*
X247230331Y-57536716D01*
X247188284Y-57494669D01*
X247165528Y-57439732D01*
X247162600Y-57410000D01*
X247162600Y-54858126D01*
X247467400Y-54858126D01*
X247467400Y-57257600D01*
X250972600Y-57257600D01*
X250972600Y-56700000D01*
X250975528Y-56670268D01*
X250998284Y-56615331D01*
X251017237Y-56592237D01*
X256022237Y-51587237D01*
X256045331Y-51568284D01*
X256100268Y-51545528D01*
X256130000Y-51542600D01*
X260650000Y-51542600D01*
X260679732Y-51545528D01*
X260734669Y-51568284D01*
X260776716Y-51610331D01*
X260799472Y-51665268D01*
X260802400Y-51695000D01*
X260802400Y-59162600D01*
X270657600Y-59162600D01*
X270657600Y-41687400D01*
X258262400Y-41687400D01*
X258262400Y-47885000D01*
X258259472Y-47914732D01*
X258236716Y-47969669D01*
X258194669Y-48011716D01*
X258139732Y-48034472D01*
X258110000Y-48037400D01*
X254288126Y-48037400D01*
X247467400Y-54858126D01*
X247162600Y-54858126D01*
X247162600Y-54795000D01*
X247165528Y-54765268D01*
X247188283Y-54710331D01*
X247207237Y-54687237D01*
X254117237Y-47777237D01*
X254140331Y-47758284D01*
X254195268Y-47735528D01*
X254225000Y-47732600D01*
X257957600Y-47732600D01*
X257957600Y-41535000D01*
X257960528Y-41505268D01*
X257983284Y-41450331D01*
X258025331Y-41408284D01*
X258080268Y-41385528D01*
X258110000Y-41382600D01*
X270810000Y-41382600D01*
X270839732Y-41385528D01*
X270894669Y-41408284D01*
X270936716Y-41450331D01*
X270959472Y-41505268D01*
X270962400Y-41535000D01*
X270962400Y-41687400D01*
X270962400Y-59315000D01*
G37*
X269057400Y-98685000D02*
X269054472Y-98714732D01*
X269031716Y-98769669D01*
X268989669Y-98811716D01*
X268934732Y-98834472D01*
X268905000Y-98837400D01*
X258110000Y-98837400D01*
X258080268Y-98834472D01*
X258025331Y-98811716D01*
X257983284Y-98769669D01*
X257960528Y-98714732D01*
X257957600Y-98685000D01*
X257957600Y-73348126D01*
X254871874Y-70262400D01*
X248585000Y-70262400D01*
X248555268Y-70259472D01*
X248500331Y-70236716D01*
X248477237Y-70217763D01*
X242127237Y-63867763D01*
X242108284Y-63844669D01*
X242085528Y-63789732D01*
X242082600Y-63760000D01*
X242082600Y-61372400D01*
X242387400Y-61372400D01*
X242387400Y-63696874D01*
X248648126Y-69957600D01*
X254935000Y-69957600D01*
X254964732Y-69960528D01*
X255019669Y-69983284D01*
X255042763Y-70002237D01*
X258217763Y-73177237D01*
X258236716Y-73200331D01*
X258259472Y-73255268D01*
X258262400Y-73285000D01*
X258262400Y-98532600D01*
X268752600Y-98532600D01*
X268752600Y-75977400D01*
X261920000Y-75977400D01*
X261890268Y-75974472D01*
X261835331Y-75951716D01*
X261793284Y-75909669D01*
X261770528Y-75854732D01*
X261767600Y-75825000D01*
X261767600Y-72078126D01*
X256141874Y-66452400D01*
X249855000Y-66452400D01*
X249825268Y-66449472D01*
X249770331Y-66426716D01*
X249747237Y-66407763D01*
X245937237Y-62597763D01*
X245918283Y-62574669D01*
X245902193Y-62535823D01*
X245895528Y-62519732D01*
X245892600Y-62490000D01*
X245892600Y-61372400D01*
X242387400Y-61372400D01*
X242082600Y-61372400D01*
X242082600Y-61220000D01*
X242085528Y-61190268D01*
X242108284Y-61135331D01*
X242150331Y-61093284D01*
X242205268Y-61070528D01*
X242235000Y-61067600D01*
X243987600Y-61067600D01*
X243987600Y-59950000D01*
X243990528Y-59920268D01*
X244013284Y-59865331D01*
X244055331Y-59823284D01*
X244110268Y-59800528D01*
X244169732Y-59800528D01*
X244224669Y-59823284D01*
X244266716Y-59865331D01*
X244289472Y-59920268D01*
X244292400Y-59950000D01*
X244292400Y-61067600D01*
X246045000Y-61067600D01*
X246074732Y-61070528D01*
X246129669Y-61093284D01*
X246171716Y-61135331D01*
X246194472Y-61190268D01*
X246197400Y-61220000D01*
X246197400Y-62426874D01*
X249918126Y-66147600D01*
X256205000Y-66147600D01*
X256234732Y-66150528D01*
X256250823Y-66157193D01*
X256289669Y-66173283D01*
X256312763Y-66192237D01*
X262027763Y-71907237D01*
X262046716Y-71930331D01*
X262069472Y-71985268D01*
X262072400Y-72015000D01*
X262072400Y-75672600D01*
X268905000Y-75672600D01*
X268934732Y-75675528D01*
X268989669Y-75698284D01*
X269031716Y-75740331D01*
X269054472Y-75795268D01*
X269057400Y-75825000D01*
X269057400Y-75977400D01*
X269057400Y-98685000D01*
G36*
X269057400Y-98685000D02*
G01*
X269054472Y-98714732D01*
X269031716Y-98769669D01*
X268989669Y-98811716D01*
X268934732Y-98834472D01*
X268905000Y-98837400D01*
X258110000Y-98837400D01*
X258080268Y-98834472D01*
X258025331Y-98811716D01*
X257983284Y-98769669D01*
X257960528Y-98714732D01*
X257957600Y-98685000D01*
X257957600Y-73348126D01*
X254871874Y-70262400D01*
X248585000Y-70262400D01*
X248555268Y-70259472D01*
X248500331Y-70236716D01*
X248477237Y-70217763D01*
X242127237Y-63867763D01*
X242108284Y-63844669D01*
X242085528Y-63789732D01*
X242082600Y-63760000D01*
X242082600Y-61372400D01*
X242387400Y-61372400D01*
X242387400Y-63696874D01*
X248648126Y-69957600D01*
X254935000Y-69957600D01*
X254964732Y-69960528D01*
X255019669Y-69983284D01*
X255042763Y-70002237D01*
X258217763Y-73177237D01*
X258236716Y-73200331D01*
X258259472Y-73255268D01*
X258262400Y-73285000D01*
X258262400Y-98532600D01*
X268752600Y-98532600D01*
X268752600Y-75977400D01*
X261920000Y-75977400D01*
X261890268Y-75974472D01*
X261835331Y-75951716D01*
X261793284Y-75909669D01*
X261770528Y-75854732D01*
X261767600Y-75825000D01*
X261767600Y-72078126D01*
X256141874Y-66452400D01*
X249855000Y-66452400D01*
X249825268Y-66449472D01*
X249770331Y-66426716D01*
X249747237Y-66407763D01*
X245937237Y-62597763D01*
X245918283Y-62574669D01*
X245902193Y-62535823D01*
X245895528Y-62519732D01*
X245892600Y-62490000D01*
X245892600Y-61372400D01*
X242387400Y-61372400D01*
X242082600Y-61372400D01*
X242082600Y-61220000D01*
X242085528Y-61190268D01*
X242108284Y-61135331D01*
X242150331Y-61093284D01*
X242205268Y-61070528D01*
X242235000Y-61067600D01*
X243987600Y-61067600D01*
X243987600Y-59950000D01*
X243990528Y-59920268D01*
X244013284Y-59865331D01*
X244055331Y-59823284D01*
X244110268Y-59800528D01*
X244169732Y-59800528D01*
X244224669Y-59823284D01*
X244266716Y-59865331D01*
X244289472Y-59920268D01*
X244292400Y-59950000D01*
X244292400Y-61067600D01*
X246045000Y-61067600D01*
X246074732Y-61070528D01*
X246129669Y-61093284D01*
X246171716Y-61135331D01*
X246194472Y-61190268D01*
X246197400Y-61220000D01*
X246197400Y-62426874D01*
X249918126Y-66147600D01*
X256205000Y-66147600D01*
X256234732Y-66150528D01*
X256250823Y-66157193D01*
X256289669Y-66173283D01*
X256312763Y-66192237D01*
X262027763Y-71907237D01*
X262046716Y-71930331D01*
X262069472Y-71985268D01*
X262072400Y-72015000D01*
X262072400Y-75672600D01*
X268905000Y-75672600D01*
X268934732Y-75675528D01*
X268989669Y-75698284D01*
X269031716Y-75740331D01*
X269054472Y-75795268D01*
X269057400Y-75825000D01*
X269057400Y-75977400D01*
X269057400Y-98685000D01*
G37*
D11*
%TO.C,JP3*%
X260650000Y-44075000D03*
D12*
X265730000Y-44075000D03*
%TD*%
D13*
%TO.C,J1*%
X33205000Y-79675000D03*
D14*
X30665000Y-79675000D03*
X33205000Y-77135000D03*
X30665000Y-77135000D03*
X33205000Y-74595000D03*
X30665000Y-74595000D03*
X33205000Y-72055000D03*
X30665000Y-72055000D03*
X33205000Y-69515000D03*
X30665000Y-69515000D03*
X33205000Y-66975000D03*
X30665000Y-66975000D03*
X33205000Y-64435000D03*
X30665000Y-64435000D03*
X33205000Y-61895000D03*
X30665000Y-61895000D03*
%TD*%
D15*
%TO.C,D8*%
X98725000Y-70745000D03*
D16*
X98725000Y-73285000D03*
X99995000Y-72015000D03*
%TD*%
D15*
%TO.C,D9*%
X98725000Y-77730000D03*
D16*
X98725000Y-80270000D03*
X99995000Y-79000000D03*
%TD*%
D17*
%TO.C,U3*%
X53525000Y-66975000D03*
D18*
X53525000Y-69515000D03*
X53525000Y-72055000D03*
X53525000Y-74595000D03*
X53525000Y-77135000D03*
X53525000Y-79675000D03*
X53525000Y-82215000D03*
X53525000Y-84755000D03*
X53525000Y-87295000D03*
X61145000Y-87295000D03*
X61145000Y-84755000D03*
X61145000Y-82215000D03*
X61145000Y-79675000D03*
X61145000Y-77135000D03*
X61145000Y-74595000D03*
X61145000Y-72055000D03*
X61145000Y-69515000D03*
X61145000Y-66975000D03*
%TD*%
D19*
%TO.C,TP103*%
X186875000Y-88565000D03*
%TD*%
%TO.C,TP201*%
X77135000Y-96145000D03*
%TD*%
%TO.C,TP205*%
X77135000Y-87890000D03*
%TD*%
%TO.C,TP202*%
X39555000Y-64435000D03*
%TD*%
D11*
%TO.C,JP2*%
X260015000Y-96145000D03*
D12*
X265095000Y-96145000D03*
%TD*%
D20*
%TO.C,R54*%
X181110000Y-76245000D03*
D21*
X181110000Y-71240000D03*
X181110000Y-53740000D03*
D22*
X181110000Y-48735000D03*
%TD*%
D15*
%TO.C,D7*%
X93194724Y-94240000D03*
D16*
X93194724Y-91700000D03*
X91924724Y-92970000D03*
%TD*%
D23*
%TO.C,JP1*%
X35110000Y-44115000D03*
D12*
X30030000Y-44115000D03*
%TD*%
D19*
%TO.C,TP106*%
X108250000Y-55505000D03*
%TD*%
D24*
%TO.C,R56*%
X138095000Y-49790000D03*
X138095000Y-53600000D03*
%TD*%
D19*
%TO.C,TP102*%
X173540000Y-88565000D03*
%TD*%
D25*
%TO.C,J5*%
X230825000Y-44750000D03*
D26*
X230825000Y-47290000D03*
%TD*%
D25*
%TO.C,J2*%
X264460000Y-77730000D03*
D26*
X264460000Y-80270000D03*
X264460000Y-82810000D03*
X264460000Y-85350000D03*
X264460000Y-87890000D03*
X264460000Y-90430000D03*
%TD*%
D27*
%TO.C,RL5*%
X213926000Y-95296000D03*
D28*
X219006000Y-95296000D03*
X224086000Y-95296000D03*
X229166000Y-95296000D03*
X234246000Y-95296000D03*
X239326000Y-95296000D03*
X239326000Y-87676000D03*
X234246000Y-87676000D03*
X229166000Y-87676000D03*
X224086000Y-87676000D03*
X219006000Y-87676000D03*
X213926000Y-87676000D03*
%TD*%
D29*
%TO.C,Q16*%
X124125000Y-58405000D03*
D30*
X125395000Y-57135000D03*
X126665000Y-58405000D03*
%TD*%
D19*
%TO.C,TP204*%
X40190000Y-86660000D03*
%TD*%
D29*
%TO.C,Q14*%
X131745000Y-79635000D03*
D30*
X133015000Y-78365000D03*
X134285000Y-79635000D03*
%TD*%
D31*
%TO.C,RL4*%
X154605000Y-90470000D03*
X159685000Y-90470000D03*
X162225000Y-90470000D03*
X164765000Y-90470000D03*
X164765000Y-85390000D03*
X162225000Y-85390000D03*
X159685000Y-85390000D03*
X154605000Y-85390000D03*
%TD*%
D19*
%TO.C,TP105*%
X105075000Y-77095000D03*
%TD*%
%TO.C,TP104*%
X195130000Y-88565000D03*
%TD*%
D24*
%TO.C,R58*%
X149525000Y-49790000D03*
X149525000Y-53600000D03*
%TD*%
D29*
%TO.C,Q15*%
X123490000Y-64755000D03*
D30*
X124760000Y-63485000D03*
X126030000Y-64755000D03*
%TD*%
D25*
%TO.C,J3*%
X264460000Y-49790000D03*
D26*
X264460000Y-52330000D03*
X264460000Y-54870000D03*
X264460000Y-57410000D03*
%TD*%
D15*
%TO.C,D6*%
X86025000Y-91700000D03*
D16*
X86025000Y-94240000D03*
X87295000Y-92970000D03*
%TD*%
D32*
%TO.C,R55*%
X162745000Y-57450000D03*
D33*
X165285000Y-57450000D03*
X167825000Y-57450000D03*
X170365000Y-57450000D03*
%TD*%
D24*
%TO.C,R57*%
X143810000Y-53600000D03*
X143810000Y-49790000D03*
%TD*%
D27*
%TO.C,RL2*%
X228900000Y-80905000D03*
D28*
X233980000Y-80905000D03*
X239060000Y-80905000D03*
X244140000Y-80905000D03*
X249220000Y-80905000D03*
X254300000Y-80905000D03*
X254300000Y-73285000D03*
X249220000Y-73285000D03*
X244140000Y-73285000D03*
X239060000Y-73285000D03*
X233980000Y-73285000D03*
X228900000Y-73285000D03*
%TD*%
D27*
%TO.C,RL1*%
X228900000Y-63125000D03*
D28*
X233980000Y-63125000D03*
X239060000Y-63125000D03*
X244140000Y-63125000D03*
X249220000Y-63125000D03*
X254300000Y-63125000D03*
X254300000Y-55505000D03*
X249220000Y-55505000D03*
X244140000Y-55505000D03*
X239060000Y-55505000D03*
X233980000Y-55505000D03*
X228900000Y-55505000D03*
%TD*%
D31*
%TO.C,RL3*%
X129090000Y-90470000D03*
X134170000Y-90470000D03*
X136710000Y-90470000D03*
X139250000Y-90470000D03*
X139250000Y-85390000D03*
X136710000Y-85390000D03*
X134170000Y-85390000D03*
X129090000Y-85390000D03*
%TD*%
D19*
%TO.C,TP203*%
X30665000Y-51735000D03*
%TD*%
%TO.C,TP101*%
X255455000Y-86025000D03*
%TD*%
D25*
%TO.C,J4*%
X264460000Y-65030000D03*
D26*
X264460000Y-67570000D03*
X264460000Y-70110000D03*
%TD*%
M02*
